<svg width="2500" height="544" viewBox="0 0 2500 544" fill="none" xmlns="http://www.w3.org/2000/svg">
<g clip-path="url(#clip0_69_100)">
<path d="M987.661 307.644L944.813 192.144C943.065 187.42 936.383 187.42 934.631 192.144L891.791 307.652C891.487 308.473 891.386 309.355 891.496 310.224C891.607 311.092 891.926 311.921 892.426 312.64C892.926 313.358 893.593 313.945 894.369 314.351C895.145 314.756 896.008 314.967 896.884 314.967H982.568C983.444 314.967 984.306 314.755 985.082 314.349C985.858 313.944 986.525 313.356 987.025 312.637C987.525 311.918 987.843 311.089 987.953 310.22C988.064 309.352 987.962 308.469 987.657 307.648M1007.45 372.565H872.001C870.893 372.566 869.811 372.905 868.902 373.538C867.992 374.17 867.298 375.067 866.912 376.105L840.245 447.973C839.859 449.012 839.165 449.908 838.255 450.541C837.345 451.174 836.264 451.513 835.155 451.513H776.446C775.558 451.513 774.685 451.295 773.901 450.879C773.117 450.463 772.447 449.861 771.95 449.125C771.453 448.39 771.143 447.544 771.048 446.662C770.954 445.779 771.077 444.887 771.407 444.063L906.574 107.343C906.979 106.337 907.675 105.476 908.574 104.869C909.473 104.263 910.532 103.939 911.616 103.941H967.832C970.047 103.941 972.041 105.287 972.87 107.343L1108.03 444.06C1108.37 444.884 1108.49 445.777 1108.4 446.66C1108.3 447.544 1107.99 448.391 1107.5 449.127C1107 449.863 1106.33 450.466 1105.54 450.883C1104.76 451.299 1103.88 451.517 1102.99 451.517H1044.3C1043.19 451.516 1042.11 451.176 1041.2 450.543C1040.29 449.909 1039.59 449.012 1039.21 447.973L1012.54 376.105C1012.15 375.067 1011.46 374.17 1010.55 373.538C1009.64 372.905 1008.55 372.566 1007.45 372.565M1135.54 222.112H1185.75C1187.19 222.112 1188.58 222.684 1189.59 223.703C1190.61 224.721 1191.18 226.102 1191.18 227.542V446.083C1191.18 447.523 1190.61 448.904 1189.59 449.923C1188.58 450.941 1187.19 451.513 1185.75 451.513H1135.54C1134.1 451.513 1132.72 450.941 1131.7 449.923C1130.68 448.904 1130.11 447.523 1130.11 446.083V227.538C1130.11 226.098 1130.68 224.717 1131.7 223.699C1132.72 222.681 1134.1 222.112 1135.54 222.112ZM1374.32 275.273C1374.32 276.713 1373.74 278.094 1372.73 279.112C1371.71 280.13 1370.33 280.702 1368.89 280.702H1367.37C1342.54 280.702 1324.33 286.66 1312.74 298.577C1301.15 310.493 1295.37 330.192 1295.37 357.666V446.083C1295.37 447.523 1294.8 448.904 1293.78 449.923C1292.76 450.941 1291.38 451.513 1289.94 451.513H1240.22C1238.78 451.513 1237.4 450.941 1236.38 449.923C1235.36 448.904 1234.79 447.523 1234.79 446.083V227.538C1234.79 226.098 1235.36 224.717 1236.38 223.699C1237.4 222.681 1238.78 222.109 1240.22 222.109H1289.44C1290.88 222.109 1292.26 222.681 1293.28 223.699C1294.3 224.717 1294.87 226.098 1294.87 227.538V270.766H1295.86C1301.82 252.891 1311.26 239.162 1324.17 229.555C1337.08 219.959 1352.97 215.155 1371.83 215.155H1374.32V275.273ZM1511.61 273.253C1510.17 273.253 1508.79 273.825 1507.78 274.843C1506.76 275.861 1506.19 277.242 1506.19 278.682V369.583C1506.19 378.853 1508 385.474 1511.64 389.444C1515.28 393.415 1521.57 395.403 1530.51 395.403H1535.51C1536.95 395.403 1538.33 395.975 1539.35 396.993C1540.37 398.011 1540.94 399.392 1540.94 400.832V446.576C1540.94 448.016 1540.37 449.397 1539.35 450.415C1538.33 451.433 1536.95 452.005 1535.51 452.005H1514.12C1491.94 452.005 1474.9 446.297 1462.98 434.876C1451.06 423.456 1445.1 406.497 1445.1 383.982V278.682C1445.1 277.242 1444.53 275.861 1443.51 274.843C1442.5 273.825 1441.12 273.253 1439.68 273.253H1408.33C1406.89 273.253 1405.51 272.681 1404.49 271.662C1403.47 270.644 1402.9 269.263 1402.9 267.823V227.538C1402.9 226.098 1403.47 224.717 1404.49 223.699C1405.51 222.681 1406.89 222.109 1408.33 222.109H1439.68C1441.12 222.109 1442.5 221.537 1443.52 220.518C1444.54 219.5 1445.11 218.119 1445.11 216.679V135.679C1445.11 134.239 1445.68 132.858 1446.7 131.84C1447.72 130.821 1449.1 130.249 1450.54 130.249H1500.75C1502.19 130.249 1503.57 130.821 1504.59 131.84C1505.61 132.858 1506.18 134.239 1506.18 135.679V216.679C1506.18 218.119 1506.75 219.5 1507.77 220.518C1508.79 221.537 1510.17 222.109 1511.61 222.109H1547.92C1549.36 222.109 1550.74 222.681 1551.76 223.699C1552.78 224.717 1553.35 226.098 1553.35 227.538V267.827C1553.35 269.267 1552.78 270.648 1551.76 271.666C1550.74 272.684 1549.36 273.256 1547.92 273.256L1511.61 273.253ZM1741.55 383.486C1752.97 371.57 1758.68 356.012 1758.68 336.809C1758.68 317.617 1752.97 302.052 1741.55 290.135C1730.13 278.219 1715.14 272.261 1696.61 272.261C1678.07 272.261 1663.1 278.219 1651.67 290.135C1640.26 302.052 1634.54 317.617 1634.54 336.809C1634.54 356.012 1640.26 371.57 1651.67 383.486C1663.1 395.403 1678.07 401.361 1696.61 401.361C1715.14 401.361 1730.13 395.403 1741.55 383.486ZM1625.61 444.559C1608.72 434.963 1595.39 420.973 1585.64 402.602C1575.87 384.232 1570.99 362.303 1570.99 336.809C1570.99 311.326 1575.87 289.39 1585.64 271.019C1595.39 252.649 1608.72 238.669 1625.61 229.062C1642.49 219.463 1661.02 214.663 1681.22 214.663C1699.09 214.663 1714.4 218.138 1727.15 225.088C1739.89 232.038 1750.06 241.808 1757.68 254.386H1758.68V227.538C1758.68 226.098 1759.25 224.717 1760.27 223.699C1761.29 222.681 1762.67 222.109 1764.11 222.109H1813.82C1815.26 222.109 1816.65 222.681 1817.66 223.699C1818.68 224.717 1819.25 226.098 1819.25 227.538V446.08C1819.25 447.52 1818.68 448.901 1817.66 449.919C1816.65 450.937 1815.26 451.509 1813.82 451.509H1764.11C1762.67 451.509 1761.29 450.937 1760.27 449.919C1759.25 448.901 1758.68 447.52 1758.68 446.08V419.235H1757.68C1750.06 431.821 1739.89 441.58 1727.15 448.53C1714.4 455.48 1699.09 458.955 1681.22 458.955C1661.02 458.955 1642.49 454.155 1625.61 444.559ZM2026.03 383.486C2037.45 371.57 2043.16 356.012 2043.16 336.809C2043.16 317.617 2037.45 302.052 2026.03 290.135C2014.61 278.219 1999.63 272.261 1981.09 272.261C1962.55 272.261 1947.58 278.219 1936.15 290.135C1924.74 302.052 1919.02 317.617 1919.02 336.809C1919.02 356.012 1924.74 371.57 1936.15 383.486C1947.58 395.403 1962.55 401.361 1981.09 401.361C1999.63 401.361 2014.61 395.403 2026.03 383.486ZM1950.55 448.53C1937.81 441.58 1927.63 431.821 1920.02 419.235H1919.02V446.08C1919.02 447.52 1918.45 448.901 1917.43 449.919C1916.41 450.937 1915.03 451.509 1913.59 451.509H1863.38C1861.94 451.509 1860.56 450.937 1859.54 449.919C1858.52 448.901 1857.95 447.52 1857.95 446.08V109.359C1857.95 107.919 1858.52 106.538 1859.54 105.52C1860.56 104.502 1861.94 103.93 1863.38 103.93H1913.59C1915.03 103.93 1916.41 104.502 1917.43 105.52C1918.45 106.538 1919.02 107.919 1919.02 109.359V254.383H1920.02C1927.63 241.804 1937.81 232.038 1950.55 225.088C1963.3 218.134 1978.61 214.659 1996.49 214.659C2016.67 214.659 2035.21 219.459 2052.1 229.059C2068.98 238.666 2082.3 252.645 2092.07 271.012C2101.83 289.393 2106.72 311.329 2106.72 336.813C2106.72 362.307 2101.83 384.232 2092.07 402.606C2082.3 420.976 2068.98 434.967 2052.1 444.559C2035.22 454.159 2016.68 458.963 1996.49 458.963C1978.61 458.963 1963.3 455.488 1950.56 448.534M2191.32 451.513H2141.11C2139.67 451.513 2138.29 450.941 2137.27 449.923C2136.25 448.904 2135.68 447.523 2135.68 446.083V109.37C2135.68 107.93 2136.25 106.549 2137.27 105.531C2138.29 104.513 2139.67 103.941 2141.11 103.941H2191.32C2192.76 103.941 2194.14 104.513 2195.16 105.531C2196.18 106.549 2196.75 107.93 2196.75 109.37V446.083C2196.75 447.523 2196.18 448.904 2195.16 449.923C2194.14 450.941 2192.76 451.513 2191.32 451.513ZM2309.77 275.244C2301.44 281.738 2295.82 291.113 2292.91 303.377C2292.11 306.758 2294.75 310.001 2298.22 310.001H2393.79C2397.1 310.001 2399.71 307.033 2399.17 303.76C2397.26 292.159 2392.29 282.91 2384.25 275.989C2374.82 267.881 2362.48 263.827 2347.25 263.827C2332.03 263.827 2319.53 267.631 2309.77 275.244ZM2432.16 246.691C2451.69 268.047 2461.46 298.255 2461.46 337.309V343.795C2461.46 345.235 2460.89 346.616 2459.87 347.635C2458.85 348.653 2457.47 349.225 2456.03 349.225H2296.38C2295.59 349.227 2294.8 349.402 2294.08 349.738C2293.36 350.075 2292.72 350.564 2292.21 351.173C2291.7 351.782 2291.33 352.495 2291.12 353.262C2290.91 354.03 2290.87 354.834 2291.01 355.617C2293.56 370.126 2299.98 381.651 2310.26 390.19C2322.01 399.964 2336.83 404.839 2354.7 404.839C2377.78 404.839 2399.14 395.833 2418.78 377.818C2421.18 375.617 2424.99 376.084 2426.85 378.759L2451.26 413.798C2452.02 414.888 2452.36 416.221 2452.21 417.544C2452.05 418.867 2451.42 420.087 2450.43 420.973C2438.44 431.462 2425.12 440.312 2410.81 447.292C2394.92 455.068 2376.22 458.963 2354.7 458.963C2329.88 458.963 2308.19 453.909 2289.66 443.817C2271.11 433.725 2256.72 419.492 2246.46 401.115C2236.2 382.744 2231.07 361.478 2231.07 337.309C2231.07 313.15 2236.03 291.801 2245.96 273.256C2255.89 254.723 2269.79 240.323 2287.67 230.058C2305.55 219.803 2326.4 214.666 2350.24 214.666C2385.31 214.666 2412.63 225.345 2432.16 246.691ZM1197.74 141.319C1197.74 161.799 1181.14 178.403 1160.65 178.403C1140.17 178.403 1123.56 161.799 1123.56 141.315C1123.56 120.831 1140.17 104.227 1160.65 104.227C1181.14 104.227 1197.74 120.834 1197.74 141.319Z" fill="white"/>
<path d="M285.963 6.00591L47.2016 104.801C33.9242 110.296 34.0617 129.158 47.4224 134.454L287.179 229.532C308.245 237.886 331.705 237.886 352.77 229.532L592.531 134.451C605.888 129.158 606.032 110.299 592.748 104.805L353.993 6.00229C332.211 -3.01118 307.742 -3.01118 285.959 6.00229" fill="#FCB400"/>
<path d="M341.248 281.446V518.966C341.248 530.26 352.64 537.999 363.141 533.836L630.303 430.136C633.283 428.955 635.839 426.906 637.639 424.255C639.44 421.603 640.403 418.472 640.402 415.266V177.75C640.402 166.453 629.011 158.717 618.51 162.88L351.347 266.58C348.368 267.762 345.813 269.811 344.012 272.462C342.211 275.114 341.248 278.241 341.248 281.446Z" fill="#18BFFF"/>
<path d="M278.862 293.702L199.574 331.985L191.523 335.876L24.1513 416.073C13.5453 421.191 0 413.459 0 401.673V178.745C0 174.48 2.18635 170.799 5.11839 168.03C6.32124 166.832 7.68588 165.809 9.17255 164.989C13.1688 162.589 18.8736 161.949 23.7241 163.867L277.529 264.432C290.43 269.551 291.444 287.624 278.862 293.702Z" fill="#F82B60"/>
<path d="M278.862 293.702L199.574 331.985L5.11914 168.026C6.32223 166.83 7.68686 165.808 9.17331 164.989C13.1696 162.589 18.8744 161.949 23.7249 163.867L277.53 264.432C290.431 269.551 291.445 287.624 278.862 293.702Z" fill="black" fill-opacity="0.25"/>
</g>
<defs>
<clipPath id="clip0_69_100">
<rect width="2500" height="544" fill="white"/>
</clipPath>
</defs>
</svg>
