<svg xmlns="http://www.w3.org/2000/svg" viewBox="0 0 100 100" width="100" height="100">
  <rect width="100" height="100" fill="#7952b3" rx="8"/>
  <path d="M20 25h60v50H20z" fill="white"/>
  <path d="M25 30h50v8H25z" fill="#7952b3"/>
  <path d="M25 42h15v4H25zm20 0h15v4H45zm20 0h10v4H65z" fill="#e9ecef"/>
  <path d="M25 50h20v4H25zm25 0h25v4H50z" fill="#e9ecef"/>
  <path d="M25 58h30v4H25zm35 0h15v4H60z" fill="#e9ecef"/>
  <path d="M25 66h10v4H25zm15 0h20v4H40zm25 0h10v4H65z" fill="#e9ecef"/>
</svg>