<svg xmlns="http://www.w3.org/2000/svg" viewBox="0 0 100 100" width="100" height="100">
  <rect width="100" height="100" fill="#1572b6" rx="8"/>
  <path d="M20 20h60l-5 60-25 8-25-8z" fill="white"/>
  <path d="M50 25v58l20-6 4-52z" fill="#33a9dc"/>
  <path d="M50 25v58l-20-6-4-52z" fill="#1572b6"/>
  <path d="M25 35h50v8H25z" fill="white"/>
  <path d="M25 48h50v8H25z" fill="white"/>
  <path d="M25 61h50v8H25z" fill="white"/>
  <path d="M30 38h15v2H30zm20 0h15v2H50z" fill="#1572b6"/>
  <path d="M30 51h20v2H30zm25 0h10v2H55z" fill="#1572b6"/>
  <path d="M30 64h25v2H30zm30 0h10v2H60z" fill="#1572b6"/>
</svg>