<svg xmlns="http://www.w3.org/2000/svg" viewBox="0 0 100 100" width="100" height="100">
  <rect width="100" height="100" fill="#ff6900" rx="8"/>
  <path d="M20 30h60v40H20z" fill="white" rx="4"/>
  <path d="M25 35h50v6H25z" fill="#ff6900"/>
  <path d="M30 45h8v3H30zm12 0h8v3H42zm12 0h8v3H54zm12 0h8v3H66z" fill="#e0e0e0"/>
  <path d="M30 52h12v3H30zm16 0h12v3H46zm16 0h8v3H62z" fill="#e0e0e0"/>
  <path d="M30 59h16v3H30zm20 0h16v3H50z" fill="#e0e0e0"/>
  <circle cx="15" cy="50" r="8" fill="white"/>
  <path d="M11 46h8v8h-8z" fill="#ff6900"/>
  <circle cx="85" cy="50" r="8" fill="white"/>
  <path d="M81 46h8v8h-8z" fill="#ff6900"/>
  <text x="50" y="85" text-anchor="middle" fill="white" font-family="Arial, sans-serif" font-size="8" font-weight="bold">Evolution API</text>
</svg>