<svg xmlns="http://www.w3.org/2000/svg" viewBox="0 0 100 100" width="100" height="100">
  <rect width="100" height="100" fill="#f13030" rx="8"/>
  <path d="M20 25h60v50H20z" fill="white" rx="4"/>
  <path d="M25 30h50v8H25z" fill="#f13030"/>
  <path d="M30 45h15v4H30zm20 0h15v4H50z" fill="#e0e0e0"/>
  <path d="M30 52h20v4H30zm25 0h10v4H55z" fill="#e0e0e0"/>
  <path d="M30 59h12v4H30zm17 0h18v4H47z" fill="#e0e0e0"/>
  <path d="M30 66h25v4H30z" fill="#e0e0e0"/>
  <circle cx="15" cy="50" r="8" fill="white"/>
  <path d="M12 47h6v6h-6z" fill="#f13030"/>
  <circle cx="85" cy="50" r="8" fill="white"/>
  <path d="M82 47h6v6h-6z" fill="#f13030"/>
  <text x="50" y="90" text-anchor="middle" fill="white" font-family="Arial, sans-serif" font-size="8" font-weight="bold">Frávega</text>
</svg>