<svg xmlns="http://www.w3.org/2000/svg" viewBox="0 0 100 100" width="100" height="100">
  <rect width="100" height="100" fill="#ea4335" rx="8"/>
  <path d="M20 25h60v50H20z" fill="white" rx="4"/>
  <rect x="25" y="30" width="15" height="4" fill="#34a853"/>
  <rect x="45" y="30" width="15" height="4" fill="#fbbc04"/>
  <rect x="65" y="30" width="10" height="4" fill="#ea4335"/>
  <rect x="25" y="38" width="20" height="3" fill="#e8f0fe"/>
  <rect x="50" y="38" width="25" height="3" fill="#e8f0fe"/>
  <rect x="25" y="44" width="12" height="3" fill="#e8f0fe"/>
  <rect x="42" y="44" width="18" height="3" fill="#e8f0fe"/>
  <rect x="65" y="44" width="10" height="3" fill="#e8f0fe"/>
  <rect x="25" y="50" width="25" height="3" fill="#e8f0fe"/>
  <rect x="55" y="50" width="20" height="3" fill="#e8f0fe"/>
  <rect x="25" y="56" width="18" height="3" fill="#e8f0fe"/>
  <rect x="48" y="56" width="15" height="3" fill="#e8f0fe"/>
  <rect x="68" y="56" width="7" height="3" fill="#e8f0fe"/>
  <rect x="25" y="62" width="30" height="3" fill="#e8f0fe"/>
  <rect x="60" y="62" width="15" height="3" fill="#e8f0fe"/>
  <rect x="25" y="68" width="22" height="3" fill="#e8f0fe"/>
  <text x="50" y="85" text-anchor="middle" fill="white" font-family="Arial, sans-serif" font-size="8" font-weight="bold">Google Sheets</text>
</svg>