<svg width="413" height="447" viewBox="0 0 413 447" fill="none" xmlns="http://www.w3.org/2000/svg">
<path d="M249.385 342.422L249.386 23.8858C249.386 15.6898 253.458 13.4298 257.072 11.3438C260.686 9.25676 266.64 7.99176 271.777 10.9578L403.314 86.8988C408.452 89.8648 412.617 97.0788 412.617 103.011V421.548C412.617 427.48 408.895 430.977 405.28 433.065C401.665 435.152 395.361 437.443 390.224 434.477L258.688 358.534C253.55 355.568 249.386 350.684 249.385 342.422Z" fill="#37474F"/>
<path d="M257.752 345.437L393.011 423.528L392.969 103.615L409.893 93.8438C411.576 96.7587 412.617 100.045 412.617 103.011V421.548C412.617 427.48 408.895 430.977 405.28 433.065C401.665 435.152 395.361 437.443 390.224 434.477L258.688 358.534C255.479 356.681 252.306 353.897 250.634 349.547L251.157 349.245L257.752 345.437Z" fill="#263238"/>
<path d="M258.932 21.1332L390.845 97.2962C394.442 99.3682 397.378 104.452 397.378 108.596V424.545C397.378 430.913 392.853 433.519 387.336 430.328L258.931 356.198C254.863 353.846 251.533 348.089 251.533 343.385V25.4042C251.533 20.7012 254.864 18.7822 258.932 21.1332Z" fill="#455A64"/>
<path d="M257.97 40.5039V335.845C257.97 340.324 261.128 345.803 264.995 348.026L383.916 416.687C387.794 418.943 390.941 417.127 390.941 412.637V115.127C390.941 111.496 388.879 107.21 386.011 104.536C385.785 104.332 385.571 104.128 385.345 103.935C384.883 103.57 384.4 103.237 383.916 102.957L350.466 83.6429C350.466 83.6429 349.488 83.0739 348.286 82.3859C347.083 81.6879 346.105 82.2459 346.105 83.6429C346.105 85.0289 345.063 85.5659 343.774 84.8139L304.792 62.3099C303.514 61.5689 302.461 59.8389 302.461 58.4539C302.461 57.1539 301.602 55.5749 300.506 54.8019C300.431 54.7479 300.356 54.7049 300.281 54.6629L267.562 35.7789L266.864 35.3709C261.966 32.5449 257.97 34.8539 257.97 40.5039Z" fill="black"/>
<path d="M275.202 340.14C271.335 337.916 268.177 332.438 268.177 327.959V36.1328L300.282 54.6618C300.357 54.7048 300.432 54.7478 300.507 54.8018C301.603 55.5748 302.462 57.1548 302.462 58.4538C302.462 59.8398 303.515 61.5688 304.793 62.3098L343.775 84.8138C345.064 85.5658 346.106 85.0288 346.106 83.6428C346.106 82.2468 347.084 81.6878 348.287 82.3858C349.49 83.0738 350.467 83.6428 350.467 83.6428L383.917 102.957C384.4 103.236 384.884 103.569 385.346 103.935C385.571 104.128 385.786 104.332 386.012 104.536C388.88 107.211 390.942 111.497 390.942 115.127V406.964L275.202 340.14Z" fill="#263238"/>
<path d="M337.856 72.9281L319.986 62.6111C318.92 61.9951 318.056 62.4331 318.056 63.5871C318.056 64.7411 318.92 66.1771 319.986 66.7921L337.856 77.1091C338.922 77.7251 339.786 77.2871 339.786 76.1321C339.786 74.9791 338.922 73.5441 337.856 72.9281Z" fill="#263238"/>
<path d="M310.817 56.4686C309.616 55.7756 308.643 56.3376 308.642 57.7246C308.642 59.1116 309.616 60.7976 310.817 61.4916C312.018 62.1846 312.991 61.6226 312.991 60.2366C312.992 58.8476 312.018 57.1616 310.817 56.4686Z" fill="#263238"/>
<path d="M400.415 141.227C400.415 138.89 401.954 136.106 403.853 135.01C404.77 134.481 405.597 134.447 406.209 134.815C406.641 135.075 408.338 136.02 408.788 136.29C409.442 136.682 409.849 137.53 409.849 138.731V164.686C409.849 167.023 408.31 169.807 406.411 170.903C405.536 171.408 404.742 171.462 404.139 171.145C403.665 170.896 401.93 169.893 401.481 169.625C400.825 169.234 400.416 168.385 400.416 167.181L400.415 141.227Z" fill="#455A64"/>
<path d="M402.972 142.702V168.657C402.972 170.994 404.511 172 406.41 170.904C408.309 169.808 409.848 167.024 409.848 164.687V138.733C409.848 136.396 408.309 135.39 406.41 136.486C404.511 137.582 402.972 140.365 402.972 142.702Z" fill="#37474F"/>
<path d="M400.415 186.656C400.415 184.319 401.954 181.535 403.853 180.439C404.77 179.91 405.597 179.876 406.209 180.245C406.641 180.505 408.338 181.45 408.788 181.72C409.442 182.112 409.849 182.96 409.849 184.161V210.116C409.849 212.454 408.31 215.237 406.411 216.333C405.536 216.838 404.742 216.892 404.139 216.575C403.665 216.326 401.93 215.323 401.481 215.055C400.825 214.664 400.416 213.815 400.416 212.611L400.415 186.656Z" fill="#455A64"/>
<path d="M402.972 188.129V214.084C402.972 216.421 404.511 217.427 406.41 216.331C408.309 215.235 409.848 212.451 409.848 210.114V184.159C409.848 181.822 408.309 180.816 406.41 181.912C404.511 183.009 402.972 185.792 402.972 188.129Z" fill="#37474F"/>
<path d="M234.997 50.4382C236.631 49.5012 238.879 49.6322 241.358 51.0612L242.066 51.4752L275.281 70.6452C275.357 70.6892 275.433 70.7322 275.51 70.7872C276.623 71.5722 277.494 73.1752 277.494 74.4952C277.494 75.9022 278.563 77.6572 279.86 78.4092L319.431 101.253C319.461 101.271 319.489 101.278 319.519 101.295C319.54 100.635 319.783 100.171 320.165 99.9502C320.564 99.7192 322.046 98.8592 322.447 98.6292C322.848 98.3992 323.4 98.4352 324.01 98.7892C325.231 99.4872 326.224 100.065 326.224 100.065L360.179 119.671C360.67 119.955 361.16 120.293 361.629 120.663C361.858 120.859 362.076 121.066 362.305 121.274C365.217 123.989 367.31 128.34 367.31 132.026V434.037C367.31 436.308 366.514 437.899 365.23 438.644C364.842 438.869 363.311 439.751 362.925 439.973C361.636 440.717 359.859 440.61 357.892 439.466L237.172 369.767C233.246 367.51 230.041 361.949 230.041 357.402V57.5922C230.041 54.7312 231.052 52.7182 232.681 51.7722C233.071 51.5482 234.61 50.6602 234.997 50.4382Z" fill="black" fill-opacity="0.09"/>
<path opacity="0.3" d="M357.219 438.486V439.076L357.899 439.466C359.859 440.606 361.639 440.716 362.929 439.976C363.309 439.756 364.849 438.866 365.229 438.646C366.519 437.896 367.309 436.306 367.309 434.036V132.026C367.309 129.556 366.359 126.786 364.849 124.406L362.129 125.976C363.609 128.306 364.519 131.016 364.519 133.346V435.356C364.519 436.796 364.179 437.986 363.539 438.796C362.939 439.546 362.089 439.946 361.089 439.946C360.199 439.946 359.179 439.626 358.149 439.026L357.219 438.486Z" fill="black"/>
<path opacity="0.3" d="M273.871 73.5058C274.381 74.2158 274.701 75.0758 274.701 75.8158C274.701 76.6758 275.041 77.6358 275.581 78.4658L278.321 76.8858C277.821 76.1358 277.491 75.2658 277.491 74.4958C277.491 73.6658 277.141 72.7158 276.601 71.9258L273.871 73.5058Z" fill="black"/>
<path d="M361.088 439.943C362.093 439.943 362.939 439.546 363.535 438.798C364.178 437.989 364.518 436.8 364.518 435.355V133.344C364.518 129.892 362.527 125.623 359.674 122.963L359.457 122.765C359.31 122.629 359.164 122.495 359.014 122.366C358.566 122.013 358.098 121.693 357.641 121.429L323.686 101.823C323.683 101.821 322.692 101.245 321.474 100.549C321.204 100.392 320.949 100.31 320.732 100.31C320.088 100.31 320.019 101.061 320.019 101.383C320.019 102.605 319.311 103.426 318.258 103.426C317.821 103.426 317.361 103.286 316.889 103.011L277.32 80.1681C275.85 79.3151 274.699 77.4021 274.699 75.8131C274.699 74.6671 273.921 73.2201 272.929 72.5211C272.865 72.4751 272.803 72.4411 272.742 72.4071L239.524 53.2351L238.812 52.8191C237.503 52.0641 236.203 51.6641 235.053 51.6641C232.274 51.6641 230.547 53.9361 230.547 57.5931V357.402C230.547 361.797 233.632 367.147 237.425 369.328L358.145 439.028C359.179 439.626 360.195 439.943 361.088 439.943Z" fill="white" fill-opacity="0.63"/>
<path d="M235.055 52.1712C232.552 52.1712 231.058 54.1983 231.058 57.5923V357.401C231.058 361.563 234.091 366.823 237.682 368.887L358.404 438.589C359.356 439.143 360.284 439.435 361.087 439.435C362.917 439.435 364.009 437.91 364.009 435.355V133.344C364.009 130.022 362.084 125.906 359.339 123.346L359.108 123.135C358.967 123.005 358.827 122.877 358.714 122.779C358.271 122.429 357.824 122.123 357.386 121.869L323.427 102.261C323.425 102.26 322.437 101.685 321.215 100.986C320.954 100.834 320.79 100.818 320.732 100.818C320.532 100.818 320.526 101.326 320.526 101.384C320.526 102.885 319.594 103.934 318.258 103.934C317.73 103.934 317.184 103.771 316.637 103.452L277.064 80.6073C275.454 79.6733 274.192 77.5683 274.192 75.8143C274.192 74.8323 273.495 73.5413 272.634 72.9333C272.586 72.8993 272.538 72.8733 272.487 72.8433L239.268 53.6702L238.564 53.2593C237.33 52.5483 236.116 52.1712 235.055 52.1712ZM235.056 51.1562C236.266 51.1562 237.631 51.5492 239.071 52.3802L239.78 52.7943L272.994 71.9642C273.07 72.0072 273.146 72.0513 273.223 72.1063C274.335 72.8913 275.207 74.4943 275.207 75.8133C275.207 77.2203 276.276 78.9752 277.573 79.7282L317.144 102.572C317.547 102.807 317.926 102.918 318.258 102.918C319.004 102.918 319.511 102.357 319.511 101.383C319.511 100.379 320.008 99.8023 320.732 99.8023C321.031 99.8023 321.368 99.9003 321.724 100.107C322.945 100.805 323.938 101.383 323.938 101.383L357.894 120.989C358.385 121.273 358.875 121.61 359.344 121.981C359.573 122.177 359.791 122.384 360.02 122.591C362.932 125.306 365.025 129.657 365.025 133.343V435.354C365.025 438.583 363.422 440.449 361.088 440.449C360.127 440.449 359.042 440.133 357.894 439.465L237.174 369.765C233.248 367.508 230.043 361.947 230.043 357.4V57.5923C230.043 53.5193 232.088 51.1562 235.056 51.1562Z" fill="black" fill-opacity="0.09"/>
<g opacity="0.2">
<path d="M12.9504 122.232C12.9504 125.622 15.3304 127.783 18.2794 129.477L81.0314 165.731C83.9644 167.426 86.3604 166.057 86.3604 162.651V135.964C86.3604 132.173 84.3384 128.669 81.0554 126.773L18.2834 90.4703C15.9134 89.1013 12.9494 90.8113 12.9494 93.5493V122.232H12.9504Z" fill="black"/>
</g>
<path d="M0.278198 101.665C0.375198 99.6219 1.78719 97.2249 3.53119 96.2169L4.74118 95.5179C6.54818 94.4739 9.47819 94.4729 11.2852 95.5169L73.1792 131.292C74.9862 132.335 76.4512 134.873 76.4512 136.96L76.4502 167.343C76.4502 169.43 74.9852 171.968 73.1782 173.012L71.9682 173.711C70.1612 174.755 67.2312 174.756 65.4242 173.712L65.7012 173.834L38.5502 158.235C38.0812 157.964 37.5872 157.757 37.0962 157.608L32.1382 162.049L31.7602 162.332L29.0192 163.888L23.9792 166.798V166.795C23.0032 167.351 21.4352 167.285 20.2082 166.577C18.7952 165.761 17.6502 163.408 17.6502 161.321V149.907C17.6502 147.82 16.1852 145.282 14.3772 144.239L3.52719 137.965C1.72019 136.921 0.255188 134.384 0.255188 132.297V122.087V101.913C0.255188 101.823 0.273198 101.75 0.278198 101.665Z" fill="#573BF6"/>
<path opacity="0.25" d="M0.278198 101.665C0.375198 99.6219 1.78719 97.2249 3.53119 96.2169L4.74118 95.5179C6.54818 94.4739 9.47819 94.4729 11.2852 95.5169L73.1792 131.292C74.9862 132.335 76.4512 134.873 76.4512 136.96L76.4502 167.343C76.4502 169.43 74.9852 171.968 73.1782 173.012L71.9682 173.711C70.1612 174.755 67.2312 174.756 65.4242 173.712L65.7012 173.834L38.5502 158.235C38.0812 157.964 37.5872 157.757 37.0962 157.608L32.1382 162.049L31.7602 162.332L29.0192 163.888L23.9792 166.798V166.795C23.0032 167.351 21.4352 167.285 20.2082 166.577C18.7952 165.761 17.6502 163.408 17.6502 161.321V149.907C17.6502 147.82 16.1852 145.282 14.3772 144.239L3.52719 137.965C1.72019 136.921 0.255188 134.384 0.255188 132.297V122.087V101.913C0.255188 101.823 0.273198 101.75 0.278198 101.665Z" fill="black"/>
<path d="M0.254913 101.885C0.254913 99.7998 1.71891 98.9568 3.53091 99.9988L65.4219 135.771C66.2039 136.218 66.9109 136.937 67.4689 137.781L75.2119 133.314C74.6529 132.47 73.9589 131.738 73.1769 131.292L11.2859 95.5198C9.47392 94.4778 6.54592 94.4778 4.74692 95.5198L3.53091 96.2148C1.71891 97.2568 0.254913 99.7998 0.254913 101.885Z" fill="#573BF6"/>
<path opacity="0.45" d="M0.254913 101.885C0.254913 99.7998 1.71891 98.9568 3.53091 99.9988L65.4219 135.771C66.2039 136.218 66.9109 136.937 67.4689 137.781L75.2119 133.314C74.6529 132.47 73.9589 131.738 73.1769 131.292L11.2859 95.5198C9.47392 94.4778 6.54592 94.4778 4.74692 95.5198L3.53091 96.2148C1.71891 97.2568 0.254913 99.7998 0.254913 101.885Z" fill="white"/>
<path d="M66.8828 173.487C67.9378 173.487 68.0518 172.302 68.0518 171.792V141.408C68.0518 139.56 66.7008 137.219 65.0998 136.296L3.20676 100.576C2.79876 100.34 2.40377 100.215 2.06677 100.215C1.01177 100.215 0.897766 101.4 0.897766 101.91V132.294C0.897766 134.142 2.24876 136.483 3.84976 137.406L14.7008 143.68C16.7158 144.843 18.2948 147.577 18.2948 149.903V161.318C18.2948 163.166 19.3188 165.318 20.5318 166.017C21.0948 166.342 21.7637 166.521 22.4167 166.521C23.0617 166.521 23.6148 166.344 23.9358 166.034L33.2198 157.432C33.7198 156.951 34.4848 156.696 35.4308 156.696C36.5398 156.696 37.7938 157.053 38.8718 157.675L65.7418 173.124C66.1508 173.362 66.5458 173.487 66.8828 173.487Z" fill="white"/>
<path d="M2.06638 100.858C1.60838 100.858 1.53937 101.518 1.53937 101.91V122.084V128.077V132.294C1.53937 133.912 2.76838 136.041 4.17038 136.85L15.0214 143.124C17.2164 144.392 18.9354 147.37 18.9354 149.904V161.318C18.9354 163.108 19.9454 164.939 20.8514 165.462C21.3114 165.728 21.8824 165.88 22.4164 165.88C22.9734 165.88 23.3364 165.721 23.4914 165.572L32.7744 156.97C33.3964 156.371 34.3154 156.055 35.4324 156.055C36.6504 156.055 38.0214 156.443 39.1934 157.12L66.0644 172.569C66.3714 172.746 66.6624 172.844 66.8844 172.844C67.3424 172.844 67.4114 172.185 67.4114 171.792V141.408C67.4114 139.79 66.1824 137.661 64.7814 136.852L2.88837 101.132C2.57837 100.956 2.28738 100.858 2.06638 100.858ZM2.06638 99.5742C2.50638 99.5742 3.00238 99.7182 3.52838 100.021L65.4214 135.741C67.2284 136.785 68.6934 139.322 68.6934 141.409V171.793C68.6934 173.273 67.9564 174.129 66.8824 174.129C66.4424 174.129 65.9464 173.985 65.4214 173.682L38.5504 158.233C37.5314 157.645 36.3914 157.34 35.4314 157.34C34.6884 157.34 34.0534 157.522 33.6644 157.897L24.3814 166.499C23.9214 166.942 23.2004 167.165 22.4164 167.165C21.6824 167.165 20.8924 166.969 20.2094 166.575C18.7964 165.759 17.6514 163.406 17.6514 161.319V149.905C17.6514 147.818 16.1864 145.28 14.3784 144.237L3.52838 137.963C1.72138 136.919 0.255371 134.382 0.255371 132.295V128.078V122.085V101.911C0.255371 100.43 0.992376 99.5742 2.06638 99.5742Z" fill="#573BF6"/>
<path d="M19.5359 124.455C17.4589 123.256 15.7749 124.228 15.7749 126.627C15.7749 129.026 17.4589 131.942 19.5359 133.141C21.6129 134.34 23.2969 133.368 23.2969 130.97C23.2969 128.572 21.6139 125.655 19.5359 124.455Z" fill="#455A64"/>
<path d="M34.5818 133.131C32.5048 131.932 30.8208 132.904 30.8208 135.302C30.8208 137.701 32.5048 140.617 34.5818 141.817C36.6598 143.016 38.3428 142.044 38.3428 139.645C38.3428 137.247 36.6598 134.33 34.5818 133.131Z" fill="#455A64"/>
<path d="M49.6277 141.807C47.5507 140.608 45.8667 141.58 45.8667 143.979C45.8667 146.378 47.5507 149.293 49.6277 150.493C51.7047 151.692 53.3887 150.721 53.3887 148.322C53.3887 145.923 51.7047 143.006 49.6277 141.807Z" fill="#455A64"/>
<g opacity="0.2">
<path d="M34.7839 64.6748C34.7839 68.0648 37.1639 70.2258 40.1129 71.9198L197.466 162.787C200.4 164.482 202.795 163.113 202.795 159.707V100.721C202.795 96.9298 200.773 93.4268 197.49 91.5298L40.1179 0.614819C37.7479 -0.754181 34.7839 0.955819 34.7839 3.69382V64.6748Z" fill="black"/>
</g>
<path d="M188.404 170.768L189.614 170.069C191.421 169.025 192.886 166.487 192.886 164.4V101.717C192.886 99.63 191.421 97.092 189.614 96.049L33.1197 5.66103C31.3127 4.61803 28.3817 4.61803 26.5757 5.66203L25.3657 6.36103C23.5587 7.40503 22.0937 9.94303 22.0937 12.03V74.713C22.0937 76.8 23.5587 79.338 25.3667 80.381L130.696 141.228C132.503 142.271 134.691 144.647 135.582 146.534L147.703 172.195C148.594 174.082 150.462 176.273 151.875 177.089C153.288 177.905 155.898 177.72 157.706 176.677L158.523 176.205C160.33 175.161 161.796 172.624 161.796 170.537V162.965C161.796 160.878 163.261 160.032 165.069 161.075L181.861 170.769C183.667 171.813 186.597 171.812 188.404 170.768Z" fill="#573BF6"/>
<path opacity="0.25" d="M188.404 170.768L189.614 170.069C191.421 169.025 192.886 166.487 192.886 164.4V101.717C192.886 99.63 191.421 97.092 189.614 96.049L33.1197 5.66103C31.3127 4.61803 28.3817 4.61803 26.5757 5.66203L25.3657 6.36103C23.5587 7.40503 22.0937 9.94303 22.0937 12.03V74.713C22.0937 76.8 23.5587 79.338 25.3667 80.381L130.696 141.228C132.503 142.271 134.691 144.647 135.582 146.534L147.703 172.195C148.594 174.082 150.462 176.273 151.875 177.089C153.288 177.905 155.898 177.72 157.706 176.677L158.523 176.205C160.33 175.161 161.796 172.624 161.796 170.537V162.965C161.796 160.878 163.261 160.032 165.069 161.075L181.861 170.769C183.667 171.813 186.597 171.812 188.404 170.768Z" fill="black"/>
<path d="M22.0885 12.0293C22.0885 9.94531 23.5525 9.10131 25.3645 10.1433L181.855 100.527C182.637 100.974 183.345 101.693 183.903 102.537L191.646 98.0703C191.087 97.2263 190.393 96.4943 189.611 96.0483L33.1185 5.66431C31.3065 4.62231 28.3785 4.62231 26.5795 5.66431L25.3635 6.35931C23.5525 7.40131 22.0885 9.94531 22.0885 12.0293Z" fill="#573BF6"/>
<path opacity="0.45" d="M22.0885 12.0293C22.0885 9.94531 23.5525 9.10131 25.3645 10.1433L181.855 100.527C182.637 100.974 183.345 101.693 183.903 102.537L191.646 98.0703C191.087 97.2263 190.393 96.4943 189.611 96.0483L33.1185 5.66431C31.3065 4.62231 28.3785 4.62231 26.5795 5.66431L25.3635 6.35931C23.5525 7.40131 22.0885 9.94531 22.0885 12.0293Z" fill="white"/>
<path d="M152.805 176.73C153.058 176.73 153.264 176.6 153.436 176.334C153.665 175.981 153.79 175.432 153.79 174.79V158.716C153.79 156.935 154.776 155.738 156.244 155.738C156.815 155.738 157.415 155.917 158.026 156.271L182.18 170.216C182.588 170.452 182.983 170.577 183.32 170.577C184.375 170.577 184.489 169.392 184.489 168.883V106.2C184.489 104.352 183.138 102.011 181.537 101.088L25.0432 10.7008C24.6352 10.4648 24.2403 10.3398 23.9033 10.3398C22.8483 10.3398 22.7343 11.5248 22.7343 12.0338V74.7168C22.7343 76.5648 24.0852 78.9058 25.6862 79.8288L131.014 140.676C132.947 141.792 135.208 144.247 136.16 146.264L148.282 171.924C149.11 173.677 150.9 175.789 152.195 176.536C152.415 176.664 152.626 176.73 152.805 176.73Z" fill="white"/>
<path d="M23.9038 10.9793C23.4458 10.9793 23.3769 11.6383 23.3769 12.0313V74.7143C23.3769 76.3323 24.6058 78.4613 26.0078 79.2703L131.337 140.117C133.367 141.289 135.741 143.867 136.742 145.987L148.863 171.648C149.632 173.275 151.339 175.298 152.516 175.978C152.693 176.08 152.788 176.086 152.806 176.087C152.897 176.04 153.148 175.646 153.149 174.788V158.713C153.149 156.581 154.422 155.093 156.244 155.093C156.929 155.093 157.636 155.301 158.348 155.712L182.502 169.657C182.916 169.896 183.193 169.932 183.322 169.932C183.781 169.932 183.849 169.273 183.849 168.88V164.663V158.67V106.197C183.849 104.579 182.62 102.45 181.218 101.641L24.7238 11.2533C24.4168 11.0773 24.1248 10.9793 23.9038 10.9793ZM23.9038 9.69531C24.3438 9.69531 24.8398 9.83931 25.3658 10.1423L181.86 100.53C183.667 101.573 185.132 104.111 185.132 106.198V158.671V164.664V168.881C185.132 170.361 184.395 171.217 183.321 171.217C182.881 171.217 182.385 171.073 181.859 170.77L157.705 156.825C157.18 156.522 156.684 156.378 156.244 156.378C155.17 156.378 154.433 157.234 154.433 158.715V174.79C154.433 176.392 153.758 177.371 152.805 177.371C152.517 177.371 152.202 177.281 151.874 177.092C150.461 176.276 148.593 174.085 147.702 172.198L135.581 146.537C134.69 144.65 132.502 142.274 130.694 141.231L25.3648 80.3843C23.5578 79.3403 22.0919 76.8033 22.0919 74.7163V12.0333C22.0929 10.5513 22.8298 9.69531 23.9038 9.69531Z" fill="#573BF6"/>
<path d="M206.288 403.413L213.382 399.317C213.805 399.072 214.508 399.041 214.952 399.246L222.142 402.577C222.585 402.783 223.32 402.821 223.787 402.675C225.578 402.115 227.45 401.674 229.369 401.348C229.851 401.266 230.317 400.819 230.409 400.338L231.309 395.6C231.4 395.12 231.87 394.73 232.359 394.73H242.789C243.278 394.73 243.748 395.119 243.839 395.6L244.739 400.338C244.83 400.818 245.296 401.266 245.778 401.348C247.696 401.674 249.568 402.115 251.359 402.675C251.826 402.821 252.561 402.783 253.004 402.577L260.195 399.246C260.638 399.04 261.341 399.072 261.765 399.316L268.859 403.411C269.078 403.537 269.187 403.713 269.189 403.893H269.191L269.208 410.042L269.206 410.041C269.208 410.209 269.116 410.381 268.924 410.519L265.661 412.867C265.907 413.051 266.194 413.184 266.466 413.202L275.918 413.8C276.406 413.831 276.801 414.252 276.801 414.741V418.758C276.801 418.761 276.803 418.764 276.803 418.767L276.818 426.163C276.818 426.652 276.423 427.073 275.935 427.104L266.482 427.702C266.204 427.72 265.911 427.859 265.662 428.049L268.907 430.384C269.096 430.52 269.188 430.689 269.188 430.856L269.191 430.857L269.208 437.013L269.206 437.012C269.204 437.192 269.095 437.367 268.876 437.493L261.783 441.588C261.36 441.832 260.657 441.864 260.213 441.658L253.022 438.327C252.578 438.121 251.844 438.083 251.378 438.229C249.587 438.789 247.714 439.23 245.795 439.556C245.313 439.638 244.847 440.085 244.755 440.566L243.855 445.304C243.764 445.784 243.294 446.174 242.805 446.174H232.375C231.886 446.174 231.416 445.785 231.325 445.304L230.426 440.566C230.335 440.086 229.869 439.638 229.387 439.557C227.468 439.231 225.596 438.79 223.805 438.23C223.338 438.084 222.603 438.122 222.16 438.328L214.969 441.659C214.525 441.864 213.823 441.833 213.399 441.588L206.305 437.493C206.091 437.369 205.98 437.198 205.974 437.022H205.973L205.956 430.855H205.959C205.96 430.689 206.051 430.52 206.24 430.384L209.503 428.036C209.257 427.852 208.97 427.719 208.698 427.702L199.245 427.104C198.757 427.073 198.362 426.652 198.362 426.163L198.35 420.039C198.35 420.03 198.345 420.023 198.345 420.014V414.74C198.345 414.251 198.74 413.83 199.228 413.799L208.681 413.201C208.959 413.183 209.252 413.044 209.502 412.854L206.257 410.519C206.068 410.383 205.977 410.214 205.976 410.048L205.973 410.049L205.956 403.892L205.958 403.891C205.96 403.714 206.07 403.539 206.288 403.413ZM254.174 419.345C253.665 417.646 252.148 415.983 249.559 414.488C242.941 410.667 232.211 410.667 225.592 414.488C223.165 415.889 221.582 417.431 220.867 419.01C221.431 420.946 223.002 422.804 225.59 424.298C232.208 428.119 242.939 428.119 249.557 424.298C251.996 422.891 253.532 421.16 254.174 419.345Z" fill="#573BF6"/>
<path opacity="0.2" d="M206.288 403.413L213.382 399.317C213.805 399.072 214.508 399.041 214.952 399.246L222.142 402.577C222.585 402.783 223.32 402.821 223.787 402.675C225.578 402.115 227.45 401.674 229.369 401.348C229.851 401.266 230.317 400.819 230.409 400.338L231.309 395.6C231.4 395.12 231.87 394.73 232.359 394.73H242.789C243.278 394.73 243.748 395.119 243.839 395.6L244.739 400.338C244.83 400.818 245.296 401.266 245.778 401.348C247.696 401.674 249.568 402.115 251.359 402.675C251.826 402.821 252.561 402.783 253.004 402.577L260.195 399.246C260.638 399.04 261.341 399.072 261.765 399.316L268.859 403.411C269.078 403.537 269.187 403.713 269.189 403.893H269.191L269.208 410.042L269.206 410.041C269.208 410.209 269.116 410.381 268.924 410.519L265.661 412.867C265.907 413.051 266.194 413.184 266.466 413.202L275.918 413.8C276.406 413.831 276.801 414.252 276.801 414.741V418.758C276.801 418.761 276.803 418.764 276.803 418.767L276.818 426.163C276.818 426.652 276.423 427.073 275.935 427.104L266.482 427.702C266.204 427.72 265.911 427.859 265.662 428.049L268.907 430.384C269.096 430.52 269.188 430.689 269.188 430.856L269.191 430.857L269.208 437.013L269.206 437.012C269.204 437.192 269.095 437.367 268.876 437.493L261.783 441.588C261.36 441.832 260.657 441.864 260.213 441.658L253.022 438.327C252.578 438.121 251.844 438.083 251.378 438.229C249.587 438.789 247.714 439.23 245.795 439.556C245.313 439.638 244.847 440.085 244.755 440.566L243.855 445.304C243.764 445.784 243.294 446.174 242.805 446.174H232.375C231.886 446.174 231.416 445.785 231.325 445.304L230.426 440.566C230.335 440.086 229.869 439.638 229.387 439.557C227.468 439.231 225.596 438.79 223.805 438.23C223.338 438.084 222.603 438.122 222.16 438.328L214.969 441.659C214.525 441.864 213.823 441.833 213.399 441.588L206.305 437.493C206.091 437.369 205.98 437.198 205.974 437.022H205.973L205.956 430.855H205.959C205.96 430.689 206.051 430.52 206.24 430.384L209.503 428.036C209.257 427.852 208.97 427.719 208.698 427.702L199.245 427.104C198.757 427.073 198.362 426.652 198.362 426.163L198.35 420.039C198.35 420.03 198.345 420.023 198.345 420.014V414.74C198.345 414.251 198.74 413.83 199.228 413.799L208.681 413.201C208.959 413.183 209.252 413.044 209.502 412.854L206.257 410.519C206.068 410.383 205.977 410.214 205.976 410.048L205.973 410.049L205.956 403.892L205.958 403.891C205.96 403.714 206.07 403.539 206.288 403.413ZM254.174 419.345C253.665 417.646 252.148 415.983 249.559 414.488C242.941 410.667 232.211 410.667 225.592 414.488C223.165 415.889 221.582 417.431 220.867 419.01C221.431 420.946 223.002 422.804 225.59 424.298C232.208 428.119 242.939 428.119 249.557 424.298C251.996 422.891 253.532 421.16 254.174 419.345Z" fill="#A78BFA"/>
<path opacity="0.1" d="M265.189 422.404C265.422 421.972 265.979 421.586 266.466 421.554L275.92 420.958C276.408 420.926 276.8 420.506 276.799 420.016L276.802 418.769L276.818 426.162C276.813 426.655 276.421 427.075 275.933 427.107L266.479 427.703C266.199 427.72 265.899 427.853 265.648 428.046L263.282 426.342C262.884 426.057 262.848 425.548 263.178 425.188C264.002 424.287 264.669 423.355 265.189 422.404ZM269.209 410.044L269.203 410.048C269.21 410.213 269.114 410.381 268.923 410.523L265.659 412.874C265.463 412.73 265.293 412.547 265.191 412.356C264.672 411.402 263.999 410.472 263.181 409.57C262.851 409.206 262.889 408.702 263.286 408.416L268.909 404.374C269.07 404.249 269.164 404.106 269.193 403.961L269.209 410.044Z" fill="#573BF6"/>
<path opacity="0.1" d="M225.592 410.466C232.211 406.645 242.938 406.64 249.557 410.462C253.74 412.877 255.28 416.24 254.176 419.353C253.678 417.655 252.153 415.988 249.559 414.488C242.94 410.666 232.212 410.671 225.594 414.492C223.171 415.891 221.582 417.427 220.863 419.008C219.983 415.995 221.565 412.791 225.592 410.466Z" fill="#573BF6"/>
<path d="M198.353 420.14C198.416 420.57 198.784 420.928 199.229 420.961L208.679 421.557C208.835 421.563 209.001 421.613 209.154 421.684L209.165 427.842C209.011 427.77 208.852 427.717 208.702 427.708L199.248 427.106C198.756 427.076 198.36 426.654 198.362 426.171L198.353 420.14ZM205.956 403.895L205.962 403.891C205.956 403.951 205.969 404.015 205.998 404.079C206.011 404.144 206.056 404.206 206.112 404.262C206.152 404.303 206.188 404.338 206.24 404.373L211.862 408.417C211.914 408.451 211.963 408.495 211.997 408.54C212.091 408.647 212.151 408.765 212.174 408.888C212.188 408.968 212.193 409.046 212.182 409.125C212.175 409.169 212.165 409.207 212.155 409.245C212.118 409.363 212.053 409.473 211.966 409.571C211.925 409.611 211.893 409.653 211.861 409.696C211.086 410.553 210.454 411.449 209.956 412.355C209.851 412.536 209.697 412.714 209.509 412.862L206.257 410.528C206.071 410.386 205.973 410.218 205.976 410.055L205.97 410.059L205.956 403.895ZM205.957 430.917C205.979 431.081 206.091 431.233 206.289 431.352L213.386 435.445C213.677 435.615 214.102 435.683 214.486 435.638L214.496 441.781C214.112 441.826 213.69 441.764 213.4 441.594L206.309 437.498C206.093 437.374 205.98 437.206 205.975 437.032L205.957 430.917ZM252.298 432.011C252.561 432.036 252.811 432.092 253.007 432.18L260.196 435.513C260.376 435.602 260.603 435.648 260.837 435.649L260.853 441.788C260.622 441.777 260.395 441.747 260.209 441.661L253.02 438.329C252.825 438.241 252.569 438.188 252.315 438.165L252.298 432.011ZM231.483 439.56C231.684 439.838 232.014 440.033 232.356 440.028L242.791 440.032C243.022 440.028 243.247 439.945 243.429 439.8L243.437 445.952C243.252 446.091 243.036 446.176 242.805 446.18L232.38 446.179C232.009 446.176 231.659 445.96 231.466 445.654L231.483 439.56Z" fill="#573BF6"/>
<path opacity="0.7" d="M198.353 420.14C198.416 420.57 198.784 420.928 199.229 420.961L208.679 421.557C208.835 421.563 209.001 421.613 209.154 421.684L209.165 427.842C209.011 427.77 208.852 427.717 208.702 427.708L199.248 427.106C198.756 427.076 198.36 426.654 198.362 426.171L198.353 420.14ZM205.956 403.895L205.962 403.891C205.956 403.951 205.969 404.015 205.998 404.079C206.011 404.144 206.056 404.206 206.112 404.262C206.152 404.303 206.188 404.338 206.24 404.373L211.862 408.417C211.914 408.451 211.963 408.495 211.997 408.54C212.091 408.647 212.151 408.765 212.174 408.888C212.188 408.968 212.193 409.046 212.182 409.125C212.175 409.169 212.165 409.207 212.155 409.245C212.118 409.363 212.053 409.473 211.966 409.571C211.925 409.611 211.893 409.653 211.861 409.696C211.086 410.553 210.454 411.449 209.956 412.355C209.851 412.536 209.697 412.714 209.509 412.862L206.257 410.528C206.071 410.386 205.973 410.218 205.976 410.055L205.97 410.059L205.956 403.895ZM205.957 430.917C205.979 431.081 206.091 431.233 206.289 431.352L213.386 435.445C213.677 435.615 214.102 435.683 214.486 435.638L214.496 441.781C214.112 441.826 213.69 441.764 213.4 441.594L206.309 437.498C206.093 437.374 205.98 437.206 205.975 437.032L205.957 430.917ZM252.298 432.011C252.561 432.036 252.811 432.092 253.007 432.18L260.196 435.513C260.376 435.602 260.603 435.648 260.837 435.649L260.853 441.788C260.622 441.777 260.395 441.747 260.209 441.661L253.02 438.329C252.825 438.241 252.569 438.188 252.315 438.165L252.298 432.011ZM231.483 439.56C231.684 439.838 232.014 440.033 232.356 440.028L242.791 440.032C243.022 440.028 243.247 439.945 243.429 439.8L243.437 445.952C243.252 446.091 243.036 446.176 242.805 446.18L232.38 446.179C232.009 446.176 231.659 445.96 231.466 445.654L231.483 439.56Z" fill="#A78BFA"/>
<path d="M214.952 399.25L222.142 402.581C222.585 402.787 223.32 402.825 223.786 402.679C225.577 402.119 227.449 401.678 229.369 401.352C229.851 401.27 230.317 400.823 230.409 400.342L231.309 395.604C231.4 395.124 231.87 394.734 232.359 394.734H242.789C243.278 394.734 243.748 395.123 243.839 395.604L244.739 400.342C244.83 400.822 245.296 401.27 245.778 401.352C247.696 401.678 249.568 402.119 251.359 402.679C251.826 402.825 252.561 402.787 253.004 402.581L260.195 399.25C260.638 399.044 261.341 399.076 261.765 399.32L268.859 403.415C269.282 403.659 269.304 404.089 268.907 404.375L263.285 408.42C262.888 408.705 262.851 409.213 263.181 409.574C264.002 410.472 264.67 411.404 265.189 412.358C265.423 412.788 265.979 413.176 266.466 413.206L275.918 413.805C276.406 413.836 276.801 414.257 276.801 414.746V420.019C276.801 420.508 276.406 420.929 275.918 420.96L266.465 421.558C265.977 421.589 265.421 421.977 265.188 422.406C264.67 423.36 264.002 424.292 263.18 425.19C262.85 425.551 262.887 426.059 263.284 426.344L268.906 430.389C269.303 430.674 269.281 431.104 268.858 431.349L261.765 435.444C261.342 435.688 260.639 435.72 260.195 435.514L253.005 432.183C252.562 431.978 251.827 431.939 251.361 432.085C249.57 432.645 247.698 433.087 245.779 433.412C245.297 433.494 244.831 433.941 244.74 434.422L243.84 439.16C243.749 439.64 243.279 440.03 242.79 440.03H232.36C231.871 440.03 231.401 439.641 231.31 439.16L230.41 434.421C230.319 433.941 229.853 433.493 229.371 433.411C227.452 433.085 225.58 432.644 223.789 432.084C223.322 431.938 222.587 431.977 222.144 432.182L214.953 435.513C214.51 435.719 213.807 435.687 213.383 435.443L206.29 431.347C205.867 431.103 205.845 430.673 206.242 430.387L211.864 426.342C212.261 426.057 212.298 425.549 211.968 425.188C211.147 424.29 210.478 423.358 209.961 422.404C209.728 421.974 209.172 421.586 208.684 421.556L199.231 420.958C198.743 420.927 198.348 420.506 198.348 420.017V414.743C198.348 414.254 198.743 413.833 199.231 413.802L208.684 413.204C209.172 413.173 209.728 412.786 209.961 412.356C210.479 411.402 211.147 410.47 211.968 409.572C212.298 409.211 212.261 408.703 211.864 408.418L206.242 404.373C205.845 404.088 205.867 403.658 206.29 403.413L213.384 399.317C213.806 399.076 214.509 399.044 214.952 399.25ZM225.59 410.464C218.972 414.285 218.972 420.48 225.59 424.301C232.208 428.122 242.939 428.122 249.557 424.301C256.175 420.48 256.175 414.284 249.557 410.463C242.939 406.643 232.209 406.643 225.59 410.464Z" fill="#573BF6"/>
<g opacity="0.55">
<path d="M214.952 399.25L222.142 402.581C222.585 402.787 223.32 402.825 223.786 402.679C225.577 402.119 227.449 401.678 229.369 401.352C229.851 401.27 230.317 400.823 230.409 400.342L231.309 395.604C231.4 395.124 231.87 394.734 232.359 394.734H242.789C243.278 394.734 243.748 395.123 243.839 395.604L244.739 400.342C244.83 400.822 245.296 401.27 245.778 401.352C247.696 401.678 249.568 402.119 251.359 402.679C251.826 402.825 252.561 402.787 253.004 402.581L260.195 399.25C260.638 399.044 261.341 399.076 261.765 399.32L268.859 403.415C269.282 403.659 269.304 404.089 268.907 404.375L263.285 408.42C262.888 408.705 262.851 409.213 263.181 409.574C264.002 410.472 264.67 411.404 265.189 412.358C265.423 412.788 265.979 413.176 266.466 413.206L275.918 413.805C276.406 413.836 276.801 414.257 276.801 414.746V420.019C276.801 420.508 276.406 420.929 275.918 420.96L266.465 421.558C265.977 421.589 265.421 421.977 265.188 422.406C264.67 423.36 264.002 424.292 263.18 425.19C262.85 425.551 262.887 426.059 263.284 426.344L268.906 430.389C269.303 430.674 269.281 431.104 268.858 431.349L261.765 435.444C261.342 435.688 260.639 435.72 260.195 435.514L253.005 432.183C252.562 431.978 251.827 431.939 251.361 432.085C249.57 432.645 247.698 433.087 245.779 433.412C245.297 433.494 244.831 433.941 244.74 434.422L243.84 439.16C243.749 439.64 243.279 440.03 242.79 440.03H232.36C231.871 440.03 231.401 439.641 231.31 439.16L230.41 434.421C230.319 433.941 229.853 433.493 229.371 433.411C227.452 433.085 225.58 432.644 223.789 432.084C223.322 431.938 222.587 431.977 222.144 432.182L214.953 435.513C214.51 435.719 213.807 435.687 213.383 435.443L206.29 431.347C205.867 431.103 205.845 430.673 206.242 430.387L211.864 426.342C212.261 426.057 212.298 425.549 211.968 425.188C211.147 424.29 210.478 423.358 209.961 422.404C209.728 421.974 209.172 421.586 208.684 421.556L199.231 420.958C198.743 420.927 198.348 420.506 198.348 420.017V414.743C198.348 414.254 198.743 413.833 199.231 413.802L208.684 413.204C209.172 413.173 209.728 412.786 209.961 412.356C210.479 411.402 211.147 410.47 211.968 409.572C212.298 409.211 212.261 408.703 211.864 408.418L206.242 404.373C205.845 404.088 205.867 403.658 206.29 403.413L213.384 399.317C213.806 399.076 214.509 399.044 214.952 399.25ZM225.59 410.464C218.972 414.285 218.972 420.48 225.59 424.301C232.208 428.122 242.939 428.122 249.557 424.301C256.175 420.48 256.175 414.284 249.557 410.463C242.939 406.643 232.209 406.643 225.59 410.464Z" fill="#A78BFA"/>
<path d="M232.358 440.378H242.788C243.446 440.378 244.058 439.872 244.18 439.225L245.08 434.487C245.143 434.155 245.496 433.813 245.836 433.756C247.794 433.424 249.687 432.973 251.464 432.418C251.856 432.296 252.496 432.332 252.858 432.5L260.048 435.831C260.591 436.083 261.42 436.044 261.938 435.746L269.031 431.65C269.337 431.474 269.521 431.201 269.536 430.903C269.551 430.604 269.395 430.314 269.108 430.107L263.486 426.062C263.38 425.986 263.317 425.886 263.306 425.773C263.293 425.654 263.34 425.53 263.436 425.425C264.264 424.52 264.956 423.56 265.492 422.572C265.676 422.233 266.131 421.928 266.486 421.905L275.938 421.307C276.605 421.265 277.148 420.687 277.148 420.019V414.746C277.147 414.078 276.604 413.5 275.938 413.458L266.486 412.859C266.132 412.837 265.677 412.531 265.492 412.191C264.956 411.204 264.264 410.244 263.436 409.339C263.34 409.234 263.294 409.11 263.306 408.992C263.318 408.879 263.38 408.779 263.487 408.703L269.109 404.658C269.396 404.452 269.552 404.162 269.537 403.863C269.522 403.564 269.338 403.291 269.032 403.114L261.938 399.019C261.421 398.72 260.59 398.683 260.048 398.934L252.857 402.266C252.495 402.435 251.856 402.472 251.462 402.347C249.684 401.791 247.791 401.341 245.835 401.009C245.496 400.952 245.143 400.61 245.079 400.278L244.179 395.54C244.056 394.894 243.445 394.387 242.787 394.387H232.357C231.699 394.387 231.087 394.893 230.965 395.54L230.066 400.279C230.003 400.61 229.649 400.952 229.31 401.01C227.354 401.342 225.46 401.792 223.682 402.348C223.289 402.471 222.649 402.433 222.288 402.265L215.098 398.934C214.556 398.684 213.725 398.721 213.207 399.019L206.114 403.114C205.808 403.291 205.624 403.564 205.609 403.863C205.594 404.162 205.75 404.451 206.036 404.658L211.658 408.703C211.764 408.779 211.827 408.879 211.838 408.992C211.851 409.111 211.804 409.235 211.709 409.34C210.881 410.245 210.189 411.205 209.653 412.193C209.468 412.532 209.014 412.837 208.66 412.86L199.207 413.458C198.54 413.5 197.997 414.078 197.997 414.746V420.02C197.997 420.688 198.539 421.266 199.207 421.308L208.66 421.906C209.014 421.929 209.469 422.235 209.654 422.573C210.19 423.56 210.882 424.52 211.71 425.426C211.806 425.531 211.852 425.654 211.839 425.773C211.828 425.885 211.765 425.985 211.659 426.062L206.037 430.107C205.75 430.313 205.594 430.604 205.609 430.902C205.624 431.201 205.808 431.474 206.114 431.65L213.208 435.746C213.726 436.044 214.555 436.083 215.098 435.831L222.288 432.5C222.643 432.336 223.295 432.297 223.684 432.418C225.462 432.974 227.355 433.424 229.312 433.756C229.651 433.814 230.004 434.155 230.067 434.487L230.967 439.226C231.088 439.872 231.7 440.378 232.358 440.378ZM252.02 431.648C251.748 431.648 251.481 431.682 251.256 431.753C249.509 432.299 247.646 432.742 245.719 433.069C245.093 433.175 244.513 433.741 244.396 434.357L243.496 439.095C243.435 439.413 243.111 439.681 242.788 439.681H232.358C232.034 439.681 231.71 439.413 231.649 439.095L230.749 434.356C230.633 433.74 230.052 433.174 229.427 433.068C227.501 432.741 225.638 432.298 223.89 431.752C223.328 431.576 222.513 431.626 221.994 431.866L214.804 435.197C214.464 435.355 213.88 435.329 213.555 435.141L206.461 431.045C206.365 430.989 206.306 430.922 206.303 430.865C206.3 430.807 206.352 430.734 206.442 430.67L212.064 426.625C212.333 426.432 212.498 426.154 212.53 425.843C212.563 425.524 212.454 425.208 212.222 424.954C211.431 424.09 210.772 423.176 210.263 422.239C209.965 421.69 209.294 421.247 208.702 421.209L199.248 420.611C198.946 420.592 198.691 420.32 198.691 420.017V414.743C198.691 414.44 198.946 414.168 199.249 414.149L208.702 413.551C209.293 413.514 209.964 413.072 210.263 412.523C210.773 411.584 211.432 410.67 212.221 409.807C212.453 409.553 212.562 409.237 212.529 408.918C212.497 408.606 212.331 408.329 212.063 408.135L206.441 404.09C206.351 404.026 206.299 403.952 206.302 403.895C206.305 403.837 206.364 403.77 206.46 403.714L213.553 399.619C213.877 399.433 214.461 399.404 214.803 399.563L221.993 402.894C222.512 403.134 223.328 403.184 223.887 403.009C225.636 402.463 227.498 402.02 229.424 401.693C230.049 401.587 230.63 401.021 230.747 400.405L231.646 395.666C231.707 395.348 232.031 395.08 232.354 395.08H242.784C243.108 395.08 243.432 395.349 243.492 395.666L244.392 400.404C244.509 401.02 245.09 401.586 245.715 401.692C247.64 402.019 249.503 402.462 251.25 403.007C251.811 403.183 252.626 403.134 253.146 402.893L260.336 399.562C260.675 399.405 261.26 399.432 261.585 399.618L268.679 403.713C268.775 403.769 268.834 403.836 268.837 403.894C268.84 403.952 268.788 404.024 268.698 404.089L263.076 408.134C262.808 408.327 262.642 408.605 262.609 408.916C262.576 409.236 262.686 409.551 262.918 409.805C263.708 410.669 264.367 411.582 264.876 412.52C265.175 413.07 265.847 413.513 266.438 413.55L275.89 414.149C276.197 414.169 276.448 414.435 276.448 414.743V420.016C276.448 420.319 276.193 420.591 275.891 420.61L266.438 421.208C265.846 421.246 265.175 421.688 264.877 422.237C264.367 423.175 263.708 424.089 262.919 424.952C262.687 425.206 262.577 425.521 262.61 425.841C262.642 426.152 262.808 426.43 263.076 426.624L268.698 430.668C268.788 430.732 268.84 430.806 268.837 430.863C268.834 430.92 268.775 430.988 268.679 431.043L261.585 435.139C261.26 435.327 260.676 435.353 260.336 435.195L253.146 431.864C252.84 431.724 252.424 431.648 252.02 431.648ZM237.574 427.504C241.977 427.504 246.379 426.537 249.731 424.602C253.045 422.689 254.869 420.125 254.869 417.381C254.869 414.638 253.044 412.074 249.731 410.161C243.027 406.291 232.119 406.29 225.416 410.161C222.102 412.074 220.278 414.638 220.278 417.381C220.278 420.124 222.102 422.689 225.416 424.601C228.767 426.537 233.171 427.504 237.574 427.504ZM237.573 407.945C241.85 407.945 246.126 408.885 249.383 410.764C252.471 412.547 254.172 414.897 254.172 417.381C254.172 419.865 252.471 422.215 249.383 423.999C242.872 427.758 232.276 427.758 225.763 423.998C222.675 422.214 220.973 419.864 220.973 417.38C220.973 414.897 222.674 412.547 225.763 410.763C229.019 408.885 233.296 407.945 237.573 407.945Z" fill="#A78BFA"/>
</g>
<path d="M175.149 371.521C175.727 371.343 176.143 370.731 176.07 370.131L175.787 367.794C175.714 367.194 176.143 366.656 176.744 366.594L182.897 365.952C183.498 365.889 184.21 366.274 184.486 366.812L185.712 369.2C185.988 369.738 186.702 370.194 187.305 370.239C188.377 370.32 189.443 370.451 190.493 370.635C191.089 370.739 191.976 370.572 192.48 370.237L195.791 368.038C196.295 367.704 197.158 367.615 197.719 367.839L202.643 369.811C202.969 369.942 203.141 370.179 203.15 370.441L203.154 370.438V370.496C203.154 370.498 203.154 370.5 203.154 370.503L203.157 375.532L203.153 375.53C203.154 375.713 203.078 375.906 202.91 376.084L202.624 376.388C203.041 376.644 203.554 376.825 203.979 376.808L209.605 376.581C210.209 376.557 210.845 377.005 211.026 377.582L211.878 380.302C211.914 380.417 211.915 380.528 211.912 380.638L211.927 380.635L211.928 385.714H211.923C211.908 386.151 211.603 386.518 211.128 386.599L206.769 387.345L208.467 388.197C208.764 388.346 208.91 388.574 208.91 388.814L208.916 388.811L208.917 393.898L208.911 393.895C208.906 394.087 208.81 394.286 208.605 394.456L205.462 397.072C204.997 397.459 204.153 397.626 203.576 397.445L198.787 395.944C198.21 395.763 197.304 395.836 196.75 396.077C195.932 396.432 195.074 396.747 194.184 397.023C193.933 397.101 193.716 397.263 193.553 397.467L193.554 400.897L193.549 400.898C193.54 401.435 193.139 401.892 192.589 401.949L186.436 402.591C185.834 402.654 185.123 402.269 184.847 401.731L183.621 399.343C183.345 398.805 182.63 398.349 182.028 398.304C180.956 398.223 179.89 398.092 178.84 397.909C178.245 397.805 177.357 397.973 176.853 398.307L173.542 400.506C173.038 400.84 172.175 400.929 171.614 400.705L166.69 398.733C166.353 398.598 166.179 398.349 166.18 398.077L166.176 398.081L166.175 393.009L166.179 393.008C166.18 392.827 166.257 392.637 166.422 392.461L166.708 392.157C166.291 391.901 165.778 391.72 165.353 391.737L159.727 391.964C159.123 391.988 158.487 391.54 158.306 390.963L157.454 388.242C157.421 388.137 157.411 388.034 157.411 387.933L157.406 387.932L157.405 382.876L157.425 382.886C157.416 382.426 157.712 382.03 158.206 381.945L162.565 381.199L160.867 380.347C160.566 380.196 160.42 379.963 160.424 379.72L160.418 379.724L160.417 374.671L160.422 374.673C160.418 374.473 160.515 374.265 160.729 374.088L163.872 371.472C164.337 371.085 165.181 370.918 165.758 371.099L170.548 372.6C171.125 372.781 172.03 372.707 172.585 372.467C173.401 372.112 174.259 371.796 175.149 371.521ZM195.571 384.268C194.743 383.079 193.33 382.011 191.37 381.226C186.033 379.089 178.706 379.854 175.004 382.935C174.477 383.374 174.069 383.817 173.751 384.259C174.577 385.454 175.995 386.527 177.963 387.315C183.299 389.453 190.627 388.688 194.329 385.606C194.842 385.181 195.249 384.73 195.571 384.268Z" fill="#573BF6"/>
<path opacity="0.2" d="M175.149 371.521C175.727 371.343 176.143 370.731 176.07 370.131L175.787 367.794C175.714 367.194 176.143 366.656 176.744 366.594L182.897 365.952C183.498 365.889 184.21 366.274 184.486 366.812L185.712 369.2C185.988 369.738 186.702 370.194 187.305 370.239C188.377 370.32 189.443 370.451 190.493 370.635C191.089 370.739 191.976 370.572 192.48 370.237L195.791 368.038C196.295 367.704 197.158 367.615 197.719 367.839L202.643 369.811C202.969 369.942 203.141 370.179 203.15 370.441L203.154 370.438V370.496C203.154 370.498 203.154 370.5 203.154 370.503L203.157 375.532L203.153 375.53C203.154 375.713 203.078 375.906 202.91 376.084L202.624 376.388C203.041 376.644 203.554 376.825 203.979 376.808L209.605 376.581C210.209 376.557 210.845 377.005 211.026 377.582L211.878 380.302C211.914 380.417 211.915 380.528 211.912 380.638L211.927 380.635L211.928 385.714H211.923C211.908 386.151 211.603 386.518 211.128 386.599L206.769 387.345L208.467 388.197C208.764 388.346 208.91 388.574 208.91 388.814L208.916 388.811L208.917 393.898L208.911 393.895C208.906 394.087 208.81 394.286 208.605 394.456L205.462 397.072C204.997 397.459 204.153 397.626 203.576 397.445L198.787 395.944C198.21 395.763 197.304 395.836 196.75 396.077C195.932 396.432 195.074 396.747 194.184 397.023C193.933 397.101 193.716 397.263 193.553 397.467L193.554 400.897L193.549 400.898C193.54 401.435 193.139 401.892 192.589 401.949L186.436 402.591C185.834 402.654 185.123 402.269 184.847 401.731L183.621 399.343C183.345 398.805 182.63 398.349 182.028 398.304C180.956 398.223 179.89 398.092 178.84 397.909C178.245 397.805 177.357 397.973 176.853 398.307L173.542 400.506C173.038 400.84 172.175 400.929 171.614 400.705L166.69 398.733C166.353 398.598 166.179 398.349 166.18 398.077L166.176 398.081L166.175 393.009L166.179 393.008C166.18 392.827 166.257 392.637 166.422 392.461L166.708 392.157C166.291 391.901 165.778 391.72 165.353 391.737L159.727 391.964C159.123 391.988 158.487 391.54 158.306 390.963L157.454 388.242C157.421 388.137 157.411 388.034 157.411 387.933L157.406 387.932L157.405 382.876L157.425 382.886C157.416 382.426 157.712 382.03 158.206 381.945L162.565 381.199L160.867 380.347C160.566 380.196 160.42 379.963 160.424 379.72L160.418 379.724L160.417 374.671L160.422 374.673C160.418 374.473 160.515 374.265 160.729 374.088L163.872 371.472C164.337 371.085 165.181 370.918 165.758 371.099L170.548 372.6C171.125 372.781 172.03 372.707 172.585 372.467C173.401 372.112 174.259 371.796 175.149 371.521ZM195.571 384.268C194.743 383.079 193.33 382.011 191.37 381.226C186.033 379.089 178.706 379.854 175.004 382.935C174.477 383.374 174.069 383.817 173.751 384.259C174.577 385.454 175.995 386.527 177.963 387.315C183.299 389.453 190.627 388.688 194.329 385.606C194.842 385.181 195.249 384.73 195.571 384.268Z" fill="#A78BFA"/>
<path opacity="0.1" d="M204.467 383.7C204.641 383.123 205.185 382.55 205.773 382.449L211.129 381.533C211.587 381.448 211.89 381.113 211.92 380.699L211.924 385.716C211.908 386.153 211.602 386.518 211.132 386.601L206.772 387.349L204.517 386.215C203.972 385.943 203.807 385.313 204.067 384.765C204.233 384.412 204.365 384.057 204.467 383.7ZM203.159 375.529L203.152 375.533C203.155 375.71 203.078 375.904 202.915 376.087L202.625 376.394C202.445 376.289 202.283 376.164 202.16 376.036C201.761 375.62 201.309 375.216 200.811 374.837C200.337 374.464 200.261 373.833 200.674 373.395L202.911 371.02C203.078 370.844 203.155 370.65 203.152 370.473L203.159 375.529Z" fill="#573BF6"/>
<path opacity="0.1" d="M191.369 376.162C195.973 378.007 197.596 381.403 195.566 384.274C194.746 383.077 193.329 382.017 191.372 381.228C186.033 379.092 178.708 379.852 175.002 382.937C174.481 383.377 174.067 383.815 173.759 384.261C172.333 382.221 172.663 379.814 174.999 377.869C178.705 374.785 186.03 374.026 191.369 376.162Z" fill="#573BF6"/>
<path d="M183.106 393.685C183.325 393.857 183.51 394.058 183.616 394.275L184.847 396.666C185.022 397.003 185.37 397.279 185.753 397.425L185.757 402.493C185.367 402.351 185.025 402.07 184.85 401.734L183.619 399.343C183.513 399.126 183.313 398.933 183.094 398.761L183.106 393.685ZM166.177 393.012C166.177 393.012 166.177 393.012 166.185 393.008C166.174 393.282 166.355 393.526 166.695 393.668L171.611 395.641C171.975 395.789 172.465 395.794 172.902 395.691L172.906 400.759C172.464 400.855 171.978 400.857 171.615 400.709L166.688 398.733C166.352 398.599 166.178 398.351 166.181 398.081L166.177 393.012ZM198.848 390.889L203.573 392.376C203.923 392.482 204.366 392.475 204.764 392.355L204.771 397.411C204.369 397.524 203.931 397.558 203.577 397.444L198.844 395.962L198.848 390.889ZM157.404 382.878C157.41 382.974 157.427 383.073 157.456 383.175L158.302 385.897C158.487 386.476 159.123 386.924 159.723 386.895L165.348 386.669C165.621 386.66 165.93 386.73 166.227 386.848L166.23 391.916C165.934 391.799 165.626 391.729 165.352 391.737L159.727 391.963C159.123 391.984 158.485 391.536 158.305 390.964L157.46 388.242C157.419 388.136 157.408 388.033 157.41 387.932L157.404 382.878ZM160.409 374.672C160.412 374.73 160.429 374.79 160.451 374.847C160.476 374.942 160.534 375.027 160.62 375.107C160.685 375.169 160.77 375.229 160.869 375.281L164.818 377.265C164.913 377.309 164.998 377.37 165.056 377.436C165.182 377.552 165.272 377.689 165.324 377.848C165.366 377.973 165.389 378.099 165.382 378.242C165.378 378.304 165.371 378.378 165.359 378.444C165.334 378.538 165.304 378.625 165.267 378.716C165.103 379.069 164.967 379.417 164.865 379.774C164.696 380.359 164.15 380.931 163.555 381.037L162.566 381.201L160.865 380.354C160.566 380.198 160.421 379.964 160.422 379.725L160.415 379.729L160.409 374.672Z" fill="#573BF6"/>
<path opacity="0.7" d="M183.106 393.685C183.325 393.857 183.51 394.058 183.616 394.275L184.847 396.666C185.022 397.003 185.37 397.279 185.753 397.425L185.757 402.493C185.367 402.351 185.025 402.07 184.85 401.734L183.619 399.343C183.513 399.126 183.313 398.933 183.094 398.761L183.106 393.685ZM166.177 393.012C166.177 393.012 166.177 393.012 166.185 393.008C166.174 393.282 166.355 393.526 166.695 393.668L171.611 395.641C171.975 395.789 172.465 395.794 172.902 395.691L172.906 400.759C172.464 400.855 171.978 400.857 171.615 400.709L166.688 398.733C166.352 398.599 166.178 398.351 166.181 398.081L166.177 393.012ZM198.848 390.889L203.573 392.376C203.923 392.482 204.366 392.475 204.764 392.355L204.771 397.411C204.369 397.524 203.931 397.558 203.577 397.444L198.844 395.962L198.848 390.889ZM157.404 382.878C157.41 382.974 157.427 383.073 157.456 383.175L158.302 385.897C158.487 386.476 159.123 386.924 159.723 386.895L165.348 386.669C165.621 386.66 165.93 386.73 166.227 386.848L166.23 391.916C165.934 391.799 165.626 391.729 165.352 391.737L159.727 391.963C159.123 391.984 158.485 391.536 158.305 390.964L157.46 388.242C157.419 388.136 157.408 388.033 157.41 387.932L157.404 382.878ZM160.409 374.672C160.412 374.73 160.429 374.79 160.451 374.847C160.476 374.942 160.534 375.027 160.62 375.107C160.685 375.169 160.77 375.229 160.869 375.281L164.818 377.265C164.913 377.309 164.998 377.37 165.056 377.436C165.182 377.552 165.272 377.689 165.324 377.848C165.366 377.973 165.389 378.099 165.382 378.242C165.378 378.304 165.371 378.378 165.359 378.444C165.334 378.538 165.304 378.625 165.267 378.716C165.103 379.069 164.967 379.417 164.865 379.774C164.696 380.359 164.15 380.931 163.555 381.037L162.566 381.201L160.865 380.354C160.566 380.198 160.421 379.964 160.422 379.725L160.415 379.729L160.409 374.672Z" fill="#A78BFA"/>
<path d="M165.757 371.099L170.547 372.6C171.124 372.781 172.029 372.707 172.584 372.467C173.402 372.112 174.26 371.797 175.15 371.521C175.728 371.343 176.144 370.731 176.071 370.131L175.788 367.794C175.715 367.194 176.144 366.656 176.745 366.594L182.898 365.952C183.499 365.889 184.211 366.274 184.487 366.812L185.712 369.2C185.988 369.738 186.702 370.194 187.305 370.239C188.377 370.32 189.443 370.451 190.493 370.634C191.089 370.738 191.976 370.571 192.48 370.236L195.791 368.037C196.295 367.703 197.158 367.614 197.719 367.838L202.643 369.81C203.204 370.035 203.324 370.574 202.909 371.015L200.675 373.391C200.261 373.832 200.335 374.459 200.812 374.831C201.307 375.217 201.756 375.618 202.159 376.032C202.581 376.465 203.375 376.831 203.979 376.807L209.605 376.58C210.209 376.556 210.845 377.004 211.026 377.581L211.878 380.301C212.059 380.878 211.722 381.428 211.126 381.53L205.775 382.446C205.179 382.548 204.639 383.12 204.468 383.7C204.363 384.057 204.229 384.412 204.064 384.764C203.809 385.312 203.975 385.943 204.516 386.214L208.466 388.197C209.006 388.468 209.068 389.002 208.603 389.388L205.46 392.004C204.995 392.391 204.151 392.558 203.574 392.377L198.785 390.876C198.208 390.695 197.302 390.768 196.748 391.009C195.93 391.364 195.072 391.679 194.182 391.955C193.605 392.134 193.189 392.745 193.261 393.345L193.544 395.682C193.617 396.282 193.188 396.82 192.587 396.883L186.434 397.525C185.833 397.588 185.121 397.203 184.845 396.665L183.619 394.277C183.343 393.739 182.629 393.284 182.026 393.238C180.954 393.157 179.888 393.026 178.838 392.843C178.242 392.739 177.355 392.907 176.851 393.241L173.54 395.44C173.036 395.775 172.173 395.863 171.612 395.639L166.688 393.667C166.127 393.442 166.008 392.903 166.422 392.462L168.656 390.086C169.07 389.645 168.996 389.018 168.519 388.646C168.024 388.26 167.575 387.859 167.172 387.445C166.75 387.012 165.956 386.646 165.352 386.67L159.726 386.897C159.122 386.921 158.486 386.473 158.305 385.897L157.453 383.176C157.272 382.599 157.609 382.049 158.205 381.947L163.557 381.031C164.153 380.929 164.693 380.357 164.863 379.777C164.968 379.42 165.102 379.065 165.266 378.713C165.521 378.165 165.355 377.534 164.815 377.262L160.865 375.28C160.325 375.009 160.263 374.476 160.728 374.089L163.871 371.473C164.336 371.085 165.18 370.918 165.757 371.099ZM175.003 377.868C171.301 380.949 172.626 385.179 177.963 387.316C183.299 389.454 190.627 388.689 194.329 385.607C198.031 382.526 196.706 378.295 191.369 376.158C186.033 374.021 178.705 374.786 175.003 377.868Z" fill="#573BF6"/>
<g opacity="0.55">
<path d="M165.757 371.099L170.547 372.6C171.124 372.781 172.029 372.707 172.584 372.467C173.402 372.112 174.26 371.797 175.15 371.521C175.728 371.343 176.144 370.731 176.071 370.131L175.788 367.794C175.715 367.194 176.144 366.656 176.745 366.594L182.898 365.952C183.499 365.889 184.211 366.274 184.487 366.812L185.712 369.2C185.988 369.738 186.702 370.194 187.305 370.239C188.377 370.32 189.443 370.451 190.493 370.634C191.089 370.738 191.976 370.571 192.48 370.236L195.791 368.037C196.295 367.703 197.158 367.614 197.719 367.838L202.643 369.81C203.204 370.035 203.324 370.574 202.909 371.015L200.675 373.391C200.261 373.832 200.335 374.459 200.812 374.831C201.307 375.217 201.756 375.618 202.159 376.032C202.581 376.465 203.375 376.831 203.979 376.807L209.605 376.58C210.209 376.556 210.845 377.004 211.026 377.581L211.878 380.301C212.059 380.878 211.722 381.428 211.126 381.53L205.775 382.446C205.179 382.548 204.639 383.12 204.468 383.7C204.363 384.057 204.229 384.412 204.064 384.764C203.809 385.312 203.975 385.943 204.516 386.214L208.466 388.197C209.006 388.468 209.068 389.002 208.603 389.388L205.46 392.004C204.995 392.391 204.151 392.558 203.574 392.377L198.785 390.876C198.208 390.695 197.302 390.768 196.748 391.009C195.93 391.364 195.072 391.679 194.182 391.955C193.605 392.134 193.189 392.745 193.261 393.345L193.544 395.682C193.617 396.282 193.188 396.82 192.587 396.883L186.434 397.525C185.833 397.588 185.121 397.203 184.845 396.665L183.619 394.277C183.343 393.739 182.629 393.284 182.026 393.238C180.954 393.157 179.888 393.026 178.838 392.843C178.242 392.739 177.355 392.907 176.851 393.241L173.54 395.44C173.036 395.775 172.173 395.863 171.612 395.639L166.688 393.667C166.127 393.442 166.008 392.903 166.422 392.462L168.656 390.086C169.07 389.645 168.996 389.018 168.519 388.646C168.024 388.26 167.575 387.859 167.172 387.445C166.75 387.012 165.956 386.646 165.352 386.67L159.726 386.897C159.122 386.921 158.486 386.473 158.305 385.897L157.453 383.176C157.272 382.599 157.609 382.049 158.205 381.947L163.557 381.031C164.153 380.929 164.693 380.357 164.863 379.777C164.968 379.42 165.102 379.065 165.266 378.713C165.521 378.165 165.355 377.534 164.815 377.262L160.865 375.28C160.325 375.009 160.263 374.476 160.728 374.089L163.871 371.473C164.336 371.085 165.18 370.918 165.757 371.099ZM175.003 377.868C171.301 380.949 172.626 385.179 177.963 387.316C183.299 389.454 190.627 388.689 194.329 385.607C198.031 382.526 196.706 378.295 191.369 376.158C186.033 374.021 178.705 374.786 175.003 377.868Z" fill="#A78BFA"/>
<path d="M186.307 397.962C186.365 397.962 186.422 397.959 186.48 397.953L192.633 397.31C193.04 397.267 193.404 397.069 193.656 396.751C193.909 396.433 194.021 396.035 193.972 395.629L193.69 393.293C193.643 392.909 193.927 392.484 194.31 392.366C195.22 392.084 196.098 391.761 196.92 391.404C197.4 391.196 198.196 391.142 198.657 391.287L203.446 392.788C204.158 393.011 205.164 392.811 205.736 392.335L208.879 389.719C209.214 389.44 209.382 389.069 209.34 388.7C209.297 388.331 209.05 388.008 208.66 387.812L204.71 385.83C204.355 385.652 204.314 385.25 204.456 384.946C204.627 384.579 204.771 384.201 204.883 383.822C205.017 383.366 205.45 382.939 205.849 382.871L211.2 381.956C211.613 381.885 211.954 381.66 212.162 381.32C212.37 380.98 212.415 380.574 212.29 380.174L211.438 377.453C211.199 376.69 210.378 376.109 209.588 376.151L203.963 376.378C203.496 376.406 202.827 376.102 202.468 375.733C202.048 375.302 201.58 374.884 201.077 374.493C200.934 374.381 200.849 374.236 200.837 374.083C200.826 373.941 200.879 373.805 200.989 373.687L203.222 371.311C203.519 370.995 203.643 370.605 203.561 370.239C203.48 369.874 203.203 369.572 202.801 369.412L197.878 367.44C197.189 367.164 196.168 367.27 195.551 367.68L192.24 369.879C191.836 370.147 191.07 370.3 190.565 370.211C189.513 370.027 188.427 369.893 187.335 369.81C186.876 369.775 186.295 369.398 186.092 369.003L184.866 366.615C184.511 365.922 183.626 365.445 182.849 365.524L176.697 366.166C176.291 366.209 175.927 366.407 175.674 366.725C175.421 367.043 175.308 367.441 175.357 367.847L175.64 370.185C175.687 370.569 175.403 370.994 175.02 371.112C174.111 371.393 173.232 371.717 172.41 372.074C171.93 372.282 171.137 372.336 170.674 372.192L165.884 370.691C165.172 370.466 164.166 370.667 163.594 371.143L160.451 373.76C160.116 374.039 159.947 374.41 159.99 374.779C160.032 375.148 160.28 375.471 160.671 375.666L164.62 377.648C164.974 377.826 165.016 378.228 164.874 378.532C164.701 378.903 164.558 379.281 164.448 379.656C164.313 380.112 163.881 380.539 163.482 380.607L158.13 381.523C157.717 381.594 157.376 381.82 157.168 382.159C156.96 382.499 156.914 382.906 157.039 383.305L157.892 386.026C158.131 386.788 158.938 387.371 159.742 387.328L165.368 387.101C165.792 387.098 166.504 387.378 166.862 387.746C167.28 388.175 167.748 388.592 168.253 388.986C168.396 389.098 168.481 389.244 168.493 389.397C168.504 389.538 168.452 389.674 168.342 389.792L166.108 392.168C165.812 392.483 165.688 392.873 165.768 393.238C165.849 393.604 166.126 393.906 166.528 394.067L171.452 396.039C172.138 396.315 173.161 396.21 173.778 395.8L177.089 393.601C177.493 393.333 178.263 393.183 178.764 393.269C179.814 393.453 180.901 393.587 181.993 393.67C182.453 393.705 183.033 394.081 183.235 394.476L184.461 396.864C184.792 397.503 185.577 397.962 186.307 397.962ZM198.015 390.344C197.514 390.344 196.985 390.437 196.578 390.614C195.785 390.959 194.936 391.271 194.057 391.544C193.275 391.786 192.739 392.6 192.835 393.398L193.117 395.734C193.138 395.909 193.091 396.08 192.983 396.215C192.875 396.351 192.718 396.436 192.543 396.454L186.39 397.097C185.967 397.137 185.423 396.847 185.229 396.468L184.003 394.08C183.662 393.413 182.826 392.866 182.06 392.808C180.995 392.727 179.937 392.596 178.914 392.418C178.186 392.292 177.202 392.491 176.614 392.881L173.302 395.08C172.916 395.336 172.2 395.41 171.773 395.237L166.849 393.265C166.715 393.211 166.628 393.133 166.61 393.05C166.591 392.967 166.637 392.86 166.736 392.755L168.97 390.379C169.246 390.085 169.382 389.712 169.353 389.329C169.323 388.932 169.121 388.568 168.784 388.305C168.31 387.935 167.872 387.544 167.481 387.143C166.951 386.601 166.036 386.221 165.335 386.239L159.709 386.466C159.294 386.491 158.838 386.156 158.717 385.767L157.864 383.046C157.814 382.887 157.829 382.732 157.905 382.607C157.981 382.482 158.113 382.398 158.277 382.37L163.629 381.455C164.355 381.331 165.047 380.677 165.276 379.898C165.374 379.564 165.502 379.227 165.657 378.895C166.02 378.113 165.742 377.246 165.009 376.878L161.059 374.896C160.935 374.834 160.856 374.753 160.848 374.68C160.839 374.606 160.898 374.51 161.004 374.421L164.147 371.804C164.498 371.512 165.188 371.374 165.628 371.512L170.418 373.013C171.078 373.221 172.083 373.156 172.754 372.864C173.549 372.519 174.398 372.207 175.276 371.934C176.057 371.693 176.593 370.879 176.498 370.082L176.215 367.744C176.194 367.57 176.241 367.398 176.35 367.262C176.458 367.126 176.615 367.041 176.79 367.023L182.942 366.381C183.365 366.334 183.909 366.63 184.103 367.009L185.329 369.397C185.672 370.064 186.508 370.611 187.273 370.668C188.337 370.749 189.395 370.88 190.419 371.058C191.14 371.187 192.129 370.986 192.719 370.595L196.03 368.396C196.415 368.141 197.129 368.068 197.561 368.238L202.484 370.21C202.618 370.264 202.705 370.342 202.723 370.425C202.741 370.508 202.695 370.616 202.597 370.721L200.364 373.097C200.087 373.392 199.951 373.765 199.981 374.149C200.012 374.546 200.214 374.909 200.55 375.171C201.022 375.539 201.461 375.93 201.854 376.333C202.384 376.877 203.302 377.266 204 377.237L209.625 377.01C210.046 376.99 210.497 377.321 210.619 377.709L211.471 380.429C211.521 380.588 211.506 380.744 211.43 380.869C211.353 380.994 211.221 381.078 211.057 381.106L205.706 382.022C204.981 382.146 204.289 382.801 204.06 383.579C203.961 383.916 203.833 384.254 203.679 384.582C203.315 385.364 203.594 386.231 204.327 386.6L208.277 388.582C208.401 388.644 208.479 388.725 208.487 388.799C208.496 388.873 208.437 388.97 208.331 389.058L205.188 391.674C204.836 391.968 204.143 392.105 203.707 391.967L198.918 390.466C198.656 390.384 198.341 390.344 198.015 390.344ZM184.635 388.951C188.47 388.951 192.251 387.899 194.605 385.94C196.298 384.531 197.079 382.797 196.805 381.059C196.464 378.897 194.541 376.966 191.53 375.761C186.071 373.575 178.534 374.372 174.728 377.539C173.036 378.948 172.254 380.681 172.53 382.42C172.871 384.581 174.794 386.512 177.804 387.718C179.886 388.55 182.271 388.951 184.635 388.951ZM184.667 375.375C186.928 375.375 189.212 375.758 191.209 376.558C193.932 377.648 195.661 379.337 195.954 381.192C196.183 382.64 195.525 384.052 194.054 385.277C190.467 388.264 183.321 388.998 178.124 386.917C175.401 385.827 173.672 384.138 173.379 382.284C173.15 380.836 173.808 379.424 175.278 378.199C177.487 376.361 181.046 375.375 184.667 375.375Z" fill="#A78BFA"/>
</g>
<path d="M213.274 241.936C213.774 241.795 214.362 241.765 215.027 241.845C218.035 242.207 221.434 244.762 222.62 247.543C223.429 249.443 222.994 250.962 221.687 251.611C221.579 251.669 221.473 251.716 221.358 251.753C205.305 258.513 180.195 257.846 156.925 235.031L165.321 226.453C182.717 243.505 200.806 245.682 213.274 241.936Z" fill="#263238"/>
<path d="M138.917 232.34C138.819 233.156 139.125 234.005 139.806 234.568C144.792 238.688 151.368 239.229 156.968 235.981C158.162 235.289 158.569 233.759 157.876 232.564C157.184 231.37 155.654 230.963 154.459 231.656C150.716 233.827 146.321 233.466 142.99 230.714C141.925 229.834 140.349 229.984 139.471 231.049C139.155 231.431 138.972 231.881 138.917 232.34Z" fill="#263238"/>
<path d="M166.813 220.701C161.269 217.559 154.228 219.507 151.086 225.051C147.944 230.596 149.892 237.637 155.436 240.779C160.981 243.921 168.022 241.973 171.164 236.429C174.307 230.885 172.358 223.843 166.813 220.701Z" fill="#573BF6"/>
<path opacity="0.2" d="M154.774 221.117C153.084 222.384 150.891 228.284 155.818 232.949C161.493 238.321 171.746 235.211 172.515 228.944C172.91 231.434 172.503 234.068 171.163 236.431C168.021 241.976 160.979 243.923 155.435 240.781C149.891 237.639 147.943 230.597 151.085 225.053C152.017 223.408 153.297 222.089 154.774 221.117Z" fill="black"/>
<path opacity="0.3" d="M169.599 224.822C169.681 224.917 169.747 225.021 169.817 225.126C170.211 225.716 170.51 226.369 170.704 227.051C170.913 227.785 171.103 228.672 170.836 229.406C170.551 230.185 169.702 230.826 168.91 230.576C168.144 230.335 167.819 229.456 167.565 228.694C166.911 226.73 166.056 224.833 165.019 223.041C164.914 222.859 164.803 222.647 164.874 222.449C164.968 222.19 165.306 222.13 165.581 222.147C167.233 222.25 168.519 223.568 169.599 224.822Z" fill="white" fill-opacity="0.97"/>
<path d="M148.902 212.245C148.751 213.496 149.564 214.685 150.82 214.976C155.028 215.952 157.984 219.225 158.53 223.517C158.705 224.887 159.957 225.856 161.326 225.681C162.696 225.506 163.659 224.253 163.49 222.884C162.671 216.462 158.248 211.565 151.949 210.104C150.604 209.793 149.26 210.629 148.949 211.975C148.929 212.066 148.913 212.156 148.902 212.245Z" fill="#263238"/>
<path d="M329.21 230.715C329.21 273.667 310.292 363.494 265.609 363.494C220.925 363.494 202.007 273.667 202.007 230.715H329.21Z" fill="#573BF6"/>
<path opacity="0.8" d="M329.21 230.715C329.21 273.667 310.292 363.494 265.609 363.494C220.925 363.494 202.007 273.667 202.007 230.715H329.21Z" fill="white"/>
<path d="M202.062 230.715C203.867 256.605 210.971 274.197 222.198 280.413C226.891 283.014 233.495 283.019 239.189 280.373C248.731 275.939 255.25 265.258 256.259 260.158L258.71 260.642C257.577 266.375 250.635 277.812 240.243 282.64C237.062 284.117 232.588 284.827 229.576 284.827C226.558 284.827 223.667 284.085 220.987 282.601C213.289 278.339 207.421 269.263 203.708 256.23C202.563 246.808 202.007 238.073 202.007 230.715H202.062Z" fill="#573BF6"/>
<path d="M221.635 254.997C221.635 299.9 229.047 333.475 243.705 355.36C241.864 353.898 240.085 352.272 238.375 350.48C225.926 328.311 219.635 296.393 219.635 254.996H221.635V254.997Z" fill="#573BF6"/>
<path d="M220.635 256.681C245.473 271.021 285.743 271.021 310.581 256.681C323 249.511 329.21 240.113 329.21 230.716C329.21 221.318 323.001 211.921 310.582 204.751C285.744 190.411 245.474 190.411 220.636 204.751C208.217 211.921 202.008 221.319 202.007 230.716C202.007 240.114 208.216 249.511 220.635 256.681Z" fill="#573BF6"/>
<path opacity="0.6" d="M220.635 256.681C245.473 271.021 285.743 271.021 310.581 256.681C323 249.511 329.21 240.113 329.21 230.716C329.21 221.318 323.001 211.921 310.582 204.751C285.744 190.411 245.474 190.411 220.636 204.751C208.217 211.921 202.008 221.319 202.007 230.716C202.007 240.114 208.216 249.511 220.635 256.681Z" fill="white" fill-opacity="0.41"/>
<path opacity="0.3" d="M219.949 238.729C211.519 230.319 209.657 220.738 210.687 212.187C213.379 209.532 216.691 207.028 220.636 204.751C245.474 190.411 285.744 190.411 310.582 204.751C323.001 211.921 329.21 221.319 329.21 230.716C329.21 240.114 323 249.511 310.581 256.681C289.418 268.899 257.058 270.699 232.58 262.097C257.575 269.76 290.034 262.924 292.796 249.394C277.795 255.71 239.552 258.286 219.949 238.729Z" fill="url(#paint0_linear_41_474)"/>
<path d="M327.712 258.263C338.7 264.609 342.465 278.661 336.12 289.65C329.775 300.64 315.722 304.406 304.732 298.061C301.791 296.364 299.972 292.723 299.972 287.542C299.972 277.18 307.247 264.58 316.22 259.399C320.708 256.808 324.771 256.563 327.712 258.263Z" fill="#455A64"/>
<path d="M317.419 295.381C329.176 296.454 337.656 287.034 339.017 275.273C339.63 280.084 338.735 285.126 336.123 289.649C329.778 300.639 315.725 304.405 304.735 298.06C301.794 296.363 299.975 292.722 299.975 287.541C299.975 285.425 300.292 283.216 300.851 280.996C300.866 287.566 304.828 294.232 317.419 295.381Z" fill="#37474F"/>
<path d="M329.577 278.358C333.17 276.283 336.084 277.965 336.084 282.115C336.084 286.264 333.171 291.31 329.577 293.385C325.983 295.46 323.07 293.778 323.07 289.628C323.07 285.479 325.983 280.433 329.577 278.358Z" fill="#263238"/>
<path d="M333.742 280.766C333.742 284.915 330.829 289.961 327.235 292.036C326.039 292.726 324.923 292.992 323.96 292.898C323.397 292.111 323.069 291.011 323.069 289.631C323.069 285.482 325.982 280.436 329.576 278.361C330.772 277.671 331.888 277.405 332.851 277.499C333.415 278.285 333.743 279.385 333.742 280.766Z" fill="#573BF6"/>
<path opacity="0.1" d="M333.459 283.121C332.646 286.669 330.168 290.341 327.236 292.034C326.04 292.724 324.924 292.99 323.961 292.896C323.398 292.109 323.07 291.009 323.07 289.629C323.07 288.571 323.261 287.455 323.603 286.345C325.627 289.962 332.41 286.65 333.459 283.121Z" fill="black"/>
<path d="M325.125 290.703C324.925 290.223 324.825 289.643 324.825 288.973C324.825 285.943 326.955 282.263 329.575 280.753C331.365 279.723 332.925 279.973 333.725 281.193C333.795 281.293 333.855 281.393 333.905 281.503C342.535 296.633 344.875 321.643 325.005 347.473L315.485 340.163C330.335 320.853 330.335 302.633 325.125 290.703Z" fill="#263238"/>
<path d="M324.487 365.674C325.309 365.674 326.115 365.269 326.592 364.525C330.086 359.083 329.837 352.489 325.944 347.317C325.114 346.214 323.547 345.993 322.443 346.824C321.34 347.654 321.119 349.221 321.95 350.325C324.553 353.782 324.72 358.188 322.386 361.824C321.64 362.986 321.977 364.533 323.139 365.278C323.556 365.546 324.024 365.674 324.487 365.674Z" fill="#263238"/>
<path d="M309.597 339.367C307.14 345.247 309.916 352.006 315.796 354.463C321.676 356.92 328.435 354.144 330.891 348.264C333.348 342.384 330.572 335.625 324.692 333.168C318.812 330.712 312.054 333.487 309.597 339.367Z" fill="#573BF6"/>
<path opacity="0.2" d="M311.448 351.27C312.908 352.796 319.028 354.269 323.07 348.819C327.726 342.543 323.412 332.735 317.098 332.72C319.522 332.031 322.186 332.12 324.693 333.167C330.573 335.624 333.349 342.382 330.892 348.263C328.436 354.143 321.677 356.919 315.797 354.462C314.053 353.733 312.59 352.62 311.448 351.27Z" fill="black"/>
<path opacity="0.3" d="M313.357 336.111C313.442 336.018 313.537 335.94 313.632 335.858C314.171 335.396 314.783 335.021 315.437 334.747C316.14 334.452 316.999 334.157 317.759 334.335C318.567 334.525 319.304 335.291 319.151 336.107C319.003 336.896 318.169 337.324 317.444 337.667C315.572 338.551 313.791 339.627 312.136 340.87C311.968 340.996 311.77 341.132 311.566 341.084C311.298 341.022 311.197 340.694 311.182 340.419C311.087 338.767 312.242 337.333 313.357 336.111Z" fill="white" fill-opacity="0.97"/>
<path d="M303.341 358.162C304.601 358.162 305.685 357.213 305.823 355.932C306.289 351.637 309.185 348.312 313.382 347.256C314.721 346.918 315.533 345.56 315.196 344.221C314.858 342.882 313.5 342.075 312.161 342.407C305.883 343.988 301.55 348.965 300.852 355.393C300.704 356.766 301.695 357.999 303.068 358.148C303.16 358.157 303.251 358.162 303.341 358.162Z" fill="#263238"/>
<path d="M214.307 211.151C214.307 203.571 219.316 195.99 229.333 190.207C249.368 178.639 281.85 178.639 301.884 190.207C311.901 195.99 316.91 203.571 316.91 211.151C316.91 212.72 316.91 218.962 316.91 220.531C316.91 228.111 311.901 235.692 301.884 241.476C281.849 253.043 249.367 253.043 229.333 241.476C219.316 235.693 214.307 228.112 214.307 220.531C214.307 218.963 214.307 212.721 214.307 211.151Z" fill="#37474F"/>
<path d="M257.553 249.78C269.896 250.027 285.93 244.412 281.856 229.915V183.059C289.175 184.466 296.057 186.845 301.884 190.208C311.901 195.991 316.91 203.572 316.91 211.152C316.91 212.721 316.91 218.964 316.91 220.533C316.91 228.113 311.901 235.693 301.884 241.477C289.811 248.448 273.219 251.211 257.553 249.78Z" fill="#263238"/>
<path d="M229.333 232.095C249.367 243.662 281.85 243.662 301.884 232.095C311.901 226.311 316.91 218.731 316.91 211.151C316.91 203.571 311.902 195.99 301.884 190.207C281.85 178.639 249.367 178.639 229.333 190.207C219.316 195.99 214.307 203.571 214.307 211.151C214.307 218.732 219.315 226.312 229.333 232.095Z" fill="#263238"/>
<path d="M196.577 224.968L198.799 222.954C196.653 220.586 194.19 216.936 194.647 212.99C194.986 210.052 196.939 207.333 200.451 204.909C205.49 201.43 210.188 199.367 213.445 198.206C213.728 197.043 214.3 195.184 214.452 194.699C211.09 195.728 205.22 197.969 198.746 202.439C194.491 205.377 192.11 208.811 191.667 212.646C191.082 217.71 194.014 222.142 196.577 224.968Z" fill="#263238"/>
<path d="M195.668 221.157C198.566 218.881 200.492 220.174 204.364 224.87C208.236 229.566 207.144 231.513 204.741 233.401C202.339 235.289 199.707 234.139 196.682 230.196C193.281 225.762 192.218 223.866 195.668 221.157Z" fill="#573BF6"/>
<path opacity="0.3" d="M202.323 224.389C203.302 225.399 204.295 226.43 204.932 227.683C205.352 228.509 205.603 229.505 205.236 230.356C205.065 230.753 204.772 231.086 204.452 231.376C203.801 231.967 202.978 232.421 202.098 232.438C201.939 232.441 201.77 232.427 201.641 232.334C201.468 232.211 201.409 231.983 201.381 231.772C201.26 230.845 201.515 229.901 201.41 228.972C201.142 226.616 198.661 224.883 198.647 222.512C198.646 222.381 198.655 222.245 198.718 222.131C198.979 221.66 199.755 221.943 200.104 222.16C200.283 222.271 200.428 222.431 200.573 222.581C200.838 222.856 201.104 223.13 201.369 223.404C201.687 223.733 202.005 224.061 202.323 224.389Z" fill="white" fill-opacity="0.97"/>
<path d="M208.162 208.801C208.164 177.076 233.883 151.359 265.608 151.359C297.333 151.359 323.052 177.076 323.054 208.801C323.056 217.29 317.447 225.78 306.228 232.257C283.794 245.209 247.421 245.209 224.987 232.257C213.769 225.78 208.161 217.29 208.162 208.801Z" fill="#573BF6"/>
<path opacity="0.8" d="M208.162 208.801C208.164 177.076 233.883 151.359 265.608 151.359C297.333 151.359 323.052 177.076 323.054 208.801C323.056 217.29 317.447 225.78 306.228 232.257C283.794 245.209 247.421 245.209 224.987 232.257C213.769 225.78 208.161 217.29 208.162 208.801Z" fill="white"/>
<path opacity="0.3" d="M215.71 225.238C245.587 243.649 285.03 241.696 285.919 222.146C286.526 208.804 293.414 197.679 302.384 192.513C301.478 171.5 287.535 154.864 272.469 151.789L272.478 151.781C300.962 155.178 323.052 179.401 323.054 208.8C323.056 217.289 317.447 225.779 306.228 232.256C283.794 245.208 247.421 245.208 224.987 232.256C222.387 230.755 220.101 229.141 218.104 227.449L215.791 225.322C215.764 225.295 215.738 225.266 215.71 225.238Z" fill="#573BF6"/>
<path d="M209.901 194.753C212.489 184.463 217.849 175.277 225.146 168.035C225.141 174.019 229.076 180.007 236.986 184.568C246.309 189.949 259.037 192.158 271.153 191.197C276.639 190.762 281.529 194.544 282.412 199.976C283.297 205.415 283.83 210.683 284.145 215.376C284.521 220.969 280.42 225.915 274.84 226.455C257.687 228.113 239.448 225.123 226.216 217.478C215.345 211.2 209.909 202.978 209.901 194.753Z" fill="#2C393F"/>
<path d="M260.41 212.541C260.567 212.541 260.727 212.526 260.888 212.495C262.243 212.233 263.13 210.922 262.867 209.566C261.839 204.245 257.154 200.383 251.727 200.383C247.952 200.383 244.435 202.252 242.32 205.384C241.547 206.529 241.847 208.082 242.992 208.855C244.136 209.629 245.691 209.327 246.463 208.183C247.647 206.43 249.615 205.383 251.728 205.383C254.764 205.383 257.384 207.541 257.958 210.516C258.189 211.711 259.236 212.541 260.41 212.541Z" fill="#573BF6"/>
<path d="M214.415 182.746C218.133 184.341 220.833 187.85 221.247 192.043C221.383 193.417 220.379 194.641 219.005 194.776C218.843 194.792 218.682 194.792 218.525 194.778C217.356 194.67 216.39 193.746 216.27 192.535C216.035 190.149 214.467 188.172 212.328 187.305C212.957 185.749 213.657 184.231 214.415 182.746Z" fill="#573BF6"/>
<g opacity="0.1">
<path d="M236.65 184.365C231.725 193.431 227.538 204.264 224.913 216.687C222.526 215.213 220.424 213.643 218.607 211.998C220.927 203.219 224.928 191.396 231.476 180.605C232.944 181.933 234.668 183.194 236.65 184.365Z" fill="white" fill-opacity="0.68"/>
<path d="M241.27 186.711C244.775 188.238 248.607 189.396 252.612 190.179C250.572 201.026 249.165 213.127 248.639 225.375C242.818 224.304 237.249 222.661 232.176 220.458C234.014 210.67 236.912 198.291 241.27 186.711Z" fill="white" fill-opacity="0.68"/>
</g>
<path d="M337.553 182.515C335.621 184.447 335.621 187.579 337.553 189.512C339.485 191.444 342.618 191.444 344.55 189.512C346.482 187.58 346.482 184.448 344.55 182.515C342.618 180.583 339.485 180.583 337.553 182.515Z" fill="#573BF6"/>
<path opacity="0.3" d="M337.559 182.512C335.621 184.45 335.621 187.575 337.552 189.505C339.49 191.443 342.615 191.442 344.552 189.505C346.051 188.006 346.391 185.786 345.549 183.954C345.528 184.074 345.5 184.202 345.464 184.322C345.004 185.772 342.989 186.415 340.967 185.764C338.973 185.128 337.714 183.459 338.146 182.023C337.934 182.166 337.743 182.329 337.559 182.512Z" fill="black"/>
<path d="M338.26 187.061C339.02 187.265 339.801 188.046 340.004 188.805C340.106 189.185 340.044 189.488 339.862 189.67L318.82 210.712L316.353 208.245L337.395 187.203C337.577 187.021 337.88 186.959 338.26 187.061Z" fill="#263238"/>
<path opacity="0.3" d="M344.223 182.817C344.392 183.048 344.53 183.369 344.371 183.607C344.175 183.901 343.73 183.808 343.39 183.711C342.168 183.363 340.873 183.418 339.605 183.329C339.386 183.314 339.062 183.296 338.878 183.176C338.573 182.978 338.634 182.656 338.769 182.445C338.942 182.174 339.227 182.003 339.446 181.88C340.055 181.539 340.755 181.356 341.512 181.424C342.142 181.48 342.786 181.635 343.319 181.974C343.668 182.196 343.978 182.482 344.223 182.817Z" fill="white" fill-opacity="0.97"/>
<path d="M317.723 193.594C328.711 199.94 332.476 213.992 326.131 224.981C319.786 235.971 305.733 239.737 294.743 233.392C291.802 231.695 289.983 228.054 289.983 222.873C289.983 212.511 297.258 199.911 306.231 194.73C310.719 192.139 314.782 191.895 317.723 193.594Z" fill="#455A64"/>
<path d="M307.426 230.713C319.183 231.786 327.663 222.366 329.024 210.605C329.637 215.416 328.742 220.458 326.13 224.981C319.785 235.971 305.732 239.737 294.742 233.392C291.801 231.695 289.982 228.054 289.982 222.873C289.982 220.757 290.299 218.548 290.858 216.328C290.874 222.898 294.836 229.564 307.426 230.713Z" fill="#37474F"/>
<path d="M319.588 213.69C323.181 211.615 326.095 213.297 326.095 217.447C326.095 221.597 323.182 226.642 319.588 228.717C315.995 230.792 313.081 229.11 313.081 224.96C313.081 220.81 315.994 215.764 319.588 213.69Z" fill="#263238"/>
<path d="M323.754 216.098C323.754 220.247 320.841 225.293 317.247 227.368C316.051 228.058 314.935 228.324 313.972 228.23C313.409 227.443 313.081 226.343 313.081 224.963C313.081 220.814 315.994 215.768 319.588 213.693C320.784 213.003 321.9 212.737 322.863 212.831C323.425 213.617 323.754 214.717 323.754 216.098Z" fill="#573BF6"/>
<path opacity="0.1" d="M323.47 218.453C322.657 222.002 320.179 225.673 317.247 227.366C316.051 228.056 314.935 228.322 313.972 228.228C313.409 227.441 313.081 226.341 313.081 224.961C313.081 223.903 313.272 222.787 313.614 221.677C315.638 225.294 322.421 221.983 323.47 218.453Z" fill="black"/>
<path d="M247.727 137.189C255.093 132.936 263.887 132.938 271.251 137.189L283.646 144.345C301.802 154.827 313.08 174.362 313.081 195.327C313.081 195.622 312.885 195.918 312.495 196.143C311.714 196.594 310.448 196.594 309.666 196.143C309.275 195.917 309.08 195.622 309.08 195.326C309.08 175.786 298.567 157.579 281.645 147.809L269.25 140.653C263.139 137.122 255.841 137.123 249.726 140.652C243.933 143.996 240.353 149.848 239.993 156.458C239.993 156.458 239.978 157.378 239.97 157.381C238.067 158.316 235.963 159.587 235.963 159.587V157.562C235.964 149.058 240.361 141.442 247.727 137.189Z" fill="#263238"/>
<path d="M312.531 198.125C315.547 196.383 318.446 195.652 321.008 195.904C321.496 196.313 321.967 196.736 322.414 197.179C321.663 196.957 320.871 196.833 320.035 196.833C317.898 196.833 315.514 197.558 313.031 198.99C304.21 204.083 297.033 216.513 297.033 226.7C297.033 230.632 298.112 233.717 300.079 235.641C299.472 235.472 298.869 235.27 298.27 235.048C296.819 232.964 296.033 230.124 296.033 226.7C296.033 216.196 303.434 203.377 312.531 198.125Z" fill="#573BF6"/>
<g opacity="0.3">
<path d="M312.531 198.125C315.547 196.383 318.446 195.652 321.008 195.904C321.496 196.313 321.967 196.736 322.414 197.179C321.663 196.957 320.871 196.833 320.035 196.833C317.898 196.833 315.514 197.558 313.031 198.99C304.21 204.083 297.033 216.513 297.033 226.7C297.033 230.632 298.112 233.717 300.079 235.641C299.472 235.472 298.869 235.27 298.27 235.048C296.819 232.964 296.033 230.124 296.033 226.7C296.033 216.196 303.434 203.377 312.531 198.125Z" fill="white" fill-opacity="0.97"/>
</g>
<defs>
<linearGradient id="paint0_linear_41_474" x1="269.82" y1="267.431" x2="269.82" y2="193.996" gradientUnits="userSpaceOnUse">
<stop stop-color="#A78BFA"/>
<stop offset="1" stop-color="#60A5FA"/>
</linearGradient>
</defs>
</svg>
