<svg width="706" height="172" viewBox="0 0 706 172" fill="none" xmlns="http://www.w3.org/2000/svg">
<path d="M85.0277 0C49.541 0 39.1625 0.0366231 37.1451 0.203999C29.8627 0.80951 25.3311 1.95647 20.3941 4.41507C16.5895 6.30492 13.5888 8.49546 10.6275 11.5662C5.2343 17.1662 1.96568 24.0557 0.782412 32.2452C0.207164 36.2209 0.0397862 37.0317 0.00579695 57.3393C-0.00724619 64.1085 0.00579695 73.0172 0.00579695 84.9666C0.00579695 120.434 0.0449904 130.805 0.215001 132.819C0.803356 139.907 1.91466 144.367 4.26808 149.245C8.76571 158.583 17.3556 165.593 27.4752 168.208C30.9792 169.111 34.8492 169.608 39.8175 169.843C41.9226 169.935 63.3777 170 84.8459 170C106.314 170 127.782 169.974 129.835 169.869C135.588 169.598 138.928 169.15 142.622 168.195C152.807 165.566 161.24 158.661 165.829 149.193C168.137 144.432 169.307 139.803 169.837 133.085C169.952 131.62 170 108.266 170 84.9444C170 61.6184 169.948 38.3081 169.833 36.8434C169.297 30.0167 168.126 25.4263 165.744 20.5743C163.79 16.6025 161.619 13.6364 158.468 10.6037C152.845 5.2312 145.968 1.96168 137.773 0.779441C133.802 0.205285 133.011 0.0352743 112.693 0H85.0277Z" fill="url(#paint0_radial_66_14)"/>
<path d="M85.0277 0C49.541 0 39.1625 0.0366231 37.1451 0.203999C29.8627 0.80951 25.3311 1.95647 20.3941 4.41507C16.5895 6.30492 13.5888 8.49546 10.6275 11.5662C5.2343 17.1662 1.96568 24.0557 0.782412 32.2452C0.207164 36.2209 0.0397862 37.0317 0.00579695 57.3393C-0.00724619 64.1085 0.00579695 73.0172 0.00579695 84.9666C0.00579695 120.434 0.0449904 130.805 0.215001 132.819C0.803356 139.907 1.91466 144.367 4.26808 149.245C8.76571 158.583 17.3556 165.593 27.4752 168.208C30.9792 169.111 34.8492 169.608 39.8175 169.843C41.9226 169.935 63.3777 170 84.8459 170C106.314 170 127.782 169.974 129.835 169.869C135.588 169.598 138.928 169.15 142.622 168.195C152.807 165.566 161.24 158.661 165.829 149.193C168.137 144.432 169.307 139.803 169.837 133.085C169.952 131.62 170 108.266 170 84.9444C170 61.6184 169.948 38.3081 169.833 36.8434C169.297 30.0167 168.126 25.4263 165.744 20.5743C163.79 16.6025 161.619 13.6364 158.468 10.6037C152.845 5.2312 145.968 1.96168 137.773 0.779441C133.802 0.205285 133.011 0.0352743 112.693 0H85.0277Z" fill="url(#paint1_radial_66_14)"/>
<path d="M85.0277 0C49.541 0 39.1625 0.0366231 37.1451 0.203999C29.8627 0.80951 25.3311 1.95647 20.3941 4.41507C16.5895 6.30492 13.5888 8.49546 10.6275 11.5662C5.2343 17.1662 1.96568 24.0557 0.782412 32.2452C0.207164 36.2209 0.0397862 37.0317 0.00579695 57.3393C-0.00724619 64.1085 0.00579695 73.0172 0.00579695 84.9666C0.00579695 120.434 0.0449904 130.805 0.215001 132.819C0.803356 139.907 1.91466 144.367 4.26808 149.245C8.76571 158.583 17.3556 165.593 27.4752 168.208C30.9792 169.111 34.8492 169.608 39.8175 169.843C41.9226 169.935 63.3777 170 84.8459 170C106.314 170 127.782 169.974 129.835 169.869C135.588 169.598 138.928 169.15 142.622 168.195C152.807 165.566 161.24 158.661 165.829 149.193C168.137 144.432 169.307 139.803 169.837 133.085C169.952 131.62 170 108.266 170 84.9444C170 61.6184 169.948 38.3081 169.833 36.8434C169.297 30.0167 168.126 25.4263 165.744 20.5743C163.79 16.6025 161.619 13.6364 158.468 10.6037C152.845 5.2312 145.968 1.96168 137.773 0.779441C133.802 0.205285 133.011 0.0352743 112.693 0H85.0277Z" fill="url(#paint2_radial_66_14)"/>
<path d="M85.0277 0C49.541 0 39.1625 0.0366231 37.1451 0.203999C29.8627 0.80951 25.3311 1.95647 20.3941 4.41507C16.5895 6.30492 13.5888 8.49546 10.6275 11.5662C5.2343 17.1662 1.96568 24.0557 0.782412 32.2452C0.207164 36.2209 0.0397862 37.0317 0.00579695 57.3393C-0.00724619 64.1085 0.00579695 73.0172 0.00579695 84.9666C0.00579695 120.434 0.0449904 130.805 0.215001 132.819C0.803356 139.907 1.91466 144.367 4.26808 149.245C8.76571 158.583 17.3556 165.593 27.4752 168.208C30.9792 169.111 34.8492 169.608 39.8175 169.843C41.9226 169.935 63.3777 170 84.8459 170C106.314 170 127.782 169.974 129.835 169.869C135.588 169.598 138.928 169.15 142.622 168.195C152.807 165.566 161.24 158.661 165.829 149.193C168.137 144.432 169.307 139.803 169.837 133.085C169.952 131.62 170 108.266 170 84.9444C170 61.6184 169.948 38.3081 169.833 36.8434C169.297 30.0167 168.126 25.4263 165.744 20.5743C163.79 16.6025 161.619 13.6364 158.468 10.6037C152.845 5.2312 145.968 1.96168 137.773 0.779441C133.802 0.205285 133.011 0.0352743 112.693 0H85.0277Z" fill="url(#paint3_radial_66_14)"/>
<path d="M85.0348 21.8281C67.8688 21.8281 65.7145 21.9031 58.9723 22.2097C52.2434 22.5176 47.6503 23.5821 43.6314 25.1441C39.4742 26.7573 35.9477 28.9152 32.4345 32.4272C28.9186 35.9379 26.759 39.4617 25.1393 43.6145C23.5723 47.6318 22.5056 52.2227 22.2028 58.944C21.9013 65.6811 21.8223 67.8352 21.8223 84.9884C21.8223 102.142 21.8987 104.288 22.2041 111.025C22.5136 117.749 23.5789 122.339 25.1406 126.355C26.7564 130.509 28.9159 134.032 32.4305 137.543C35.9425 141.056 39.4689 143.22 43.6235 144.833C47.645 146.395 52.2395 147.459 58.967 147.767C65.7092 148.074 67.8621 148.149 85.0269 148.149C102.194 148.149 104.342 148.074 111.084 147.767C117.813 147.459 122.411 146.395 126.433 144.833C130.589 143.22 134.11 141.056 137.622 137.543C141.138 134.032 143.297 130.509 144.917 126.356C146.471 122.339 147.538 117.748 147.854 111.026C148.156 104.289 148.235 102.142 148.235 84.9884C148.235 67.8351 148.156 65.6825 147.854 58.9453C147.538 52.2214 146.471 47.6318 144.917 43.6158C143.297 39.4617 141.138 35.9379 137.622 32.4272C134.106 28.9139 130.59 26.7559 126.429 25.144C122.399 23.5821 117.804 22.5176 111.075 22.2097C104.333 21.9031 102.186 21.8281 85.015 21.8281H85.0348ZM79.3645 33.2102C81.0475 33.2075 82.9252 33.2102 85.0348 33.2102C101.911 33.2102 103.911 33.2707 110.576 33.5733C116.738 33.8549 120.083 34.8839 122.311 35.7484C125.261 36.8932 127.364 38.2617 129.575 40.4722C131.787 42.6829 133.157 44.7882 134.305 47.7357C135.17 49.9594 136.201 53.3017 136.481 59.4599C136.784 66.118 136.85 68.1181 136.85 84.974C136.85 101.83 136.784 103.83 136.481 110.488C136.2 116.646 135.17 119.988 134.305 122.212C133.159 125.16 131.787 127.259 129.575 129.468C127.363 131.678 125.262 133.047 122.311 134.192C120.086 135.06 116.738 136.086 110.576 136.368C103.913 136.671 101.911 136.736 85.0348 136.736C68.1571 136.736 66.1569 136.671 59.4938 136.368C53.3311 136.084 49.9864 135.055 47.757 134.19C44.8073 133.046 42.7004 131.677 40.4882 129.466C38.2759 127.256 36.9064 125.156 35.7581 122.207C34.893 119.983 33.8619 116.641 33.5815 110.483C33.2786 103.825 33.218 101.825 33.218 84.9582C33.218 68.0918 33.2786 66.1022 33.5815 59.4441C33.8633 53.2859 34.893 49.9437 35.7581 47.7173C36.9037 44.7698 38.2759 42.6645 40.4882 40.4539C42.7004 38.2432 44.8073 36.8748 47.757 35.7274C49.9851 34.8589 53.3311 33.8326 59.4938 33.5496C65.3246 33.2864 67.5843 33.2075 79.3646 33.1943L79.3645 33.2102ZM118.774 43.6974C114.587 43.6974 111.189 47.0883 111.189 51.274C111.189 55.4584 114.587 58.8533 118.774 58.8533C122.962 58.8533 126.359 55.4584 126.359 51.274C126.359 47.0896 122.962 43.6948 118.774 43.6948L118.774 43.6974ZM85.0348 52.553C67.1089 52.553 52.5752 67.0759 52.5752 84.9884C52.5752 102.901 67.1089 117.417 85.0348 117.417C102.961 117.417 117.489 102.901 117.489 84.9884C117.489 67.0759 102.959 52.553 85.0335 52.553H85.0348ZM85.0348 63.935C96.6701 63.935 106.104 73.3604 106.104 84.9884C106.104 96.6152 96.6701 106.042 85.0348 106.042C73.3981 106.042 63.9657 96.6152 63.9657 84.9884C63.9657 73.3604 73.3981 63.935 85.0348 63.935Z" fill="white"/>
<path d="M221.268 27.5036C210.822 31.8797 199.338 44.2269 195.711 59.7364C191.117 79.3823 210.232 87.6911 211.8 84.9705C213.645 81.7696 208.375 80.6872 207.29 70.4936C205.888 57.3276 212.009 42.6162 219.713 36.1612C221.144 34.962 221.076 36.6311 221.076 39.7186C221.076 45.2398 220.771 94.8033 220.771 105.147C220.771 119.144 220.193 123.564 219.154 127.931C218.103 132.357 216.411 135.347 217.692 136.499C219.124 137.788 225.238 134.723 228.778 129.783C233.021 123.859 234.507 116.745 234.774 109.018C235.096 99.7042 235.082 84.9249 235.096 76.495C235.108 68.7634 235.226 46.1237 234.96 32.5137C234.895 29.1753 225.637 25.673 221.268 27.5036Z" fill="white"/>
<path d="M592.211 93.0082C591.875 100.284 590.264 105.972 588.265 109.984C584.395 117.751 576.364 120.162 572.955 108.998C571.097 102.912 571.01 92.7479 572.346 84.2552C573.706 75.6036 577.503 69.0696 583.79 69.6589C589.992 70.2414 592.894 78.2324 592.211 93.0082ZM487.662 138.154C487.578 150.244 485.675 160.845 481.594 163.924C475.807 168.289 468.028 165.015 469.639 156.192C471.064 148.385 477.804 140.412 487.678 130.67C487.678 130.67 487.699 132.892 487.662 138.154ZM486.081 92.9369C485.727 99.5646 484.009 106.222 482.135 109.984C478.266 117.751 470.177 120.179 466.825 108.998C464.533 101.358 465.082 91.4713 466.216 85.2414C467.687 77.1585 471.254 69.6598 477.66 69.6598C483.888 69.6598 486.959 76.4928 486.081 92.9369ZM425.517 92.8364C425.137 99.8549 423.768 105.722 421.57 109.984C417.594 117.698 409.729 120.143 406.26 108.998C403.759 100.961 404.611 90.0024 405.651 84.0826C407.195 75.2978 411.06 69.0696 417.095 69.6598C423.294 70.2654 426.308 78.2324 425.517 92.8364ZM703.07 101.034C701.554 101.034 700.863 102.597 700.291 105.226C698.306 114.369 696.22 116.432 693.531 116.432C690.526 116.432 687.826 111.906 687.132 102.844C686.586 95.7177 686.674 82.5998 687.371 69.5507C687.514 66.8696 686.774 64.2168 679.583 61.6044C676.489 60.4807 671.991 58.8262 669.751 64.2323C663.423 79.5055 660.947 91.6311 660.365 96.5561C660.335 96.8113 660.022 96.8637 659.967 96.2675C659.596 92.3227 658.766 85.153 658.663 70.0911C658.643 67.1522 658.021 64.6506 654.777 62.6026C652.672 61.2737 646.281 58.9233 643.979 61.7195C641.985 64.0063 639.676 70.1606 637.277 77.4558C635.327 83.385 633.969 87.396 633.969 87.396C633.969 87.396 633.994 71.3977 634.018 65.3293C634.028 63.0399 632.458 62.277 631.984 62.1387C629.853 61.5211 625.654 60.4876 623.871 60.4876C621.672 60.4876 621.133 61.7161 621.133 63.5072C621.133 63.7426 620.786 84.5705 620.786 99.135C620.786 99.7682 620.787 100.458 620.79 101.192C619.573 107.885 615.629 116.973 611.338 116.973C607.043 116.973 605.017 113.174 605.017 95.8105C605.017 85.6821 605.321 81.2769 605.47 73.9508C605.557 69.7311 605.724 66.4907 605.715 65.7554C605.683 63.5003 601.784 62.3638 599.97 61.9437C598.147 61.5211 596.563 61.3561 595.325 61.4266C593.575 61.5262 592.336 62.6739 592.336 64.2537C592.336 65.1016 592.345 66.7115 592.345 66.7115C590.09 63.1679 586.463 60.7015 584.05 59.9868C577.551 58.0565 570.768 59.7677 565.653 66.9254C561.587 72.6133 559.136 79.0553 558.171 88.3109C557.466 95.0777 557.696 101.939 558.949 107.742C557.435 114.29 554.623 116.973 551.544 116.973C547.075 116.973 543.834 109.677 544.211 97.0595C544.459 88.761 546.119 82.9366 547.935 74.5109C548.709 70.9192 548.08 69.0387 546.503 67.2364C545.056 65.5836 541.974 64.7391 537.543 65.7777C534.386 66.5182 529.874 67.3146 525.745 67.9262C525.745 67.9262 525.994 66.9323 526.199 65.1798C527.272 55.9896 517.286 56.7352 514.1 59.6707C512.198 61.4231 510.903 63.49 510.412 67.2063C509.632 73.1038 514.442 75.8854 514.442 75.8854C512.864 83.1101 508.996 92.546 505.002 99.3687C502.863 103.024 501.227 105.733 499.114 108.612C499.106 107.54 499.1 106.467 499.097 105.4C499.049 90.2128 499.251 78.2607 499.34 73.9517C499.427 69.732 499.596 66.5775 499.587 65.8421C499.563 64.1936 498.6 63.5699 496.596 62.7813C494.825 62.0838 492.731 61.601 490.558 61.4326C487.816 61.2195 486.164 62.6731 486.207 64.3929C486.215 64.7176 486.215 66.7115 486.215 66.7115C483.96 63.1679 480.333 60.7015 477.92 59.9868C471.421 58.0573 464.638 59.7677 459.523 66.9254C455.458 72.6133 452.795 80.5948 452.041 88.2404C451.338 95.3663 451.468 101.421 452.426 106.523C451.392 111.631 448.421 116.973 445.061 116.973C440.766 116.973 438.322 113.174 438.322 95.8105C438.322 85.6821 438.626 81.2769 438.775 73.9517C438.862 69.732 439.03 66.4907 439.02 65.7562C438.989 63.5012 435.089 62.3647 433.275 61.9437C431.376 61.5047 429.737 61.3432 428.479 61.4369C426.818 61.5597 425.651 63.0468 425.651 64.1558V66.7115C423.396 63.1679 419.769 60.7015 417.356 59.9868C410.856 58.0573 404.112 59.7952 398.958 66.9254C395.597 71.5746 392.877 76.729 391.476 88.139C391.072 91.4361 390.893 94.5245 390.916 97.41C389.576 105.606 383.657 115.052 378.816 115.052C375.982 115.052 373.284 109.556 373.284 97.8447C373.284 82.2442 374.25 60.0332 374.413 57.8924C374.413 57.8924 380.53 57.7884 381.715 57.7747C384.766 57.7412 387.53 57.8134 391.594 57.6055C393.633 57.5015 395.597 50.1858 393.493 49.2803C392.539 48.8705 385.8 48.5115 383.128 48.4548C380.882 48.4041 374.628 47.941 374.628 47.941C374.628 47.941 375.189 33.1978 375.319 31.6404C375.43 30.3423 373.751 29.674 372.788 29.2685C370.446 28.278 368.351 27.8038 365.867 27.2918C362.436 26.5839 360.879 27.2763 360.575 30.1722C360.117 34.5672 359.88 47.4402 359.88 47.4402C357.362 47.4402 348.761 46.948 346.243 46.948C343.903 46.948 341.377 57.0119 344.612 57.1356C348.334 57.2799 354.821 57.4053 359.122 57.5342C359.122 57.5342 358.93 80.112 358.93 87.0833C358.93 87.8246 358.934 88.5385 358.938 89.2318C356.571 101.567 348.235 108.231 348.235 108.231C350.025 100.07 346.368 93.9411 339.781 88.7533C337.354 86.8419 332.563 83.2226 327.202 79.2564C327.202 79.2564 330.307 76.1973 333.06 70.0404C335.011 65.6789 335.095 60.6895 330.307 59.589C322.395 57.7695 315.871 63.5802 313.926 69.7835C312.418 74.59 313.222 78.1551 316.176 81.8593C316.391 82.1299 316.625 82.4065 316.866 82.6849C315.08 86.1271 312.627 90.7618 310.549 94.3561C304.781 104.335 300.424 112.228 297.131 112.228C294.499 112.228 294.534 104.214 294.534 96.7108C294.534 90.2429 295.012 80.5183 295.393 70.4501C295.519 67.1204 293.855 65.2236 291.063 63.5055C289.368 62.4617 285.748 60.4094 283.652 60.4094C280.515 60.4094 271.463 60.8364 262.91 85.5765C261.832 88.6949 259.715 94.3767 259.715 94.3767L259.898 64.6257C259.898 63.9282 259.526 63.2538 258.675 62.7925C257.234 62.0099 253.384 60.4094 249.962 60.4094C248.331 60.4094 247.517 61.168 247.517 62.6799L247.219 109.226C247.219 112.763 247.311 116.888 247.66 118.692C248.009 120.499 248.573 121.969 249.272 122.843C249.97 123.716 250.778 124.382 252.109 124.657C253.347 124.912 260.132 125.783 260.484 123.19C260.907 120.083 260.923 116.723 264.486 104.189C270.032 84.6753 277.262 75.1544 280.662 71.7731C281.256 71.1821 281.935 71.1468 281.902 72.1141C281.757 76.3923 281.247 87.0833 280.903 96.1644C279.982 120.469 284.404 124.974 290.722 124.974C295.556 124.974 302.37 120.171 309.675 108.013C314.229 100.436 318.65 93.0065 321.827 87.652C324.041 89.7017 326.525 91.9069 329.008 94.2633C334.778 99.7389 336.672 104.942 335.415 109.878C334.454 113.652 330.834 117.541 324.391 113.761C322.513 112.658 321.711 111.806 319.823 110.563C318.809 109.896 317.26 109.695 316.331 110.396C313.919 112.214 312.539 114.528 311.751 117.392C310.985 120.179 313.776 121.652 316.669 122.94C319.161 124.049 324.515 125.055 327.93 125.169C341.235 125.614 351.894 118.745 359.313 101.026C360.641 116.329 366.294 124.988 376.115 124.988C382.681 124.988 389.264 116.501 392.142 108.152C392.969 111.555 394.192 114.515 395.772 117.018C403.339 129.008 418.02 126.427 425.394 116.246C427.674 113.1 428.021 111.969 428.021 111.969C429.096 121.583 436.838 124.942 441.271 124.942C446.236 124.942 451.362 122.595 454.954 114.507C455.375 115.385 455.835 116.223 456.336 117.018C463.904 129.008 478.584 126.427 485.959 116.246C486.306 115.768 486.608 115.335 486.872 114.946L487.088 121.261C487.088 121.261 482.881 125.12 480.299 127.487C468.919 137.917 460.274 145.828 459.639 155.041C458.829 166.788 468.35 171.153 475.565 171.726C483.212 172.333 489.773 168.105 493.799 162.187C497.343 156.979 499.662 145.769 499.492 134.698C499.424 130.264 499.313 124.627 499.225 118.584C503.22 113.945 507.72 108.081 511.864 101.219C516.38 93.7401 521.22 83.696 523.699 75.8794C523.699 75.8794 527.904 75.9155 532.392 75.6217C533.827 75.528 534.239 75.821 533.974 76.8733C533.654 78.1447 528.304 98.7777 533.186 112.523C536.528 121.932 544.061 124.959 548.527 124.959C553.756 124.959 558.757 121.011 561.437 115.148C561.76 115.802 562.098 116.434 562.466 117.018C570.034 129.008 584.663 126.412 592.089 116.246C593.765 113.952 594.716 111.969 594.716 111.969C596.309 121.919 604.047 124.993 608.479 124.993C613.095 124.993 617.476 123.1 621.031 114.689C621.18 118.393 621.413 121.421 621.783 122.375C622.008 122.959 623.32 123.692 624.274 124.046C628.497 125.612 632.805 124.872 634.398 124.549C635.502 124.326 636.363 123.44 636.48 121.154C636.79 115.149 636.6 105.06 638.42 97.5612C641.476 84.9777 644.326 80.0965 645.678 77.68C646.435 76.3261 647.289 76.1028 647.32 77.5357C647.384 80.435 647.528 88.9491 648.712 100.388C649.581 108.801 650.743 113.774 651.635 115.348C654.182 119.849 657.328 120.062 659.89 120.062C661.52 120.062 664.927 119.612 664.622 116.747C664.474 115.352 664.734 106.724 667.747 94.3269C669.714 86.2311 672.994 78.917 674.177 76.2419C674.613 75.2557 674.816 76.0332 674.809 76.1844C674.56 81.7597 674.001 99.9958 676.272 109.969C679.351 123.481 688.258 124.993 691.362 124.993C697.988 124.993 703.406 119.953 705.232 106.69C705.672 103.499 705.021 101.034 703.07 101.034Z" fill="white"/>
<defs>
<radialGradient id="paint0_radial_66_14" cx="0" cy="0" r="1" gradientUnits="userSpaceOnUse" gradientTransform="translate(164.511 79.6811) rotate(164.25) scale(108.62 78.2557)">
<stop stop-color="#FF005F"/>
<stop offset="1" stop-color="#FC01D8"/>
</radialGradient>
<radialGradient id="paint1_radial_66_14" cx="0" cy="0" r="1" gradientUnits="userSpaceOnUse" gradientTransform="translate(45.1549 183.093) rotate(-90) scale(135.697 143.972)">
<stop stop-color="#FFCC00"/>
<stop offset="0.1242" stop-color="#FFCC00"/>
<stop offset="0.5672" stop-color="#FE4A05"/>
<stop offset="0.6942" stop-color="#FF0F3F"/>
<stop offset="1" stop-color="#FE0657" stop-opacity="0"/>
</radialGradient>
<radialGradient id="paint2_radial_66_14" cx="0" cy="0" r="1" gradientUnits="userSpaceOnUse" gradientTransform="translate(89.2958 167.602) rotate(-59.8703) scale(56.112 73.0515)">
<stop stop-color="#FFCC00"/>
<stop offset="1" stop-color="#FFCC00" stop-opacity="0"/>
</radialGradient>
<radialGradient id="paint3_radial_66_14" cx="0" cy="0" r="1" gradientUnits="userSpaceOnUse" gradientTransform="translate(23.0653 6.92235) rotate(164.274) scale(107.415 36.5964)">
<stop stop-color="#780CFF"/>
<stop offset="1" stop-color="#820BFF" stop-opacity="0"/>
</radialGradient>
</defs>
</svg>
