<svg width="639" height="211" viewBox="0 0 639 211" fill="none" xmlns="http://www.w3.org/2000/svg">
<path d="M137.87 129.73H113.38C111.51 129.73 110 128.21 110 126.35V35.9304C110 34.0604 111.52 32.5504 113.38 32.5504H137.87C139.74 32.5504 141.25 34.0604 141.25 35.9304V126.35C141.25 128.21 139.74 129.73 137.87 129.73ZM28.8604 128.56L69.4604 47.7704C70.3004 46.1004 69.6304 44.0704 67.9604 43.2304L46.0804 32.2304C44.4104 31.3904 42.3804 32.0604 41.5404 33.7304L0.940418 114.52C0.100418 116.19 0.770418 118.22 2.44042 119.06L24.3204 130.06C25.9904 130.89 28.0204 130.22 28.8604 128.56ZM88.9504 128.24L106.32 40.1804C106.68 38.3504 105.5 36.5804 103.67 36.2104L79.6604 31.3604C77.8304 30.9904 76.0404 32.1804 75.6704 34.0104V34.0204L58.3004 122.08C57.9404 123.91 59.1204 125.68 60.9504 126.05L84.9604 130.9C86.7904 131.27 88.5804 130.08 88.9504 128.25C88.9504 128.25 88.9504 128.25 88.9504 128.24Z" fill="#6C00CB"/>
<mask id="mask0_0_1" style="mask-type:luminance" maskUnits="userSpaceOnUse" x="0" y="31" width="142" height="100">
<path d="M137.87 129.73H113.38C111.51 129.73 110 128.21 110 126.35V35.9304C110 34.0604 111.52 32.5504 113.38 32.5504H137.87C139.74 32.5504 141.25 34.0604 141.25 35.9304V126.35C141.25 128.21 139.74 129.73 137.87 129.73ZM28.8604 128.56L69.4604 47.7704C70.3004 46.1004 69.6304 44.0704 67.9604 43.2304L46.0804 32.2304C44.4104 31.3904 42.3804 32.0604 41.5404 33.7304L0.940418 114.52C0.100418 116.19 0.770418 118.22 2.44042 119.06L24.3204 130.06C25.9904 130.89 28.0204 130.22 28.8604 128.56ZM88.9504 128.24L106.32 40.1804C106.68 38.3504 105.5 36.5804 103.67 36.2104L79.6604 31.3604C77.8304 30.9904 76.0404 32.1804 75.6704 34.0104V34.0204L58.3004 122.08C57.9404 123.91 59.1204 125.68 60.9504 126.05L84.9604 130.9C86.7904 131.27 88.5804 130.08 88.9504 128.25C88.9504 128.25 88.9504 128.25 88.9504 128.24Z" fill="white"/>
</mask>
<g mask="url(#mask0_0_1)">
<path d="M149.79 22.75H-7.99023V139.52H149.79V22.75Z" fill="#6C00CB"/>
<mask id="mask1_0_1" style="mask-type:luminance" maskUnits="userSpaceOnUse" x="-8" y="22" width="158" height="118">
<path d="M149.79 22.75H-7.99023V139.52H149.79V22.75Z" fill="white"/>
</mask>
<g mask="url(#mask1_0_1)">
<path d="M149.79 22.75H-7.99023V139.52H149.79V22.75Z" fill="#6C00CB"/>
<mask id="mask2_0_1" style="mask-type:luminance" maskUnits="userSpaceOnUse" x="-8" y="22" width="158" height="118">
<path d="M149.79 22.75H-7.99023V139.52H149.79V22.75Z" fill="white"/>
</mask>
<g mask="url(#mask2_0_1)">
<path d="M149.849 21.9492H-8.4707V140.079H149.849V21.9492Z" fill="#6C00CB"/>
</g>
</g>
</g>
<path d="M219.09 68.9819V126.442C219.09 128.312 217.58 129.822 215.71 129.822H190.88C189.01 129.822 187.5 128.302 187.5 126.442V35.7019C187.5 33.8319 189.02 32.3219 190.88 32.3219H215.71C217.58 32.3219 219.09 33.8319 219.09 35.7019V42.8519C225.33 35.0519 234.11 30.1719 246.39 30.1719C257.9 30.1719 267.84 34.8519 273.89 43.6319C281.3 34.8519 291.83 30.1719 304.7 30.1719C326.54 30.1719 341.56 43.0419 341.56 67.6119V126.432C341.56 128.302 340.05 129.812 338.18 129.812H313.35C311.48 129.812 309.97 128.302 309.97 126.432V74.2319C309.97 63.5019 303.92 58.2419 295.73 58.2419C288.9 58.2419 283.44 62.5319 280.32 68.9719V126.432C280.32 128.302 278.81 129.812 276.94 129.812H252.12C250.25 129.812 248.74 128.292 248.74 126.432V74.2319C248.74 63.5019 242.7 58.2419 234.5 58.2419C227.48 58.2619 222.22 62.5519 219.09 68.9819Z" fill="white"/>
<path d="M383.08 131.781C364.75 131.781 349.34 119.691 349.34 100.971C349.34 83.8106 360.65 75.8106 381.71 70.3506L408.62 63.3306C407.84 56.9006 402.77 53.7706 394.58 53.7706C387.32 53.7706 382.1 56.5506 379.7 62.1006C379.07 63.6606 377.41 64.5306 375.77 64.1706L354.44 59.1006C352.61 58.6706 351.48 56.8406 351.92 55.0106C351.95 54.8806 351.99 54.7606 352.03 54.6406C358.16 38.0706 375.17 29.3906 395.75 29.3906C423.44 29.3906 439.43 42.4606 439.43 65.4706V126.441C439.43 128.311 437.92 129.821 436.05 129.821H412.51C410.67 129.821 409.17 128.351 409.13 126.511L409.01 121.431L408.82 121.621C400.83 128.461 393.03 131.781 383.08 131.781ZM391.07 107.401C395.17 107.401 398.28 106.231 402.96 103.501L408.42 100.191L408.61 84.3906L394.57 88.2906C385.01 91.0206 380.73 93.3606 380.73 98.8206C380.74 104.871 386 107.401 391.07 107.401Z" fill="white"/>
<path d="M489.88 83.8098L480.32 92.5898V126.45C480.32 128.32 478.81 129.83 476.94 129.83H452.7C450.83 129.83 449.32 128.32 449.32 126.45V3.71985C449.32 1.84985 450.83 0.339844 452.7 0.339844H476.94C478.81 0.339844 480.32 1.84985 480.32 3.71985V59.2398L508.6 33.2198C509.22 32.6398 510.04 32.3298 510.89 32.3298H540.82C542.69 32.3298 544.2 33.8399 544.2 35.7099C544.2 36.6599 543.8 37.5699 543.1 38.2099L514.06 64.6999L547.18 124.82C548.08 126.46 547.49 128.52 545.85 129.42C545.35 129.7 544.79 129.84 544.22 129.84H515.92C514.66 129.84 513.5 129.14 512.92 128.02L489.88 83.8098Z" fill="white"/>
<path d="M592.751 131.968C565.641 131.968 540.881 114.998 540.881 80.6781C540.881 48.3081 564.671 29.5781 590.801 29.5781C617.911 29.5781 637.601 48.4981 638.381 78.3281C638.471 81.4781 638.521 83.6781 638.551 85.2381C638.581 87.0981 637.091 88.6281 635.221 88.6581C635.201 88.6581 635.181 88.6581 635.161 88.6581H572.071C573.051 100.358 582.411 107.768 594.301 107.768C602.261 107.948 609.811 104.268 614.561 97.8881C615.641 96.4781 617.631 96.1481 619.101 97.1381L634.861 107.688C636.421 108.748 636.831 110.878 635.771 112.438L635.761 112.448C627.331 124.898 613.411 131.968 592.751 131.968ZM572.671 69.5681H606.801C606.611 58.4481 598.411 53.5781 589.831 53.5781C581.831 53.5781 573.641 58.2581 572.671 69.5681Z" fill="white"/>
<path d="M193.45 176.421V199.561H188.98V176.421H184.73V172.501H188.98V168.191C188.78 165.841 189.58 163.511 191.19 161.781C192.74 160.361 194.78 159.611 196.88 159.681C199.52 159.481 202.1 160.501 203.9 162.441L200.97 165.311C200 164.261 198.63 163.681 197.21 163.711C195.28 163.711 193.45 164.701 193.45 167.961V172.491H199.97V176.411L193.45 176.421Z" fill="white"/>
<path d="M200.641 185.92C200.641 177.52 206.281 171.84 213.621 171.84C221.081 171.84 226.611 177.53 226.611 185.92C226.611 194.21 221.091 200.12 213.621 200.12C206.111 200.11 200.641 194.2 200.641 185.92ZM221.961 185.92C221.961 179.73 218.371 175.98 213.621 175.98C208.821 175.98 205.281 179.63 205.281 185.92C205.281 192.11 208.821 195.97 213.621 195.97C218.491 195.97 221.961 192.16 221.961 185.92Z" fill="white"/>
<path d="M235.81 180.782V199.562H231.27V172.502H235.8V175.702C236.9 173.532 239.11 172.152 241.54 172.112C243.13 172.072 244.7 172.532 246.01 173.442L244.08 177.582C243.13 176.862 241.96 176.472 240.77 176.482C238.38 176.742 236.41 178.452 235.81 180.782Z" fill="white"/>
<path d="M253.591 181.83V199.56H249.061V172.5H253.591V175.7C255.291 173.21 258.151 171.77 261.161 171.89C264.571 171.66 267.781 173.52 269.281 176.58C271.211 173.56 274.581 171.77 278.171 171.89C283.861 171.89 287.611 175.54 287.611 183V199.58H283.081V183.4C283.081 178.65 281.201 176.05 277.341 176.05C273.971 176.15 271.151 178.63 270.601 181.96V199.58H266.071V183.4C266.071 178.65 264.191 176.05 260.331 176.05C256.991 176.13 254.181 178.55 253.591 181.83Z" fill="white"/>
<path d="M305.141 200.062C297.791 200.062 292.051 194.652 292.051 185.752C292.051 177.302 297.521 171.832 304.751 171.832C311.871 171.832 316.291 176.582 316.791 184.152C316.841 184.982 316.901 185.922 316.901 186.632H296.631C296.801 192.542 300.661 196.132 305.301 196.132C308.551 196.162 311.571 194.482 313.251 191.712L316.561 194.092C314.101 197.982 309.741 200.252 305.141 200.062ZM296.741 182.822H312.211C312.061 178.802 308.711 175.652 304.691 175.752C300.561 175.562 297.031 178.702 296.741 182.822Z" fill="white"/>
<path d="M326.05 180.782V199.562H321.51V172.502H326.04V175.702C327.14 173.532 329.35 172.152 331.78 172.112C333.37 172.072 334.94 172.532 336.25 173.442L334.32 177.582C333.37 176.862 332.2 176.472 331.01 176.482C328.62 176.742 326.65 178.452 326.05 180.782Z" fill="white"/>
<path d="M339.301 159.902H343.831V199.562H339.301V159.902Z" fill="white"/>
<path d="M350.031 210.05L356.601 195.03L346.881 172.5H351.691L359.041 189.95L366.161 172.5H370.851L354.661 210.06H350.031V210.05Z" fill="white"/>
<path d="M386.99 160.891H391.79V199.551H386.99V160.891Z" fill="white"/>
<path d="M403.421 181.89V199.56H398.891V172.5H403.421V176.15C405.141 173.38 408.221 171.75 411.481 171.9C417.501 171.9 421.481 175.55 421.481 183.01V199.59H416.951V183.41C416.951 178.49 414.691 176.06 410.651 176.06C407.201 176.14 404.241 178.53 403.421 181.89Z" fill="white"/>
<path d="M435.741 200.062C431.601 200.062 428.451 197.902 428.451 192.382V176.422H424.201V172.502H428.451V164.492H432.921V172.502H441.421V176.422H432.921V192.112C432.921 195.092 434.461 196.032 436.181 196.032C437.451 196.022 438.661 195.462 439.491 194.492L442.141 197.252C440.551 199.112 438.191 200.142 435.741 200.062Z" fill="white"/>
<path d="M455.59 200.062C448.24 200.062 442.5 194.652 442.5 185.752C442.5 177.302 447.97 171.832 455.2 171.832C462.32 171.832 466.74 176.582 467.24 184.152C467.29 184.982 467.35 185.922 467.35 186.632H447.08C447.25 192.542 451.11 196.132 455.75 196.132C459 196.162 462.02 194.482 463.7 191.712L467.02 194.092C464.55 197.982 460.2 200.252 455.59 200.062ZM447.2 182.822H462.67C462.52 178.812 459.17 175.662 455.16 175.752C451.02 175.562 447.49 178.702 447.2 182.822Z" fill="white"/>
<path d="M481.931 210.663H479.721C473.371 210.663 468.781 208.173 468.781 203.373C468.781 200.173 471.101 197.963 474.581 196.913C473.341 196.293 472.551 195.043 472.531 193.653C472.591 191.883 473.701 190.313 475.351 189.673C472.241 188.093 470.311 184.873 470.381 181.383C470.381 175.583 475.181 171.883 480.871 171.883C483.251 171.883 484.521 172.493 488.441 172.493H493.961V176.193H489.431C490.571 177.683 491.191 179.513 491.201 181.383C491.201 187.183 486.561 190.943 480.871 190.943C477.611 190.943 476.891 192.383 476.891 193.263C476.891 194.643 478.111 195.253 480.201 195.363L484.731 195.583C490.421 195.863 493.011 198.953 493.011 202.873C493.031 207.513 488.841 210.663 481.931 210.663ZM481.931 206.853C486.241 206.853 488.561 205.363 488.561 203.043C488.561 200.723 486.681 199.283 482.871 199.283H480.001C475.741 199.393 473.261 200.443 473.261 203.153C473.261 205.643 475.911 206.853 479.831 206.853H481.931ZM480.881 187.133C484.041 186.943 486.441 184.223 486.251 181.063C486.061 177.903 483.341 175.503 480.181 175.693C477.171 175.873 474.821 178.363 474.801 181.383C474.741 184.503 477.231 187.083 480.361 187.143C480.541 187.153 480.711 187.143 480.881 187.133Z" fill="white"/>
<path d="M502.04 180.782V199.562H497.51V172.502H502.04V175.702C503.14 173.532 505.35 172.152 507.78 172.112C509.37 172.072 510.94 172.532 512.25 173.442L510.32 177.582C509.37 176.862 508.2 176.472 507 176.482C504.62 176.742 502.64 178.452 502.04 180.782Z" fill="white"/>
<path d="M512.24 185.92C512.24 177.52 517.88 171.84 525.22 171.84C532.68 171.84 538.2 177.53 538.2 185.92C538.2 194.21 532.68 200.12 525.22 200.12C517.71 200.11 512.24 194.2 512.24 185.92ZM533.56 185.92C533.56 179.73 529.97 175.98 525.22 175.98C520.41 175.98 516.88 179.63 516.88 185.92C516.88 192.11 520.41 195.97 525.22 195.97C530.08 195.97 533.56 192.16 533.56 185.92Z" fill="white"/>
<path d="M547.401 181.83V199.56H542.871V172.5H547.401V175.7C549.101 173.21 551.961 171.77 554.971 171.89C558.381 171.66 561.591 173.52 563.091 176.58C565.021 173.56 568.391 171.77 571.981 171.89C577.671 171.89 581.421 175.54 581.421 183V199.58H576.891V183.4C576.891 178.65 575.011 176.05 571.141 176.05C567.771 176.15 564.951 178.63 564.401 181.96V199.58H559.871V183.4C559.871 178.65 557.991 176.05 554.121 176.05C550.801 176.13 547.991 178.55 547.401 181.83Z" fill="white"/>
<path d="M594.921 200C590.451 200 585.861 197.07 585.861 191.71C585.861 187.18 588.951 184.7 595.801 182.87L603.201 180.94C602.921 177.74 600.331 175.97 596.901 175.97C593.951 175.84 591.191 177.43 589.831 180.06L586.071 178.01C588.321 173.98 592.671 171.58 597.281 171.83C603.081 171.83 607.671 174.76 607.671 181.55V199.56H603.251V196.58L602.701 197.02C600.551 198.91 597.791 199.98 594.921 200ZM602.051 193.37L603.211 192.49V184.82L597.361 186.36C592.551 187.63 590.401 188.79 590.401 191.61C590.541 194.23 592.781 196.24 595.401 196.09C595.451 196.09 595.491 196.08 595.541 196.08C597.961 196 600.281 195.04 602.051 193.37Z" fill="white"/>
<path d="M622.04 200.062C617.9 200.062 614.75 197.902 614.75 192.382V176.422H610.5V172.502H614.75V164.492H619.22V172.502H627.73V176.422H619.22V192.112C619.22 195.092 620.77 196.032 622.48 196.032C623.75 196.022 624.96 195.462 625.79 194.492L628.44 197.252C626.85 199.112 624.49 200.142 622.04 200.062Z" fill="white"/>
</svg>
