<svg width="109" height="36" viewBox="0 0 109 36" fill="none" xmlns="http://www.w3.org/2000/svg">
<path d="M6.54744 29.4417V35.8212L12.5126 32.4297C14.1753 32.909 15.943 33.1677 17.7744 33.1677C27.5914 33.1677 35.5487 25.7423 35.5487 16.5839C35.5487 7.4246 27.5914 0 17.7744 0C7.95773 0 0 7.42499 0 16.5839C0.000393169 21.7701 2.55206 26.4009 6.54744 29.4417Z" fill="url(#paint0_linear_69_134)"/>
<path d="M15.8765 12.043L6.29102 22.1922L15.0146 17.4058L19.5726 22.1922L29.1038 12.043L20.4773 16.7453L15.8765 12.043Z" fill="white"/>
<path d="M76.9897 9.67475C76.4248 9.67475 76.0175 9.86015 75.6046 10.0487V14.3196C76.0001 14.3571 76.2269 14.3571 76.6022 14.3571C77.9581 14.3571 78.1442 13.7362 78.1442 12.869V10.8293C78.1442 10.1889 77.9317 9.67475 76.9897 9.67475ZM67.9843 9.44169C67.0437 9.44169 66.8287 9.95825 66.8287 10.5979V10.9573H69.1388V10.5979C69.1384 9.95825 68.9238 9.44169 67.9843 9.44169ZM50.5383 13.8872C50.5383 14.393 50.777 14.6559 51.3039 14.6559C51.8692 14.6559 52.2038 14.4716 52.6164 14.2823V13.2691H51.3801C50.7957 13.2691 50.5383 13.3779 50.5383 13.8872ZM85.7499 9.67475C84.8076 9.67475 84.4809 10.1889 84.4809 10.8293V13.1661C84.4809 13.8082 84.8076 14.3241 85.7499 14.3241C86.6898 14.3241 87.0188 13.8082 87.0188 13.1661V10.8293C87.0188 10.1889 86.6898 9.67475 85.7499 9.67475ZM45.9203 16.5072H43.1501V9.80172H41.7656V7.49097H43.1501V6.10375C43.1501 4.21877 43.9313 3.09766 46.152 3.09766H48.0008V5.40875H46.8452C45.9808 5.40875 45.9238 5.73156 45.9238 6.33437L45.9203 7.49097H48.0137L47.7688 9.80172H45.9203V16.5072ZM55.388 16.5242H53.0794L52.9792 15.9402C51.9249 16.5242 50.9839 16.6188 50.3634 16.6188C48.67 16.6188 47.7688 15.4876 47.7688 13.9234C47.7688 12.0777 48.8203 11.4189 50.7018 11.4189H52.6167V11.0199C52.6167 10.0779 52.5089 9.80137 51.0601 9.80137H48.6913L48.9229 7.49062H51.5123C54.6913 7.49062 55.388 8.49485 55.388 11.0383V16.5242ZM63.2393 9.97112C61.8023 9.72484 61.3898 9.67093 60.6986 9.67093C59.4568 9.67093 59.0815 9.94503 59.0815 10.9994V12.9939C59.0815 14.0486 59.4568 14.3237 60.6986 14.3237C61.3898 14.3237 61.8023 14.2688 63.2393 14.0215V16.2752C61.9808 16.5573 61.1609 16.6314 60.468 16.6314C57.4939 16.6314 56.3116 15.0671 56.3116 12.8078V11.1893C56.3116 8.92792 57.4939 7.36087 60.468 7.36087C61.1609 7.36087 61.9808 7.43531 63.2393 7.71881V9.97112ZM71.9087 12.8078H66.8287V12.9939C66.8287 14.0486 67.2044 14.3237 68.4459 14.3237C69.5621 14.3237 70.2432 14.2688 71.6774 14.0215V16.2752C70.2943 16.5573 69.5736 16.6314 68.2163 16.6314C65.2418 16.6314 64.0588 15.0671 64.0588 12.8078V10.9573C64.0588 8.98045 64.9364 7.36087 67.9843 7.36087C71.0321 7.36087 71.9087 8.96132 71.9087 10.9573V12.8078ZM80.9138 12.8506C80.9138 15.0344 80.2897 16.6272 76.5083 16.6272C75.143 16.6272 74.3419 16.5072 72.835 16.2752V3.79161L75.6042 3.32932V7.69585C76.2025 7.47357 76.9772 7.36052 77.6822 7.36052C80.4518 7.36052 80.9134 8.60234 80.9134 10.5976V12.8506H80.9138ZM89.7912 12.8979C89.7912 14.7818 89.0134 16.6091 85.7593 16.6091C82.5034 16.6091 81.711 14.7818 81.711 12.8979V11.079C81.711 9.19403 82.5034 7.36679 85.7593 7.36679C89.0134 7.36679 89.7912 9.19403 89.7912 11.079V12.8979ZM98.6627 12.8979C98.6627 14.7818 97.8838 16.6091 94.6304 16.6091C91.3746 16.6091 90.5822 14.7818 90.5822 12.8979V11.079C90.5822 9.19403 91.3746 7.36679 94.6304 7.36679C97.8842 7.36679 98.6627 9.19403 98.6627 11.079V12.8979ZM107.767 16.5072H104.765L102.226 12.269V16.5072H99.4561V3.79161L102.226 3.32932V11.5149L104.765 7.49097H107.767L104.995 11.8825L107.767 16.5072ZM94.621 9.67475C93.6804 9.67475 93.3538 10.1889 93.3538 10.8293V13.1661C93.3538 13.8082 93.6804 14.3241 94.621 14.3241C95.5606 14.3241 95.8931 13.8082 95.8931 13.1661V10.8293C95.8928 10.1889 95.5606 9.67475 94.621 9.67475Z" fill="white"/>
<path d="M42.7324 19.8398H43.5631L47.5421 29.2317H47.5706L51.5069 19.8398H52.4721V29.9274H51.7765V20.5355H51.7493L47.8701 29.9274H47.2426L43.3206 20.5355H43.4281V29.9274H42.7324V19.8398Z" fill="white"/>
<path d="M54.2109 26.4476V26.4191C54.2109 26.8466 54.3132 27.2556 54.428 27.6456C54.5424 28.0355 54.7341 28.3774 54.9584 28.6721C55.1825 28.967 55.475 29.2001 55.8135 29.3712C56.1519 29.542 56.5505 29.6276 56.9989 29.6276C57.7329 29.6276 58.3173 29.4579 58.7462 29.0728C59.175 28.6877 59.4735 28.1868 59.6356 27.4911H60.1775C60.0158 28.1868 59.6662 28.9803 59.1291 29.4366C58.5921 29.893 57.8814 30.1097 56.9972 30.1097C56.4552 30.1097 55.9822 30.0064 55.578 29.8116C55.1738 29.6168 54.8364 29.3479 54.5654 29.0102C54.2944 28.6728 54.0923 28.272 53.9594 27.8108C53.8262 27.3499 53.7598 26.8525 53.7598 26.3199C53.7598 25.8065 53.8286 25.314 53.9667 24.8437C54.1045 24.3727 54.3111 23.9591 54.5869 23.6025C54.8624 23.246 55.2075 22.9608 55.6211 22.7468C56.0347 22.5329 56.5217 22.4258 57.0831 22.4258C57.5965 22.4258 58.0505 22.5211 58.4449 22.711C58.8394 22.9013 59.1698 23.1604 59.4363 23.4881C59.7024 23.8161 59.9045 24.1967 60.0426 24.629C60.1803 25.0618 60.2492 25.5251 60.2492 26.0194C60.2492 26.0674 60.2468 26.1787 60.2419 26.2406C60.237 26.3029 60.2346 26.4476 60.2346 26.4476H54.2109ZM59.6926 25.7519C59.6735 25.404 59.6067 25.0298 59.4923 24.6736C59.3778 24.317 59.2088 24.0311 58.9848 23.7601C58.7604 23.4891 58.4891 23.287 58.1694 23.1253C57.8498 22.9636 57.4856 22.8898 57.0754 22.8898C56.6368 22.8898 56.2507 22.9764 55.9171 23.143C55.5835 23.3097 55.3021 23.5295 55.0736 23.8008C54.8447 24.0718 54.6683 24.333 54.5445 24.6944C54.4207 25.0559 54.3441 25.4044 54.3156 25.7522L59.6926 25.7519Z" fill="white"/>
<path d="M61.7608 27.4918C61.7796 27.8397 61.8558 28.1347 61.989 28.3962C62.1219 28.6578 62.2955 28.8804 62.5097 29.0658C62.7237 29.2512 62.9734 29.3914 63.2583 29.486C63.5435 29.5813 63.8524 29.6287 64.1853 29.6287C64.4229 29.6287 64.6775 29.6071 64.9482 29.5643C65.2191 29.5215 65.471 29.4433 65.704 29.3292C65.9367 29.2151 66.1294 29.0558 66.2815 28.8512C66.4335 28.647 66.5096 28.3879 66.5096 28.0741C66.5096 27.6654 66.3862 27.3565 66.1388 27.1471C65.8915 26.9381 65.5802 26.7767 65.2045 26.6622C64.8288 26.5481 64.4246 26.4552 63.9923 26.3839C63.5595 26.3126 63.1554 26.2055 62.78 26.0629C62.4043 25.9203 62.093 25.7185 61.8457 25.4569C61.5984 25.1957 61.4749 24.8127 61.4749 24.3087C61.4749 23.9476 61.5556 23.6457 61.7173 23.4029C61.8787 23.1608 62.0857 22.9681 62.3376 22.8255C62.5894 22.6828 62.8725 22.5809 63.186 22.5187C63.4997 22.4571 63.8135 22.4258 64.1272 22.4258C64.5074 22.4258 64.864 22.4686 65.1969 22.5541C65.5298 22.6397 65.8174 22.7778 66.0595 22.9677C66.3016 23.1577 66.4922 23.3723 66.63 23.6669C66.7677 23.9619 66.8366 24.3605 66.8366 24.7084H66.2947C66.2947 24.3605 66.2401 24.1188 66.1308 23.8808C66.0216 23.6429 65.8693 23.4648 65.6745 23.317C65.4793 23.1698 65.2487 23.0676 64.9826 22.9963C64.7165 22.9249 64.4313 22.8929 64.1269 22.8929C63.8796 22.8929 63.6302 22.9183 63.3783 22.966C63.1261 23.0136 62.9004 23.0954 62.7011 23.2095C62.5014 23.3232 62.3372 23.4714 62.2089 23.6519C62.0805 23.8328 62.0162 24.0516 62.0162 24.308C62.0162 24.603 62.0875 24.8409 62.2301 25.0214C62.3727 25.2023 62.5602 25.3474 62.7932 25.4562C63.0259 25.5655 63.2875 25.6535 63.5776 25.7202C63.8674 25.7867 64.1599 25.8535 64.4546 25.9196C64.8156 25.9863 65.1555 26.065 65.4741 26.1551C65.7927 26.2458 66.0682 26.369 66.3013 26.5259C66.534 26.6827 66.7173 26.8848 66.8505 27.1318C66.9834 27.3791 67.0502 27.6929 67.0502 28.0731C67.0502 28.4724 66.9598 28.8004 66.7792 29.0571C66.5983 29.3139 66.3705 29.5205 66.0947 29.6774C65.8188 29.8342 65.512 29.9438 65.1746 30.0054C64.8368 30.0673 64.5067 30.0982 64.1832 30.0982C63.7648 30.0982 63.3776 30.0433 63.0211 29.9341C62.6645 29.8248 62.3529 29.6586 62.0868 29.4349C61.8203 29.2112 61.6113 28.9392 61.4592 28.6157C61.3069 28.2926 61.2262 27.8383 61.2168 27.4904H61.7608V27.4918Z" fill="white"/>
<path d="M68.6208 27.4918C68.6395 27.8397 68.7157 28.1347 68.849 28.3962C68.9818 28.6578 69.1554 28.8804 69.3697 29.0658C69.5836 29.2512 69.8334 29.3914 70.1183 29.486C70.4035 29.5813 70.7124 29.6287 71.0453 29.6287C71.2828 29.6287 71.5375 29.6071 71.8081 29.5643C72.0791 29.5215 72.3309 29.4433 72.564 29.3292C72.7967 29.2151 72.9894 29.0558 73.1414 28.8512C73.2934 28.647 73.3696 28.3879 73.3696 28.0741C73.3696 27.6654 73.2461 27.3565 72.9988 27.1471C72.7515 26.9381 72.4401 26.7767 72.0645 26.6622C71.6888 26.5481 71.2846 26.4552 70.8522 26.3839C70.4195 26.3126 70.0153 26.2055 69.64 26.0629C69.2643 25.9203 68.953 25.7185 68.7056 25.4569C68.4583 25.1957 68.3348 24.8127 68.3348 24.3087C68.3348 23.9476 68.4155 23.6457 68.5773 23.4029C68.7387 23.1608 68.9457 22.9681 69.1975 22.8255C69.4493 22.6828 69.7325 22.5809 70.0459 22.5187C70.3597 22.4571 70.6734 22.4258 70.9872 22.4258C71.3674 22.4258 71.7239 22.4686 72.0568 22.5541C72.3897 22.6397 72.6774 22.7778 72.9195 22.9677C73.1616 23.1577 73.3522 23.3723 73.4899 23.6669C73.6291 23.9626 73.6979 24.3612 73.6979 24.7091H73.156C73.156 24.3612 73.1014 24.1195 72.9922 23.8815C72.8829 23.6436 72.7306 23.4655 72.5358 23.3177C72.3406 23.1705 72.11 23.0683 71.8439 22.9969C71.5778 22.9256 71.2926 22.8936 70.9882 22.8936C70.7409 22.8936 70.4915 22.919 70.2396 22.9667C69.9875 23.0143 69.7617 23.0961 69.5624 23.2102C69.3627 23.3239 69.1985 23.4721 69.0702 23.6526C68.9418 23.8335 68.8775 24.0523 68.8775 24.3087C68.8775 24.6037 68.9488 24.8416 69.0914 25.0221C69.234 25.203 69.4215 25.348 69.6546 25.4569C69.8873 25.5661 70.1489 25.6542 70.439 25.7209C70.7287 25.7874 71.0213 25.8542 71.3159 25.9203C71.677 25.987 72.0168 26.0657 72.3354 26.1557C72.6541 26.2465 72.9296 26.3697 73.1626 26.5266C73.3953 26.6834 73.5786 26.8855 73.7119 27.1325C73.8447 27.3798 73.9115 27.6936 73.9115 28.0738C73.9115 28.4731 73.8211 28.8011 73.6406 29.0578C73.4597 29.3145 73.2318 29.5212 72.956 29.6781C72.6801 29.8349 72.3733 29.9445 72.0359 30.0061C71.6982 30.068 71.3681 30.0989 71.0446 30.0989C70.6261 30.0989 70.239 30.044 69.8824 29.9348C69.5259 29.8255 69.2142 29.6593 68.9481 29.4356C68.6816 29.2119 68.4726 28.9399 68.3206 28.6164C68.1682 28.2933 68.0875 27.839 68.0781 27.4911H68.6208V27.4918Z" fill="white"/>
<path d="M75.4294 26.4476V26.4191C75.4294 26.8466 75.4833 27.2556 75.5978 27.6456C75.7122 28.0355 75.8795 28.3774 76.1039 28.6721C76.3279 28.967 76.6083 29.2001 76.9467 29.3712C77.2852 29.542 77.6779 29.6276 78.1259 29.6276C78.8599 29.6276 79.4415 29.4579 79.8704 29.0728C80.2993 28.6877 80.5946 28.1868 80.7567 27.4911H81.2986C81.1369 28.1868 80.7873 28.9803 80.2502 29.4366C79.7132 29.893 79.0025 30.1097 78.1183 30.1097C77.5763 30.1097 77.1033 30.0064 76.6991 29.8116C76.2949 29.6168 75.9574 29.3479 75.6865 29.0102C75.4155 28.6728 75.2134 28.272 75.0805 27.8108C74.9473 27.3499 74.8809 26.8525 74.8809 26.3199C74.8809 25.8065 74.9497 25.314 75.0878 24.8437C75.2256 24.3727 75.4322 23.9591 75.708 23.6025C75.9835 23.246 76.3286 22.9608 76.7422 22.7468C77.1558 22.5329 77.6428 22.4258 78.2042 22.4258C78.7176 22.4258 79.1716 22.5211 79.566 22.711C79.9605 22.9013 80.2909 23.1604 80.5574 23.4881C80.8235 23.8161 81.0256 24.1967 81.1637 24.629C81.3014 25.0618 81.3703 25.5251 81.3703 26.0194C81.3703 26.0674 81.3679 26.1787 81.363 26.2406C81.3581 26.3029 81.3557 26.4476 81.3557 26.4476H75.4294ZM80.8137 25.7519C80.7946 25.404 80.7278 25.0298 80.6134 24.6736C80.4989 24.317 80.3299 24.0311 80.1059 23.7601C79.8815 23.4891 79.6102 23.287 79.2905 23.1253C78.9708 22.9636 78.6067 22.8898 78.1965 22.8898C77.7579 22.8898 77.3718 22.9764 77.0382 23.143C76.7046 23.3097 76.4232 23.5295 76.1947 23.8008C75.9658 24.0718 75.7894 24.333 75.6656 24.6944C75.5418 25.0559 75.4652 25.4044 75.4367 25.7522L80.8137 25.7519Z" fill="white"/>
<path d="M82.7344 22.6232H83.0822V24.0146H83.1956C83.2906 24.0146 83.4262 23.5707 83.6019 23.3565C83.7776 23.1429 83.9821 22.9978 84.2152 22.8458C84.4479 22.6938 84.7021 22.5988 84.978 22.5227C85.2535 22.4468 85.5342 22.418 85.8194 22.418C86.2473 22.418 86.6108 22.4754 86.9106 22.5797C87.2101 22.6848 87.4547 22.8246 87.6449 22.9957C87.8349 23.1669 87.9848 23.3603 88.0944 23.5746C88.2036 23.7885 88.2822 24.0055 88.3295 24.224C88.3772 24.4431 88.3406 24.6546 88.3504 24.8592C88.3598 25.0637 88.2999 25.2421 88.2999 25.3942V29.928H87.9521V25.2943C87.9521 25.1138 87.9055 24.8856 87.8769 24.6098C87.8484 24.3339 87.7489 24.0702 87.6112 23.8184C87.4734 23.5666 87.256 23.3502 86.9757 23.1697C86.6953 22.9891 86.3036 22.8987 85.8093 22.8987C85.3909 22.8987 85.018 22.9749 84.6948 23.1269C84.3713 23.2792 84.0948 23.4904 83.8666 23.7614C83.6384 24.0323 83.4221 24.3555 83.3035 24.7312C83.1845 25.1068 83.0822 25.518 83.0822 25.9646V29.928H82.7344V22.6232Z" fill="white"/>
<path d="M95.9539 22.6213V29.542C95.9539 29.9511 95.9671 30.348 95.8721 30.7331C95.7775 31.1181 95.6439 31.458 95.4116 31.753C95.1792 32.0476 94.8741 32.2827 94.4665 32.4587C94.0584 32.6347 93.5492 32.7228 92.9234 32.7228C92.5345 32.7228 92.1731 32.6821 91.8315 32.6014C91.4903 32.5207 91.1932 32.392 90.9369 32.2163C90.6805 32.0406 90.4753 31.7241 90.3187 31.434C90.1622 31.1439 90.0756 30.9696 90.0565 30.2739H90.5984C90.6269 30.6218 90.7076 30.9564 90.8409 31.1846C90.9741 31.4128 91.1477 31.6423 91.3616 31.7898C91.5752 31.937 91.8155 32.0646 92.0816 32.1318C92.3477 32.1979 92.633 32.2417 92.9373 32.2417C93.441 32.2417 93.8619 32.1707 94.1993 32.0191C94.5371 31.8667 94.8056 31.6723 95.0053 31.4295C95.2046 31.1874 95.3744 30.9126 95.4551 30.6037C95.5358 30.2944 95.6057 29.9848 95.6057 29.6707V27.839H95.5055C95.2491 28.5347 94.9009 28.869 94.4595 29.1542C94.0181 29.4391 93.4845 29.6189 92.8584 29.6189C92.3175 29.6189 91.8507 29.5448 91.4569 29.3598C91.0631 29.1744 90.7358 28.9267 90.4749 28.5987C90.214 28.271 90.0192 27.8925 89.8916 27.4557C89.7636 27.0184 89.6992 26.5453 89.6992 26.0316C89.6992 25.5467 89.7681 25.0872 89.9062 24.6496C90.0439 24.2123 90.2464 23.83 90.5125 23.502C90.7786 23.1743 91.109 22.9128 91.5035 22.718C91.8983 22.5232 92.3519 22.4258 92.8657 22.4258C93.4455 22.4258 93.9802 22.5183 94.4699 22.8129C94.9594 23.1079 95.3089 23.6652 95.5184 24.013H95.606V22.6216L95.9539 22.6213ZM92.866 22.8964C92.419 22.8964 92.0319 22.9869 91.7035 23.1674C91.3758 23.3483 91.1045 23.5859 90.8906 23.8805C90.6767 24.1755 90.5149 24.5104 90.4057 24.8861C90.2965 25.2618 90.2415 25.6444 90.2415 26.034C90.2415 26.4619 90.2961 26.8681 90.4057 27.2536C90.5146 27.6386 90.6812 27.9736 90.9049 28.2592C91.1282 28.5444 91.4044 28.7705 91.732 28.9364C92.0601 29.1031 92.4378 29.1862 92.866 29.1862C93.3127 29.1862 93.7026 29.1006 94.0355 28.9295C94.368 28.7583 94.6463 28.5256 94.8696 28.2307C95.0929 27.936 95.2592 27.6007 95.3688 27.225C95.478 26.8497 95.533 26.4525 95.533 26.034C95.533 25.6253 95.4784 25.2305 95.3688 24.8506C95.2592 24.4708 95.0929 24.1351 94.8696 23.845C94.646 23.5549 94.368 23.3243 94.0355 23.1535C93.7026 22.982 93.3127 22.8964 92.866 22.8964Z" fill="white"/>
<path d="M98.0401 26.4476V26.4191C98.0401 26.8466 98.0196 27.2556 98.1344 27.6456C98.2492 28.0355 98.3789 28.3774 98.6033 28.6721C98.8277 28.967 99.0893 29.2001 99.4277 29.3712C99.7662 29.542 100.15 29.6276 100.598 29.6276C101.332 29.6276 101.909 29.4579 102.338 29.0728C102.766 28.6877 103.057 28.1868 103.22 27.4911H103.762C103.6 28.1868 103.25 28.9803 102.713 29.4366C102.176 29.893 101.465 30.1097 100.581 30.1097C100.039 30.1097 99.5662 30.0064 99.162 29.8116C98.7578 29.6168 98.4203 29.3479 98.1497 29.0102C97.8787 28.6728 97.6766 28.272 97.5434 27.8108C97.4102 27.3499 97.3438 26.8525 97.3438 26.3199C97.3438 25.8065 97.4126 25.314 97.5507 24.8437C97.6885 24.3727 97.8951 23.9591 98.1713 23.6025C98.4468 23.246 98.7915 22.9608 99.2051 22.7468C99.6187 22.5329 100.106 22.4258 100.667 22.4258C101.181 22.4258 101.634 22.5211 102.029 22.711C102.423 22.9013 102.754 23.1604 103.02 23.4881C103.286 23.8161 103.488 24.1967 103.626 24.629C103.764 25.0618 103.833 25.5251 103.833 26.0194C103.833 26.0674 103.831 26.1787 103.826 26.2406C103.82 26.3029 103.818 26.4476 103.818 26.4476H98.0401ZM103.276 25.7519C103.257 25.404 103.19 25.0298 103.076 24.6736C102.962 24.317 102.793 24.0311 102.568 23.7601C102.344 23.4891 102.073 23.287 101.753 23.1253C101.434 22.9636 101.069 22.8898 100.659 22.8898C100.22 22.8898 99.8347 22.9764 99.5011 23.143C99.1672 23.3097 98.8858 23.5295 98.6572 23.8008C98.4283 24.0718 98.252 24.333 98.1281 24.6944C98.0043 25.0559 97.9278 25.4044 97.8993 25.7522L103.276 25.7519Z" fill="white"/>
<path d="M105.694 24.3621H105.673C105.739 24.0143 105.861 23.8324 106.037 23.623C106.213 23.4139 106.426 23.1989 106.678 23.0466C106.931 22.8942 107.208 22.7606 107.517 22.6799C107.826 22.5992 108.129 22.5464 108.477 22.5558V23.0981C108.129 23.0601 107.869 23.0887 107.503 23.1836C107.137 23.2786 106.789 23.488 106.456 23.8111C106.323 23.9538 106.207 24.0919 106.107 24.2244C106.007 24.358 105.925 24.5051 105.858 24.6665C105.791 24.8279 105.771 25.0088 105.733 25.2084C105.695 25.4081 105.694 25.646 105.694 25.9215V29.9277H104.998V22.6229H105.694V24.3621Z" fill="white"/>
<defs>
<linearGradient id="paint0_linear_69_134" x1="17.7725" y1="2.41767" x2="17.7725" y2="34.2464" gradientUnits="userSpaceOnUse">
<stop stop-color="#00C6FF"/>
<stop offset="1" stop-color="#0068FF"/>
</linearGradient>
</defs>
</svg>
