<svg xmlns="http://www.w3.org/2000/svg" viewBox="0 0 100 100" width="100" height="100">
  <rect width="100" height="100" fill="#00758f" rx="8"/>
  <path d="M30 20h40v60H30z" fill="white" rx="4"/>
  <path d="M35 25h30v8H35z" fill="#f29111"/>
  <path d="M35 37h15v3H35zm20 0h10v3H55z" fill="#00758f"/>
  <path d="M35 43h20v3H35zm25 0h5v3H60z" fill="#00758f"/>
  <path d="M35 49h10v3H35zm15 0h15v3H50z" fill="#00758f"/>
  <path d="M35 55h25v3H35z" fill="#00758f"/>
  <path d="M35 61h12v3H35zm17 0h13v3H52z" fill="#00758f"/>
  <path d="M35 67h18v3H35zm23 0h7v3H58z" fill="#00758f"/>
  <circle cx="20" cy="50" r="8" fill="#f29111"/>
  <path d="M17 47h6v6h-6z" fill="white"/>
</svg>