<svg width="443" height="120" viewBox="0 0 443 120" fill="none" xmlns="http://www.w3.org/2000/svg">
<path fill-rule="evenodd" clip-rule="evenodd" d="M204 48C192.817 48 183.42 40.351 180.756 30H153.248C147.382 30 142.376 34.241 141.412 40.027L140.425 45.946C139.489 51.565 136.646 56.455 132.626 60C136.646 63.545 139.489 68.435 140.425 74.054L141.412 79.973C142.376 85.759 147.382 90 153.248 90H156.756C159.42 79.649 168.817 72 180 72C193.255 72 204 82.745 204 96C204 109.255 193.255 120 180 120C168.817 120 159.42 112.351 156.756 102H153.248C141.516 102 131.504 93.518 129.575 81.946L128.588 76.027C127.624 70.241 122.618 66 116.752 66H107.244C104.58 76.351 95.183 84 84 84C72.817 84 63.42 76.351 60.756 66H47.244C44.58 76.351 35.183 84 24 84C10.7452 84 0 73.255 0 60C0 46.745 10.7452 36 24 36C35.183 36 44.58 43.649 47.244 54H60.756C63.42 43.649 72.817 36 84 36C95.183 36 104.58 43.649 107.244 54H116.752C122.618 54 127.624 49.759 128.588 43.973L129.575 38.054C131.504 26.482 141.516 18 153.248 18H180.756C183.42 7.649 192.817 0 204 0C217.255 0 228 10.745 228 24C228 37.255 217.255 48 204 48ZM204 36C210.627 36 216 30.627 216 24C216 17.373 210.627 12 204 12C197.373 12 192 17.373 192 24C192 30.627 197.373 36 204 36ZM24 72C30.627 72 36 66.627 36 60C36 53.373 30.627 48 24 48C17.3726 48 12 53.373 12 60C12 66.627 17.3726 72 24 72ZM96 60C96 66.627 90.627 72 84 72C77.373 72 72 66.627 72 60C72 53.373 77.373 48 84 48C90.627 48 96 53.373 96 60ZM192 96C192 102.627 186.627 108 180 108C173.373 108 168 102.627 168 96C168 89.373 173.373 84 180 84C186.627 84 192 89.373 192 96Z" fill="#EA4B71"/>
<path fill-rule="evenodd" clip-rule="evenodd" d="M372.018 51.8879V51.3169C376.205 49.2199 380.392 45.5979 380.392 38.4499C380.392 28.1559 371.923 21.9609 360.219 21.9609C348.229 21.9609 339.665 28.5369 339.665 38.6399C339.665 45.5029 343.661 49.2199 348.039 51.3169V51.8879C343.186 53.6039 337.381 58.7509 337.381 67.3289C337.381 77.7169 345.945 84.9609 360.124 84.9609C374.302 84.9609 382.581 77.7169 382.581 67.3289C382.581 58.7509 376.871 53.6989 372.018 51.8879ZM360.124 30.7299C364.882 30.7299 368.402 33.7789 368.402 38.9259C368.402 44.0729 364.786 47.1229 360.124 47.1229C355.461 47.1229 351.559 44.0729 351.559 38.9259C351.559 33.6839 355.271 30.7299 360.124 30.7299ZM360.124 75.8109C354.604 75.8109 350.132 72.2849 350.132 66.2799C350.132 60.8479 353.843 56.7489 360.028 56.7489C366.119 56.7489 369.83 60.7519 369.83 66.4709C369.83 72.2849 365.548 75.8109 360.124 75.8109Z" fill="white"/>
<path d="M397.26 84.0064H409.44V58.1774C409.44 49.6944 414.579 45.9774 420.383 45.9774C426.093 45.9774 430.565 49.7904 430.565 57.6054V84.0064H442.745V55.1274C442.745 42.6414 435.513 35.3984 424.19 35.3984C417.053 35.3984 413.056 38.2574 410.201 41.9744H409.44L408.393 36.3514H397.26V84.0064Z" fill="white"/>
<path d="M289.44 84.0064H277.26V36.3514H288.393L289.44 41.9744H290.201C293.056 38.2574 297.053 35.3984 304.19 35.3984C315.513 35.3984 322.745 42.6414 322.745 55.1274V84.0064H310.565V57.6054C310.565 49.7904 306.093 45.9774 300.383 45.9774C294.579 45.9774 289.44 49.6944 289.44 58.1774V84.0064Z" fill="white"/>
</svg>
