<svg width="414" height="152" viewBox="0 0 414 152" fill="none" xmlns="http://www.w3.org/2000/svg">
<path d="M188.199 103.401V63.7008H188.899L217.499 103.401H226.499V45.1008H216.499V84.7008H215.799L187.199 45.1008H178.199V103.401H188.199ZM254.799 104.301C267.999 104.301 276.099 95.7008 276.099 81.3008C276.099 67.0008 267.999 58.3008 254.799 58.3008C241.699 58.3008 233.499 67.0008 233.499 81.3008C233.599 95.7008 241.599 104.301 254.799 104.301ZM254.799 95.9008C247.799 95.9008 243.799 90.6008 243.799 81.3008C243.799 72.1008 247.799 66.7008 254.799 66.7008C261.799 66.7008 265.799 72.1008 265.799 81.3008C265.799 90.6008 261.799 95.9008 254.799 95.9008ZM285.199 48.4008V59.5008H278.199V67.5008H285.199V91.6008C285.199 100.201 289.199 103.601 299.399 103.601C301.299 103.601 303.199 103.401 304.699 103.101V95.3008C303.499 95.4008 302.699 95.5008 301.299 95.5008C297.099 95.5008 295.199 93.6008 295.199 89.2008V67.5008H304.699V59.5008H295.199V48.4008H285.199ZM310.699 103.401H320.699V59.2008H310.699V103.401ZM315.699 51.9008C318.999 51.9008 321.699 49.2008 321.699 45.9008C321.699 42.5008 318.999 39.8008 315.699 39.8008C312.399 39.8008 309.699 42.5008 309.699 45.9008C309.699 49.2008 312.399 51.9008 315.699 51.9008ZM348.099 104.301C361.299 104.301 369.399 95.7008 369.399 81.3008C369.399 67.0008 361.299 58.3008 348.099 58.3008C334.999 58.3008 326.799 67.0008 326.799 81.3008C326.799 95.7008 334.799 104.301 348.099 104.301ZM348.099 95.9008C341.099 95.9008 337.099 90.6008 337.099 81.3008C337.099 72.1008 341.099 66.7008 348.099 66.7008C354.999 66.7008 359.099 72.1008 359.099 81.3008C358.999 90.6008 354.999 95.9008 348.099 95.9008ZM375.299 103.401H385.299V77.7008C385.299 71.2008 389.099 67.1008 394.999 67.1008C401.099 67.1008 403.899 70.5008 403.899 77.2008V103.401H413.899V74.8008C413.899 64.2008 408.499 58.3008 398.699 58.3008C392.099 58.3008 387.699 61.3008 385.599 66.3008H384.899V59.2008H375.199C375.299 59.2008 375.299 103.401 375.299 103.401Z" fill="white"/>
<path fill-rule="evenodd" clip-rule="evenodd" d="M24.9996 27.0993C29.6996 30.8993 31.3996 30.5993 40.1996 29.9993L123.1 24.9993C124.9 24.9993 123.4 23.1993 122.8 22.9993L109 13.0993C106.4 11.0993 102.8 8.69928 96.0996 9.29928L15.8996 15.1993C12.9996 15.4993 12.3996 16.9993 13.5996 18.0993L24.9996 27.0993ZM29.9996 46.3993V133.599C29.9996 138.299 32.2996 139.999 37.5996 139.699L128.7 134.399C134 134.099 134.6 130.899 134.6 127.099V40.4993C134.6 36.6993 133.1 34.5993 129.9 34.8993L34.6996 40.4993C31.1996 40.7993 29.9996 42.5993 29.9996 46.3993ZM119.9 51.0993C120.5 53.6993 119.9 56.3993 117.3 56.6993L112.9 57.5993V121.999C109.1 123.999 105.6 125.199 102.6 125.199C97.8996 125.199 96.6996 123.699 93.1996 119.299L64.4996 74.1993V117.799L73.5996 119.799C73.5996 119.799 73.5996 125.099 66.2996 125.099L46.0996 126.299C45.4996 125.099 46.0996 122.199 48.0996 121.599L53.3996 120.099V62.4993L46.0996 61.8993C45.4996 59.2993 46.9996 55.4993 51.0996 55.1993L72.7996 53.6993L102.7 99.2993V58.9993L95.0996 58.0993C94.4996 54.8993 96.8996 52.4993 99.7996 52.1993L119.9 51.0993ZM9.19961 7.19927L92.6996 1.09927C102.9 0.199273 105.6 0.799275 112 5.49927L138.6 24.1993C143 27.3993 144.5 28.2993 144.5 31.7993V134.499C144.5 140.899 142.2 144.699 134 145.299L37.0996 151.199C30.8996 151.499 27.9996 150.599 24.7996 146.499L5.09961 120.999C1.59961 116.299 0.0996094 112.799 0.0996094 108.699V17.3993C0.0996094 12.0993 2.49961 7.79927 9.19961 7.19927Z" fill="white"/>
</svg>
