<svg xmlns="http://www.w3.org/2000/svg" viewBox="0 0 100 100" width="100" height="100">
  <rect width="100" height="100" fill="#00d4aa" rx="8"/>
  <circle cx="30" cy="35" r="12" fill="white"/>
  <circle cx="70" cy="35" r="12" fill="white"/>
  <circle cx="27" cy="32" r="3" fill="#00d4aa"/>
  <circle cx="33" cy="32" r="3" fill="#00d4aa"/>
  <circle cx="67" cy="32" r="3" fill="#00d4aa"/>
  <circle cx="73" cy="32" r="3" fill="#00d4aa"/>
  <path d="M20 55h60v8H20z" fill="white" rx="4"/>
  <path d="M25 60h15v3H25zm20 0h10v3H45zm15 0h15v3H60z" fill="#00d4aa"/>
  <path d="M30 70h40v15H30z" fill="white" rx="4"/>
  <path d="M35 75h10v2H35zm15 0h15v2H50z" fill="#00d4aa"/>
  <path d="M35 80h20v2H35z" fill="#00d4aa"/>
</svg>