<svg width="2095" height="2619" viewBox="0 0 2095 2619" fill="none" xmlns="http://www.w3.org/2000/svg">
<g opacity="0.7">
<path d="M1727.59 1744.68C1611.52 1514.95 1580.28 1353.45 1574.51 1258.42C1568.23 1154.9 1589.36 1106.55 1590.26 1104.54L1597.22 1107.66C1597 1108.14 1575.85 1156.85 1582.17 1258.8C1588.01 1353.01 1619.16 1513.18 1734.39 1741.24L1727.59 1744.68Z" fill="white"/>
<path d="M1542.56 2253.6C1254.56 1907.86 1250.98 1642.56 1250.98 1639.92L1258.6 1639.91C1258.6 1640.58 1259.74 1709.34 1298.03 1821.12C1331.75 1919.54 1402.56 2073.63 1548.41 2248.72L1542.56 2253.6Z" fill="white"/>
</g>
<path d="M243.417 2376.42C243.417 2420.73 274.855 2458.61 313.622 2460.87L1809.07 2548.16C1853.48 2550.75 1889.74 2514.09 1889.74 2466.44V321.224C1889.74 273.566 1853.48 236.262 1809.07 238.062L313.622 298.665C274.855 300.236 243.417 337.561 243.417 381.872V2376.42Z" fill="url(#paint0_linear_46_482)"/>
<path d="M199.51 2376.42C199.51 2420.73 230.948 2458.61 269.714 2460.87L1765.16 2548.16C1809.57 2550.75 1845.83 2514.09 1845.83 2466.44V321.224C1845.83 273.566 1809.57 236.262 1765.16 238.062L269.714 298.665C230.948 300.236 199.51 337.561 199.51 381.872V2376.42Z" fill="url(#paint1_linear_46_482)"/>
<path d="M1808.21 322.61V2464.38C1808.21 2489.85 1788.91 2509.41 1765.16 2508.06L582.424 2441.06L269.716 2423.34C248.945 2422.17 232.136 2401.96 232.136 2378.2V380.67C232.136 356.913 248.945 337.001 269.716 336.196L593.714 323.622L1765.16 278.16C1788.91 277.237 1808.21 297.138 1808.21 322.61Z" fill="white" fill-opacity="0.21"/>
<path d="M841.676 2418.61L1145.8 2435.34C1162.06 2436.23 1175.25 2424.96 1175.25 2410.15V2409.04C1175.25 2394.24 1162.06 2381.55 1145.8 2380.69L841.676 2364.7C825.871 2363.86 813.074 2375 813.074 2389.57V2390.66C813.074 2405.23 825.871 2417.74 841.676 2418.61Z" fill="url(#paint2_linear_46_482)"/>
<path d="M521.357 1301.1C456.269 1301.1 403.505 1226.95 403.505 1135.48C403.505 1044.02 456.269 969.867 521.357 969.867C586.445 969.867 639.209 1044.02 639.209 1135.48C639.209 1226.95 586.445 1301.1 521.357 1301.1Z" fill="#455A64"/>
<path d="M881.555 734.166H1103.37C1330.81 734.166 1515.18 918.542 1515.18 1145.98V1145.98C1515.18 1267.35 1416.8 1365.73 1295.43 1365.73H689.484C568.12 1365.73 469.737 1267.35 469.737 1145.98C469.738 918.544 654.115 734.166 881.555 734.166Z" fill="white"/>
<path d="M920.813 1956H1064.67C1212.16 1956 1331.74 1795.44 1331.74 1597.37V1597.37C1331.74 1491.68 1267.93 1406 1189.23 1406H796.251C717.543 1406 653.738 1491.68 653.738 1597.37C653.739 1795.43 773.312 1956 920.813 1956Z" fill="white"/>
<path d="M680.215 1276.9H1101.85C1158.99 1276.9 1205.87 1233.11 1205.87 1179.08V1096.23C1205.87 1042.2 1158.99 999.902 1101.85 1001.72L680.215 1015.18C629.184 1016.8 588.279 1058.81 588.279 1109.01V1186C588.28 1236.21 629.185 1276.9 680.215 1276.9Z" fill="url(#paint3_linear_46_482)"/>
<path d="M966.761 1133.26C966.761 1169.34 997.476 1198.2 1035.67 1197.72C1074.21 1197.23 1105.71 1167.1 1105.71 1130.43C1105.71 1093.76 1074.21 1064.91 1035.67 1065.99C997.476 1067.07 966.761 1097.18 966.761 1133.26Z" fill="#573BF6"/>
<path d="M681.82 1139.05C681.82 1173.92 710.504 1201.83 746.166 1201.37C782.138 1200.92 811.529 1171.83 811.529 1136.41C811.529 1100.99 782.138 1073.1 746.166 1074.11C710.504 1075.11 681.82 1104.18 681.82 1139.05Z" fill="#573BF6"/>
<path opacity="0.3" d="M839.449 1307.97C902.156 1234.29 874.291 1175.37 956.271 1075.52C1069.07 938.143 1200.66 953.688 1230.8 860.511C1239.15 834.692 1240.11 799.254 1217.71 750.266C1389.51 799.823 1515.18 958.219 1515.18 1145.98V1145.98C1515.18 1267.35 1416.8 1365.73 1295.43 1365.73H767.357C798.989 1348.49 822.104 1328.35 839.449 1307.97Z" fill="white" fill-opacity="0.2"/>
<path opacity="0.4" d="M884.969 1758.57C904.722 1634.11 1123.23 1637.11 1129.17 1555.76C1133.75 1493.05 1008.3 1430.96 992.535 1423.15C979.053 1416.48 965.671 1410.83 952.422 1406H1189.09C1267.87 1406 1331.74 1491.68 1331.74 1597.37V1597.37C1331.74 1795.44 1212.05 1956 1064.42 1956H920.429C906.594 1956 893.006 1954.59 879.738 1951.87C892.268 1931.04 900.438 1908.25 902.414 1883.37C906.793 1828.24 877.314 1806.8 884.969 1758.57Z" fill="#D8DEE8"/>
<path d="M988.915 1441.76C863.394 1441.76 761.639 1429.44 761.639 1414.24C761.639 1399.04 863.394 1386.72 988.915 1386.72C1114.44 1386.72 1216.19 1399.04 1216.19 1414.24C1216.19 1429.44 1114.44 1441.76 988.915 1441.76Z" fill="#D8DEE8"/>
<path d="M81.939 230.878L636.755 221.863C676.315 221.508 708.231 245.49 707.999 275.411L705.111 648.355C704.881 678.015 672.763 702.097 633.412 702.163L603.489 702.213L602.881 793.944C602.79 807.676 580.735 814.385 562.622 799.175L449.448 702.471L81.517 701.359C46.4144 701.415 17.995 678.802 18 650.837L18.0729 282.554C18.08 254.345 46.6555 231.202 81.939 230.878Z" fill="#412CB8"/>
<path d="M63.7177 690.784L617.271 691.859C656.739 691.813 688.95 667.762 689.174 638.121L691.999 265.415C692.225 235.512 660.209 211.528 620.531 211.863L64.0471 220.586C28.6567 220.892 0 244.006 0 272.198V640.261C0.000976562 668.21 28.5095 690.823 63.7177 690.784Z" fill="#A393FA"/>
<path d="M63.7177 690.784L617.271 691.859C656.739 691.813 688.95 667.762 689.174 638.121L691.999 265.415C692.225 235.512 660.209 211.528 620.531 211.863L64.0471 220.586C28.6567 220.892 0 244.006 0 272.198V640.261C0.000976562 668.21 28.5095 690.823 63.7177 690.784Z" fill="url(#paint4_linear_46_482)"/>
<path d="M656.97 632.936L659.738 275.971C659.85 261.473 643.486 249.844 623.199 250.002L65.5643 257.355C47.4737 257.498 32.8152 268.706 32.8124 282.384L32.7383 634.31C32.7354 647.869 47.3191 658.838 65.3233 658.815L620.208 659C640.394 658.973 656.858 647.307 656.97 632.936Z" fill="white"/>
<path d="M586.022 788.03L586.738 692L409.738 692.225L551.136 796.608C563.222 805.53 585.933 799.95 586.022 788.03Z" fill="#A393FA"/>
<path d="M586.022 788.03L586.738 692L409.738 692.225L551.136 796.608C563.222 805.53 585.933 799.95 586.022 788.03Z" fill="url(#paint5_linear_46_482)"/>
<path d="M436.618 456.927C436.536 479.447 455.702 497.689 479.458 497.677C503.249 497.666 522.64 479.358 522.738 456.778C522.836 434.19 503.59 415.929 479.783 416C456.012 416.071 436.7 434.398 436.618 456.927Z" fill="#455A64"/>
<path d="M290.425 457.179C290.37 479.598 309.385 497.757 332.926 497.745C356.502 497.734 375.696 479.509 375.767 457.031C375.838 434.545 356.744 416.367 333.153 416.438C309.596 416.509 290.48 434.752 290.425 457.179Z" fill="#455A64"/>
<path d="M145.548 457.428C145.52 479.745 164.386 497.823 187.716 497.812C211.08 497.801 230.08 479.659 230.123 457.282C230.166 434.897 211.224 416.802 187.844 416.871C164.499 416.941 145.575 435.102 145.548 457.428Z" fill="#455A64"/>
<path d="M1839.6 433.401L1815.06 433.266C1815.06 433.266 1756.28 358.9 1716.56 354.789L1712.88 145.271C1865.01 145.78 1999.29 231.5 2060.44 358.193L1839.6 433.401Z" fill="url(#paint6_linear_46_482)"/>
<path d="M1546.11 526.254C1558.58 595.095 1621.29 649.217 1698.12 651.606C1717.03 652.194 1739.09 640.859 1739.09 640.859C1739.09 640.859 1759.31 641.972 1762.78 640.622L1882.7 826.3C1826.96 851.463 1763.99 863.791 1698.12 860.007C1506.57 849.002 1355.96 704.805 1339.24 531.21L1546.11 526.254Z" fill="url(#paint7_linear_46_482)"/>
<path d="M1920.24 806.766L1896.25 807.595L1799.21 620.54C1835.41 593.737 1858.68 552.027 1858.68 504.719C1858.68 493.288 1857.31 482.143 1854.73 471.415L2052.37 396.826L2076.4 397.107C2088.31 432.009 2094.74 469.146 2094.74 507.616C2094.74 635.005 2024.84 744.683 1920.24 806.766Z" fill="url(#paint8_linear_46_482)"/>
<path d="M1674.62 355.702C1604.66 366.113 1550.87 420.331 1544.47 487.336L1206.19 497.138C1206.19 497.067 1206.19 496.995 1206.19 496.924C1206.19 496.924 1206.19 496.815 1206.19 496.71C1206.19 496.456 1155.19 488.51 1155.2 488.477C1155.21 486.158 1617.31 0.412109 1617.31 0.412109L1668.56 8.83411C1668.56 8.83411 1672.61 240.08 1674.62 355.702Z" fill="url(#paint9_linear_46_482)"/>
<path d="M1815.4 433.401C1790.9 390.539 1745.31 360.271 1692.35 354.791L1688.67 145.273C1840.81 145.782 1975.08 231.501 2036.23 358.194L1815.4 433.401Z" fill="url(#paint10_linear_46_482)"/>
<path d="M1521.9 526.254C1534.37 595.095 1597.08 649.217 1673.91 651.606C1696.82 652.318 1718.71 648.364 1738.57 640.622L1858.49 826.3C1802.75 851.463 1739.78 863.791 1673.91 860.007C1482.36 849.002 1331.76 704.805 1315.03 531.21L1521.9 526.254Z" fill="url(#paint11_linear_46_482)"/>
<path d="M1896.03 806.767L1775.01 620.541C1811.21 593.738 1834.47 552.028 1834.47 504.72C1834.47 493.289 1833.1 482.144 1830.52 471.416L2052.2 397.109C2064.1 432.011 2070.53 469.148 2070.53 507.618C2070.53 635.006 2000.64 744.684 1896.03 806.767Z" fill="url(#paint12_linear_46_482)"/>
<path d="M1623.62 346.868C1553.66 357.279 1499.87 411.497 1493.48 478.502L1155.2 488.304C1155.2 488.161 1155.19 488.018 1155.19 487.875C1155.19 239.713 1352.92 27.338 1617.56 0L1623.62 346.868Z" fill="#FF9085"/>
<g opacity="0.3">
<path d="M1720.16 646.537C1726.46 644.92 1732.61 642.945 1738.57 640.621L1858.49 826.299C1802.75 851.462 1739.78 863.79 1673.91 860.006C1620.69 856.949 1570.64 843.597 1525.74 822.203C1571.07 815.339 1611.54 798.148 1643.85 769.5C1680.66 736.863 1704.54 691.468 1720.16 646.537Z" fill="url(#paint13_linear_46_482)"/>
</g>
<g opacity="0.3">
<path d="M1760.42 228.434C1774.66 202.17 1795.03 182.264 1817.87 167.057C1914.02 200.231 1993.22 269.075 2036.23 358.194L1815.4 433.401C1800.07 406.581 1776.48 384.693 1748 370.723C1742.24 314.977 1735.71 274 1760.42 228.434Z" fill="url(#paint14_linear_46_482)"/>
</g>
<path d="M451.835 1983.34L1403.58 1991.43C1420.28 1991.58 1434.31 2005.94 1434.31 2023.52V2058.91V2077.78V2588.44C1434.31 2606.02 1420.21 2619.44 1403.5 2618.41L1389.69 2617.57L1373.31 2583.42L441.227 2526.25C427.127 2525.39 426.489 2545.45 426.489 2529.36V2061.92V2044.65V2012.26C426.488 1996.16 437.735 1983.22 451.835 1983.34Z" fill="url(#paint15_linear_46_482)"/>
<path d="M451.835 1983.34L1403.58 1991.43C1420.28 1991.58 1434.31 2005.94 1434.31 2023.52V2058.91V2077.78V2588.44C1434.31 2606.02 1420.21 2619.44 1403.5 2618.41L1389.69 2617.57L1373.31 2583.42L441.227 2526.25C427.127 2525.39 426.489 2545.45 426.489 2529.36V2061.92V2044.65V2012.26C426.488 1996.16 437.735 1983.22 451.835 1983.34Z" fill="url(#paint16_linear_46_482)"/>
<path d="M412.73 2044.64V2529.36C412.73 2544.22 422.103 2557.05 434.692 2559.63C435.758 2559.87 436.661 2560.01 437.762 2560.08L1389.64 2618.42C1406.36 2619.45 1420.55 2606.03 1420.55 2588.46V2058.92L412.73 2044.64Z" fill="white"/>
<path d="M437.288 1983L1390.39 1991.15C1407.13 1991.29 1420.74 2005.74 1420.74 2023.42V2078L411.738 2062.05V2012.09C411.737 1995.9 423.162 1982.88 437.288 1983Z" fill="#8367F8"/>
<path d="M1349.81 2033.31C1349.81 2041.08 1355.78 2047.46 1363.16 2047.55C1370.55 2047.65 1376.55 2041.42 1376.55 2033.63C1376.55 2025.84 1370.55 2019.46 1363.16 2019.38C1355.78 2019.3 1349.81 2025.54 1349.81 2033.31Z" fill="white"/>
<path opacity="0.2" d="M1211.91 2539.19L1287.34 2543.38V2150.35L1211.91 2148.68V2539.19Z" fill="url(#paint17_linear_46_482)"/>
<path d="M1211.91 2539.19L1287.34 2543.38V2356.78L1211.91 2353.79V2539.19Z" fill="url(#paint18_linear_46_482)"/>
<path d="M1211.91 2539.19L1287.34 2543.38V2356.78L1211.91 2353.79V2539.19Z" fill="url(#paint19_linear_46_482)"/>
<path opacity="0.2" d="M1108.57 2533.46L1182.66 2537.57V2148.04L1108.57 2146.4V2533.46Z" fill="url(#paint20_linear_46_482)"/>
<path d="M1108.57 2533.46L1182.66 2537.57V2445.1L1108.57 2441.57V2533.46Z" fill="url(#paint21_linear_46_482)"/>
<path d="M1108.57 2533.46L1182.66 2537.57V2445.1L1108.57 2441.57V2533.46Z" fill="url(#paint22_linear_46_482)"/>
<path opacity="0.2" d="M1007.04 2527.82L1079.83 2531.86V2145.76L1007.04 2144.16V2527.82Z" fill="url(#paint23_linear_46_482)"/>
<path d="M1007.04 2527.82L1079.83 2531.86V2483.74L1007.04 2480.01V2527.82Z" fill="url(#paint24_linear_46_482)"/>
<path d="M1007.04 2527.82L1079.83 2531.86V2483.74L1007.04 2480.01V2527.82Z" fill="url(#paint25_linear_46_482)"/>
<path opacity="0.2" d="M907.268 2522.29L978.801 2526.26V2143.53L907.268 2141.95V2522.29Z" fill="url(#paint26_linear_46_482)"/>
<path d="M907.268 2522.29L978.801 2526.26V2226.44L907.268 2224.34V2522.29Z" fill="url(#paint27_linear_46_482)"/>
<path d="M907.268 2522.29L978.801 2526.26V2226.44L907.268 2224.34V2522.29Z" fill="url(#paint28_linear_46_482)"/>
<path opacity="0.2" d="M809.216 2516.84L879.518 2520.75V2141.34L809.216 2139.79V2516.84Z" fill="url(#paint29_linear_46_482)"/>
<path d="M809.216 2516.85L879.518 2520.75V2257.3L809.216 2255.03V2516.85Z" fill="url(#paint30_linear_46_482)"/>
<path d="M809.216 2516.85L879.518 2520.75V2257.3L809.216 2255.03V2516.85Z" fill="url(#paint31_linear_46_482)"/>
<path opacity="0.2" d="M712.837 2511.5L781.941 2515.33V2139.18L712.837 2137.66V2511.5Z" fill="url(#paint32_linear_46_482)"/>
<path d="M712.837 2511.5L781.941 2515.33V2193.88L712.837 2192.02V2511.5Z" fill="url(#paint33_linear_46_482)"/>
<path d="M712.837 2511.5L781.941 2515.33V2193.88L712.837 2192.02V2511.5Z" fill="url(#paint34_linear_46_482)"/>
<path opacity="0.2" d="M618.092 2506.24L686.027 2510.01V2137.07L618.092 2135.57V2506.24Z" fill="url(#paint35_linear_46_482)"/>
<path d="M618.092 2506.24L686.027 2510.01V2280.93L618.092 2278.55V2506.24Z" fill="url(#paint36_linear_46_482)"/>
<path d="M618.092 2506.24L686.027 2510.01V2280.93L618.092 2278.55V2506.24Z" fill="url(#paint37_linear_46_482)"/>
<path opacity="0.2" d="M524.938 2501.07L591.734 2504.78V2134.98L524.938 2133.51V2501.07Z" fill="url(#paint38_linear_46_482)"/>
<path d="M524.938 2501.07L591.734 2504.78V2376.39L524.938 2373.46V2501.07Z" fill="url(#paint39_linear_46_482)"/>
<path d="M524.938 2501.07L591.734 2504.78V2376.39L524.938 2373.46V2501.07Z" fill="url(#paint40_linear_46_482)"/>
<path opacity="0.4" d="M434.365 2559.63C435.431 2559.87 436.498 2560.01 437.598 2560.08L1389.56 2618.41C1406.28 2619.45 1420.55 2606.03 1420.55 2588.45V2085.27C1410.23 2112.78 1384.02 2163.76 1288.02 2172.77C1271.47 2174.35 1252.56 2174.66 1231.71 2173.39C1225.14 2172.98 1218.47 2172.74 1212.07 2172.63C1202.1 2172.43 1192.28 2172.56 1182.75 2173.05C1156.37 2174.32 1131.56 2178.03 1108.61 2183.85C1098.68 2186.36 1089.06 2189.28 1079.84 2192.58C1052.46 2202.32 1028.06 2215.29 1007.04 2230.87C996.828 2238.43 987.397 2246.62 978.798 2255.32C941.066 2293.47 919.083 2341.9 915.643 2394.28C915.059 2403.12 912.168 2410.55 907.249 2416.78C901.023 2424.69 891.563 2430.68 879.524 2435.28C861.226 2442.3 837.01 2446.05 809.217 2448.32C800.445 2449.04 791.33 2449.59 781.94 2450.08C760.1 2451.18 736.744 2451.8 712.838 2452.59C703.963 2452.9 694.986 2453.21 686.009 2453.62C663.272 2454.62 640.364 2456.03 618.076 2458.43C609.166 2459.4 600.396 2460.5 591.728 2461.84C567.995 2465.45 545.395 2470.51 524.93 2477.83C482.349 2493.11 449.053 2518.04 434.365 2559.63Z" fill="#D8DEE8"/>
<path d="M1556.23 924.116C1551.58 938.378 1559.38 953.704 1573.64 958.355C1587.91 963 1603.24 955.203 1607.88 940.94C1612.53 926.677 1604.73 911.351 1590.47 906.701C1576.2 902.055 1560.87 909.853 1556.23 924.116Z" fill="#573BF6"/>
<path opacity="0.3" d="M1556.25 924.089C1551.59 938.396 1559.37 953.688 1573.62 958.326C1587.93 962.986 1603.22 955.203 1607.88 940.904C1611.48 929.838 1607.62 918.128 1598.94 911.259C1599.14 911.898 1599.32 912.594 1599.44 913.271C1600.8 921.512 1592.54 929.673 1581.02 931.52C1569.68 933.371 1559.37 928.337 1557.91 920.235C1557.23 921.462 1556.7 922.735 1556.25 924.089Z" fill="black"/>
<path d="M1571 944.597C1575.23 943.704 1580.99 945.581 1583.87 948.79C1585.32 950.396 1585.77 952.033 1585.33 953.377L1534.74 1108.72L1516.52 1102.78L1567.12 947.445C1567.56 946.101 1568.89 945.043 1571 944.597Z" fill="#263238"/>
<path opacity="0.3" d="M1589.61 908.983C1591.01 909.693 1592.49 910.92 1592.3 912.48C1592.08 914.407 1589.67 915.059 1587.76 915.431C1580.92 916.77 1574.72 920.262 1568.29 922.982C1567.18 923.454 1565.55 924.172 1564.35 924.043C1562.37 923.833 1561.86 922.106 1562 920.737C1562.17 918.98 1563.14 917.434 1563.9 916.287C1566.04 913.103 1569.01 910.465 1572.88 908.914C1576.1 907.62 1579.64 906.775 1583.09 907.108C1585.35 907.325 1587.58 907.953 1589.61 908.983Z" fill="white" fill-opacity="0.97"/>
<path d="M1418.27 966.288C1513.17 963.185 1592.62 1037.59 1595.73 1132.49C1598.85 1227.39 1524.44 1306.85 1429.54 1309.97C1404.15 1310.81 1378.2 1294.87 1357.73 1261.95C1316.78 1196.11 1313.21 1087.3 1349.74 1018.92C1368.02 984.723 1392.87 967.116 1418.27 966.288Z" fill="#455A64"/>
<path d="M1499.54 1242.82C1578.48 1203.18 1595.13 1109.81 1557.3 1029.71C1580.21 1057.85 1594.45 1093.43 1595.73 1132.49C1598.84 1227.39 1524.44 1306.86 1429.53 1309.97C1404.14 1310.81 1378.19 1294.87 1357.72 1261.95C1349.36 1248.5 1342.64 1233.22 1337.42 1216.9C1363.48 1258.58 1415 1285.28 1499.54 1242.82Z" fill="#37474F"/>
<path d="M1545.52 1085.42C1561.91 1111.79 1563.35 1155.36 1548.71 1182.75C1543.84 1191.86 1537.8 1197.96 1531.31 1201.17C1524.62 1198.39 1518.19 1192.7 1512.74 1183.93C1496.34 1157.57 1494.91 1114 1509.54 1086.61C1514.41 1077.5 1520.45 1071.4 1526.94 1068.19C1533.62 1070.96 1540.06 1076.65 1545.52 1085.42Z" fill="#573BF6"/>
<path d="M1403.18 1015.57C1415.46 992.579 1430.99 976.478 1448.27 967.954C1452.98 968.624 1457.65 969.45 1462.24 970.498C1456.59 972.056 1451.07 974.398 1445.75 977.702C1432.18 986.147 1419.89 1000.18 1409.78 1019.09C1373.86 1086.31 1377.38 1193.65 1417.64 1258.37C1433.18 1283.36 1452.23 1298.69 1472.33 1303.14C1467.8 1304.47 1463.17 1305.57 1458.49 1306.53C1441.03 1299.02 1424.82 1284.08 1411.28 1262.33C1369.77 1195.58 1366.14 1084.89 1403.18 1015.57Z" fill="white" fill-opacity="0.97"/>
<defs>
<linearGradient id="paint0_linear_46_482" x1="1794.94" y1="620.871" x2="345.138" y2="2218.47" gradientUnits="userSpaceOnUse">
<stop offset="0.0036" stop-color="#26264F"/>
<stop offset="1" stop-color="#444B8C"/>
</linearGradient>
<linearGradient id="paint1_linear_46_482" x1="1813.8" y1="1394.39" x2="-8.20147" y2="1343.63" gradientUnits="userSpaceOnUse">
<stop stop-color="#444B8C"/>
<stop offset="0.9964" stop-color="#26264F"/>
</linearGradient>
<linearGradient id="paint2_linear_46_482" x1="979.396" y1="2287.39" x2="1009.52" y2="2516.82" gradientUnits="userSpaceOnUse">
<stop stop-color="#444B8C"/>
<stop offset="0.9964" stop-color="#26264F"/>
</linearGradient>
<linearGradient id="paint3_linear_46_482" x1="1205.87" y1="1139.29" x2="588.28" y2="1139.29" gradientUnits="userSpaceOnUse">
<stop stop-color="#444B8C"/>
<stop offset="0.9964" stop-color="#26264F"/>
</linearGradient>
<linearGradient id="paint4_linear_46_482" x1="-172.046" y1="121.274" x2="-115.966" y2="980.883" gradientUnits="userSpaceOnUse">
<stop stop-color="#A393FA"/>
<stop offset="1" stop-color="#412CB8"/>
</linearGradient>
<linearGradient id="paint5_linear_46_482" x1="365.732" y1="671.43" x2="377.049" y2="866.808" gradientUnits="userSpaceOnUse">
<stop offset="0.119188" stop-color="#412CB8"/>
<stop offset="1" stop-color="#A393FA"/>
</linearGradient>
<linearGradient id="paint6_linear_46_482" x1="1902.06" y1="112.479" x2="1826.56" y2="794.983" gradientUnits="userSpaceOnUse">
<stop stop-color="#311944"/>
<stop offset="1" stop-color="#893976"/>
</linearGradient>
<linearGradient id="paint7_linear_46_482" x1="1624.66" y1="651.101" x2="1330.11" y2="1246.04" gradientUnits="userSpaceOnUse">
<stop stop-color="#311944"/>
<stop offset="1" stop-color="#893976"/>
</linearGradient>
<linearGradient id="paint8_linear_46_482" x1="2088.52" y1="401.495" x2="1656.72" y2="956.662" gradientUnits="userSpaceOnUse">
<stop stop-color="#311944"/>
<stop offset="1" stop-color="#893976"/>
</linearGradient>
<linearGradient id="paint9_linear_46_482" x1="1244.31" y1="14.9805" x2="1531.9" y2="416.023" gradientUnits="userSpaceOnUse">
<stop stop-color="#311944"/>
<stop offset="1" stop-color="#893976"/>
</linearGradient>
<linearGradient id="paint10_linear_46_482" x1="1877.8" y1="112.95" x2="1803" y2="789.143" gradientUnits="userSpaceOnUse">
<stop stop-color="#FFC444"/>
<stop offset="0.9964" stop-color="#F36F56"/>
</linearGradient>
<linearGradient id="paint11_linear_46_482" x1="1600.46" y1="651.1" x2="1305.9" y2="1246.04" gradientUnits="userSpaceOnUse">
<stop offset="0.0036" stop-color="#E38DDD"/>
<stop offset="1" stop-color="#9571F6"/>
</linearGradient>
<linearGradient id="paint12_linear_46_482" x1="2064.23" y1="401.607" x2="1647.71" y2="937.124" gradientUnits="userSpaceOnUse">
<stop stop-color="#AA80F9"/>
<stop offset="0.9964" stop-color="#6165D7"/>
</linearGradient>
<linearGradient id="paint13_linear_46_482" x1="1741.05" y1="725.423" x2="1452.77" y2="1307.68" gradientUnits="userSpaceOnUse">
<stop offset="0.0036" stop-color="#E38DDD"/>
<stop offset="1" stop-color="#9571F6"/>
</linearGradient>
<linearGradient id="paint14_linear_46_482" x1="1912.4" y1="117.453" x2="1837.75" y2="792.247" gradientUnits="userSpaceOnUse">
<stop stop-color="#FFC444"/>
<stop offset="0.9964" stop-color="#F36F56"/>
</linearGradient>
<linearGradient id="paint15_linear_46_482" x1="747.146" y1="1704.65" x2="1197.76" y2="3110.87" gradientUnits="userSpaceOnUse">
<stop stop-color="#311944"/>
<stop offset="1" stop-color="#893976"/>
</linearGradient>
<linearGradient id="paint16_linear_46_482" x1="175.922" y1="1863.47" x2="243.391" y2="3001.74" gradientUnits="userSpaceOnUse">
<stop stop-color="#A393FA"/>
<stop offset="1" stop-color="#412CB8"/>
</linearGradient>
<linearGradient id="paint17_linear_46_482" x1="1287.34" y1="2346.03" x2="1211.91" y2="2346.03" gradientUnits="userSpaceOnUse">
<stop stop-color="#FF9085"/>
<stop offset="1" stop-color="#FB6FBB"/>
</linearGradient>
<linearGradient id="paint18_linear_46_482" x1="1206.7" y1="2314.02" x2="1308.81" y2="2632.69" gradientUnits="userSpaceOnUse">
<stop stop-color="#FF9085"/>
<stop offset="1" stop-color="#FB6FBB"/>
</linearGradient>
<linearGradient id="paint19_linear_46_482" x1="1193.16" y1="2318.01" x2="1269.51" y2="2640.93" gradientUnits="userSpaceOnUse">
<stop stop-color="#A393FA"/>
<stop offset="1" stop-color="#412CB8"/>
</linearGradient>
<linearGradient id="paint20_linear_46_482" x1="1182.66" y1="2341.98" x2="1108.57" y2="2341.98" gradientUnits="userSpaceOnUse">
<stop stop-color="#FF9085"/>
<stop offset="1" stop-color="#FB6FBB"/>
</linearGradient>
<linearGradient id="paint21_linear_46_482" x1="1121.56" y1="2414.2" x2="1178.76" y2="2592.7" gradientUnits="userSpaceOnUse">
<stop stop-color="#FF9085"/>
<stop offset="1" stop-color="#FB6FBB"/>
</linearGradient>
<linearGradient id="paint22_linear_46_482" x1="1090.15" y1="2423.46" x2="1110.88" y2="2593.58" gradientUnits="userSpaceOnUse">
<stop stop-color="#A393FA"/>
<stop offset="1" stop-color="#412CB8"/>
</linearGradient>
<linearGradient id="paint23_linear_46_482" x1="1079.83" y1="2338.01" x2="1007.04" y2="2338.01" gradientUnits="userSpaceOnUse">
<stop stop-color="#FF9085"/>
<stop offset="1" stop-color="#FB6FBB"/>
</linearGradient>
<linearGradient id="paint24_linear_46_482" x1="1028.32" y1="2458.61" x2="1064.23" y2="2570.69" gradientUnits="userSpaceOnUse">
<stop stop-color="#FF9085"/>
<stop offset="1" stop-color="#FB6FBB"/>
</linearGradient>
<linearGradient id="paint25_linear_46_482" x1="988.937" y1="2470.22" x2="995.158" y2="2563.07" gradientUnits="userSpaceOnUse">
<stop stop-color="#A393FA"/>
<stop offset="1" stop-color="#412CB8"/>
</linearGradient>
<linearGradient id="paint26_linear_46_482" x1="978.8" y1="2334.11" x2="907.268" y2="2334.11" gradientUnits="userSpaceOnUse">
<stop stop-color="#FF9085"/>
<stop offset="1" stop-color="#FB6FBB"/>
</linearGradient>
<linearGradient id="paint27_linear_46_482" x1="877.806" y1="2170.8" x2="1032.98" y2="2655.07" gradientUnits="userSpaceOnUse">
<stop stop-color="#FF9085"/>
<stop offset="1" stop-color="#FB6FBB"/>
</linearGradient>
<linearGradient id="paint28_linear_46_482" x1="889.483" y1="2167.36" x2="1075.69" y2="2636.43" gradientUnits="userSpaceOnUse">
<stop stop-color="#A393FA"/>
<stop offset="1" stop-color="#412CB8"/>
</linearGradient>
<linearGradient id="paint29_linear_46_482" x1="879.518" y1="2330.27" x2="809.215" y2="2330.27" gradientUnits="userSpaceOnUse">
<stop stop-color="#FF9085"/>
<stop offset="1" stop-color="#FB6FBB"/>
</linearGradient>
<linearGradient id="paint30_linear_46_482" x1="786.482" y1="2206.43" x2="924.179" y2="2636.14" gradientUnits="userSpaceOnUse">
<stop stop-color="#FF9085"/>
<stop offset="1" stop-color="#FB6FBB"/>
</linearGradient>
<linearGradient id="paint31_linear_46_482" x1="791.737" y1="2204.89" x2="942.56" y2="2629.15" gradientUnits="userSpaceOnUse">
<stop stop-color="#A393FA"/>
<stop offset="1" stop-color="#412CB8"/>
</linearGradient>
<linearGradient id="paint32_linear_46_482" x1="781.941" y1="2326.49" x2="712.838" y2="2326.49" gradientUnits="userSpaceOnUse">
<stop stop-color="#FF9085"/>
<stop offset="1" stop-color="#FB6FBB"/>
</linearGradient>
<linearGradient id="paint33_linear_46_482" x1="678.017" y1="2136.2" x2="843.047" y2="2651.21" gradientUnits="userSpaceOnUse">
<stop stop-color="#FF9085"/>
<stop offset="1" stop-color="#FB6FBB"/>
</linearGradient>
<linearGradient id="paint34_linear_46_482" x1="695.657" y1="2131" x2="910.025" y2="2618.14" gradientUnits="userSpaceOnUse">
<stop stop-color="#A393FA"/>
<stop offset="1" stop-color="#412CB8"/>
</linearGradient>
<linearGradient id="paint35_linear_46_482" x1="686.027" y1="2322.79" x2="618.092" y2="2322.79" gradientUnits="userSpaceOnUse">
<stop stop-color="#FF9085"/>
<stop offset="1" stop-color="#FB6FBB"/>
</linearGradient>
<linearGradient id="paint36_linear_46_482" x1="601.202" y1="2234.87" x2="722.169" y2="2612.38" gradientUnits="userSpaceOnUse">
<stop stop-color="#A393FA"/>
<stop offset="1" stop-color="#412CB8"/>
</linearGradient>
<linearGradient id="paint37_linear_46_482" x1="601.202" y1="2234.87" x2="722.169" y2="2612.38" gradientUnits="userSpaceOnUse">
<stop stop-color="#A393FA"/>
<stop offset="1" stop-color="#412CB8"/>
</linearGradient>
<linearGradient id="paint38_linear_46_482" x1="591.734" y1="2319.14" x2="524.939" y2="2319.14" gradientUnits="userSpaceOnUse">
<stop stop-color="#FF9085"/>
<stop offset="1" stop-color="#FB6FBB"/>
</linearGradient>
<linearGradient id="paint39_linear_46_482" x1="527.654" y1="2342.98" x2="600.611" y2="2570.66" gradientUnits="userSpaceOnUse">
<stop offset="1" stop-color="#FB6FBB"/>
</linearGradient>
<linearGradient id="paint40_linear_46_482" x1="508.332" y1="2348.68" x2="550.557" y2="2577.04" gradientUnits="userSpaceOnUse">
<stop stop-color="#A393FA"/>
<stop offset="1" stop-color="#412CB8"/>
</linearGradient>
</defs>
</svg>
