<svg width="601" height="151" viewBox="0 0 601 151" fill="none" xmlns="http://www.w3.org/2000/svg">
<path d="M188.699 118.902L195.999 101.802C203.999 107.702 214.399 110.802 224.799 110.802C232.399 110.802 237.299 107.802 237.299 103.302C237.099 90.8015 191.299 100.502 190.899 69.0016C190.699 53.0016 204.999 40.6016 225.099 40.6016C237.099 40.6016 249.099 43.6015 257.599 50.3015L250.799 67.7016C242.999 62.7016 233.299 59.2016 224.099 59.2016C217.799 59.2016 213.699 62.2016 213.699 66.0016C213.899 78.4016 260.099 71.6016 260.599 101.702C260.599 118.102 246.699 129.502 226.899 129.502C212.299 129.702 198.899 126.202 188.699 118.902ZM479.199 95.7016C475.399 102.402 468.399 106.502 460.799 106.502C449.099 106.502 439.599 97.0015 439.599 85.3015C439.599 73.6015 449.099 64.1016 460.799 64.1016C468.399 64.1016 475.499 68.2016 479.199 74.9016L499.499 63.6016C491.899 50.0016 477.399 40.8015 460.799 40.8015C436.299 40.8015 416.399 60.7015 416.399 85.3015C416.399 109.902 436.299 129.802 460.799 129.802C477.399 129.802 491.899 120.602 499.499 107.002L479.199 95.7016ZM273.799 127.902H299.199V3.70155H273.799V127.902ZM512.299 3.70155V127.902H537.699V90.7016L567.799 127.902H600.199L561.999 83.7016L597.399 42.4016H566.399L537.699 76.7016V3.60156H512.299V3.70155ZM377.299 42.5016V52.6016C373.099 45.6016 362.899 40.8015 352.099 40.8015C329.899 40.8015 312.299 60.5016 312.299 85.2016C312.299 109.902 329.799 129.802 352.099 129.802C362.899 129.802 373.099 124.902 377.299 118.002V128.102H402.699V42.6016H377.299V42.5016ZM377.299 95.8015C373.699 101.902 365.999 106.402 357.499 106.402C345.799 106.402 336.299 96.9016 336.299 85.2016C336.299 73.5016 345.799 64.0016 357.499 64.0016C365.999 64.0016 373.699 68.7016 377.299 75.0016V95.8015Z" fill="white"/>
<path d="M54.6992 1C46.4992 1 39.7992 7.69999 39.7992 15.9C39.7992 24.1 46.4992 30.8 54.6992 30.8H69.5992V15.9C69.5992 7.69999 62.9992 1 54.6992 1ZM54.6992 40.7H15.0992C6.89922 40.7 0.199219 47.4 0.199219 55.6C0.199219 63.8 6.89922 70.5 15.0992 70.5H54.7992C62.9992 70.5 69.6992 63.8 69.6992 55.6C69.5992 47.4 62.9992 40.7 54.6992 40.7Z" fill="#36C5F0"/>
<path d="M149 55.5984C149 47.3984 142.3 40.6985 134.1 40.6985C125.9 40.6985 119.2 47.3984 119.2 55.5984V70.4984H134.1C142.3 70.5984 149 63.8984 149 55.5984ZM109.3 55.5984V15.7984C109.3 7.59843 102.6 0.898438 94.4 0.898438C86.2 0.898438 79.5 7.59843 79.5 15.7984V55.5984C79.5 63.7984 86.2 70.4984 94.4 70.4984C102.7 70.5984 109.3 63.8984 109.3 55.5984Z" fill="#2EB67D"/>
<path d="M94.4 150.1C102.6 150.1 109.3 143.4 109.3 135.2C109.3 127 102.6 120.3 94.4 120.3H79.5V135.2C79.5 143.4 86.2 150.1 94.4 150.1ZM94.4 110.3H134.1C142.3 110.3 149 103.6 149 95.4C149 87.2 142.3 80.5 134.1 80.5H94.4C86.2 80.5 79.5 87.2 79.5 95.4C79.5 103.6 86.2 110.3 94.4 110.3Z" fill="#ECB22E"/>
<path d="M0.199219 95.4C0.199219 103.6 6.89922 110.3 15.0992 110.3C23.2992 110.3 29.9992 103.6 29.9992 95.4V80.5H15.0992C6.79922 80.5 0.199219 87.2 0.199219 95.4ZM39.8992 95.4V135.2C39.8992 143.4 46.5992 150.1 54.7992 150.1C62.9992 150.1 69.6992 143.4 69.6992 135.2V95.4C69.6992 87.2 62.9992 80.5 54.7992 80.5C46.4992 80.5 39.8992 87.2 39.8992 95.4Z" fill="#E01E5A"/>
</svg>
