<svg width="1620" height="273" viewBox="0 0 1620 273" fill="none" xmlns="http://www.w3.org/2000/svg">
<g clip-path="url(#clip0_69_167)">
<path d="M241.094 0.0168718C208.341 -0.523048 177.755 11.9046 149.878 36.0091C147.384 38.1651 145.558 38.6718 142.465 37.4778C125.661 30.9898 108.24 29.1421 90.4459 31.7161C33.6159 39.9361 -6.00137 91.9022 0.748631 149.21C8.69863 216.706 77.815 259.228 141.567 235.726C145.164 234.4 147.346 234.735 150.278 237.38C175.942 260.529 206.235 272.003 240.723 272.505C247.103 272.789 253.418 272.107 259.676 271.228C334.371 260.719 386.562 191.402 374.928 116.591C366.754 64.0201 336.885 27.0504 287.049 8.91336C271.318 3.18804 255.982 0.262292 241.094 0.0168718ZM242.321 30.7493C290.812 31.6145 336.714 66.1765 345.108 120.193C354.491 180.563 311.043 236.3 250.399 241.689C190.551 247.006 138.402 201.518 135.803 141.544C135.627 137.481 134.636 136.131 130.465 136.349C123.486 136.713 116.465 136.643 109.477 136.368C105.894 136.226 105.039 137.324 105.204 140.847C106.284 163.883 112.322 185.423 123.993 205.351C124.647 206.469 125.226 207.632 125.864 208.816C87.7389 221.454 43.9733 196.909 32.9283 156.941C21.4033 115.237 46.6315 72.6697 88.7135 62.8157C130.207 53.0987 171.601 80.4931 179.604 123.007C180.157 125.947 180.742 128.973 180.61 131.927C180.445 135.611 181.528 136.775 185.331 136.583C192.312 136.233 199.341 136.178 206.315 136.597C210.608 136.855 211.148 135.126 210.93 131.527C209.206 102.981 198.306 78.6587 177.301 59.1887C173.514 55.6787 174.371 54.4182 177.87 51.7942C197.703 36.9258 220.279 30.356 242.321 30.7493Z" fill="white"/>
<path d="M929.704 45.6203C927.02 45.7368 926.008 46.8375 926.113 50.257C926.404 59.744 926.208 69.2473 926.208 78.7433V107.372C907.363 84.0072 871.674 82.8849 849.611 101.009C822.463 123.309 818.671 167.62 841.589 194.991C863.101 220.683 904.051 222.641 924.933 197.085C925.068 196.919 925.472 196.971 926.208 196.839C926.208 200.844 926.351 204.786 926.157 208.712C926.019 211.504 926.896 212.519 929.8 212.431C936.291 212.235 942.805 212.109 949.284 212.462C953.52 212.693 954.948 211.74 954.88 207.103C954.579 186.78 954.749 166.452 954.749 146.126C954.749 114.138 954.702 82.1492 954.82 50.1612C954.833 46.7722 954.077 45.4621 950.445 45.6241C943.96 45.9151 937.443 45.9071 930.958 45.6261C930.505 45.6065 930.088 45.6038 929.704 45.6203ZM890.761 114.415C911.312 114.23 927.343 130.44 927.544 151.607C927.739 172.259 911.689 189.161 891.685 189.366C871.708 189.569 855.477 173.104 855.13 152.282C854.784 131.586 870.772 114.594 890.761 114.415Z" fill="white"/>
<path d="M1364.64 45.5864C1361.66 45.7019 1360.76 47.0293 1360.78 50.7271C1360.97 79.7181 1360.88 108.712 1360.88 137.704C1360.88 161.198 1360.93 184.69 1360.82 208.182C1360.8 211.277 1361.36 212.603 1364.85 212.454C1371.67 212.162 1378.51 212.198 1385.34 212.442C1388.52 212.557 1389.37 211.452 1389.19 208.46C1388.96 204.748 1389.14 201.01 1389.14 197.016C1390.04 197.441 1390.43 197.499 1390.6 197.721C1407.44 219.568 1446.86 222.535 1470.65 198.315C1491.74 176.855 1495.13 140.02 1478.15 114.323C1465.08 94.5528 1442.49 84.9725 1419.23 89.4985C1407.38 91.8045 1397.66 97.854 1389.14 108.315C1389.14 105.595 1389.14 104.466 1389.14 103.333C1389.14 85.5046 1389.06 67.6752 1389.21 49.8482C1389.24 46.5762 1388.36 45.4994 1385.03 45.6314C1378.71 45.8824 1372.36 45.9729 1366.05 45.608C1365.53 45.5784 1365.06 45.5699 1364.64 45.5864ZM1423.59 114.415C1444.19 114.231 1460.09 130.379 1460.22 151.622C1460.35 172.491 1444.55 189.182 1424.49 189.366C1404.48 189.551 1388.19 172.991 1387.98 152.274C1387.78 131.404 1403.59 114.592 1423.59 114.415Z" fill="white"/>
<path d="M624.918 88.1525C621.963 88.1465 618.969 88.3659 615.953 88.8243C591.156 92.5933 573.765 106.27 566.252 130.117C558.383 155.093 561.823 178.837 581.044 198.076C596.869 213.915 616.864 217.718 638.332 214.115C655.267 211.272 668.439 202.278 677.761 187.723C679.491 185.022 679.977 183.468 676.257 182.067C671.61 180.316 667.04 178.175 662.789 175.617C658.261 172.89 655.739 173.465 652.466 177.986C643.918 189.796 631.573 193.073 617.863 190.074C604.524 187.156 595.492 178.971 591.765 165.397C590.722 161.598 591.203 160.293 595.57 160.381C609.389 160.658 623.217 160.483 637.041 160.483C651.364 160.483 665.686 160.403 680.007 160.547C682.943 160.578 684.133 159.988 684.029 156.77C683.836 150.784 683.92 144.819 682.976 138.852C678.303 109.302 653.475 88.2083 624.918 88.1525ZM623.388 111.807C637.925 111.636 650.598 120.844 654.634 134.342C655.739 138.037 655.764 139.946 650.8 139.717C641.679 139.296 632.523 139.598 623.382 139.598C613.909 139.598 604.434 139.489 594.964 139.66C591.997 139.714 591.254 138.94 591.978 136.045C595.248 122.955 609.389 111.971 623.388 111.807Z" fill="white"/>
<path d="M1558.05 88.0793C1546.73 88.3484 1535.19 91.854 1524.74 99.1575C1502.84 114.463 1493.36 143.284 1501.03 171.253C1508.01 196.708 1529.08 213.615 1557.16 215.138C1580.94 216.429 1600.5 208.12 1613.81 187.421C1615.58 184.673 1615.28 183.407 1612.19 182.138C1607.28 180.119 1602.35 177.999 1597.82 175.263C1593.63 172.73 1591.57 173.605 1588.77 177.493C1580 189.674 1567.53 193.196 1553.41 189.982C1539.87 186.899 1530.93 178.43 1527.43 164.589C1526.56 161.151 1527.37 160.372 1530.8 160.413C1544.96 160.582 1559.11 160.484 1573.27 160.484C1587.43 160.484 1601.58 160.381 1615.73 160.562C1618.99 160.602 1620.07 159.696 1619.96 156.425C1619.77 150.938 1619.79 145.474 1619.02 139.995C1614.51 107.835 1586.97 87.3918 1558.05 88.0793ZM1559.92 111.82C1574.34 111.769 1587.71 121.965 1590.81 135.566C1591.4 138.17 1591.62 139.733 1587.85 139.693C1568.41 139.491 1548.96 139.599 1529.52 139.585C1528.87 139.583 1528.23 139.423 1527.58 139.337C1529.26 124.787 1543.01 112.628 1558.53 111.857C1558.99 111.833 1559.46 111.821 1559.92 111.82Z" fill="white"/>
<path d="M1027.66 88.2628C1025.08 88.2482 1022.5 88.3804 1019.91 88.6456C999.671 90.7186 984.371 99.9694 976.654 119.737C975.471 122.768 976.121 123.816 979.135 124.472C984.167 125.567 989.221 126.71 994.092 128.351C999.085 130.033 1001.92 129.794 1004.47 124.013C1008.98 113.774 1020.68 109.644 1032.6 112.689C1042.08 115.11 1047.13 122.61 1047 133.37C1046.97 136.309 1045.79 137.018 1043.3 137.306C1034.7 138.301 1026.11 139.407 1017.52 140.499C1006.55 141.893 995.826 144.174 986.472 150.48C973.873 158.972 969.87 171.282 971.879 185.739C973.749 199.206 981.806 207.929 994.369 212.56C1010.46 218.492 1033.98 215.387 1048.03 197.724C1048.03 202.151 1048.17 205.264 1047.98 208.357C1047.81 211.226 1048.49 212.576 1051.78 212.446C1058.27 212.189 1064.78 212.234 1071.28 212.433C1074.17 212.521 1074.91 211.542 1074.9 208.745C1074.79 182.749 1075.19 156.744 1074.69 130.757C1074.35 113.469 1066.94 99.919 1050.29 92.796C1043.01 89.679 1035.39 88.3067 1027.66 88.2628ZM1044.96 158.401C1047.17 158.497 1047.15 159.936 1047.07 164.603C1047.3 187.185 1024.51 195.333 1010.1 191.288C1004.81 189.802 1000.91 186.452 999.994 180.732C999.008 174.584 1001.16 169.636 1006.47 166.165C1013.17 161.778 1020.98 161.758 1028.48 160.55C1032.42 159.915 1036.4 159.544 1040.34 158.927C1042.48 158.592 1043.95 158.358 1044.96 158.401Z" fill="white"/>
<path fill-rule="evenodd" clip-rule="evenodd" d="M727.91 107.032C739.635 91.1778 754.865 86.6468 772.305 88.8308C794.211 91.5718 808.522 106.718 810.867 128.887C811.391 133.846 811.636 138.857 811.655 143.845C811.739 165.178 811.629 186.512 811.757 207.844C811.777 211.122 811.224 212.626 807.47 212.456C800.651 212.145 793.8 212.182 786.977 212.447C783.596 212.578 782.856 211.421 782.876 208.228C783.012 187.729 782.956 167.229 782.933 146.729C782.93 144.066 782.994 141.369 782.621 138.745C780.47 123.547 771.825 115.428 757.311 114.801C743.342 114.197 732.122 123.352 729.018 137.955C728.221 141.707 727.873 145.508 727.885 149.366C727.942 168.866 727.792 188.367 728.012 207.864C728.055 211.732 726.912 212.617 723.268 212.453C716.615 212.153 709.93 212.173 703.275 212.448C699.847 212.591 699.138 211.35 699.146 208.185C699.24 170.685 699.255 133.185 699.127 95.6858C699.114 92.1258 700.172 91.1678 703.614 91.2928C710.604 91.5448 717.613 91.4808 724.609 91.3108C727.236 91.2478 728.122 92.0158 727.963 94.6668C727.748 98.3098 727.91 101.976 727.91 107.032Z" fill="white"/>
<path fill-rule="evenodd" clip-rule="evenodd" d="M1126.2 105.766C1128.47 105.206 1129.02 103.462 1130.06 102.292C1147.89 82.1545 1184.81 83.8405 1200.51 105.607C1206.96 114.547 1209.72 124.825 1209.83 135.653C1210.07 159.972 1209.87 184.296 1210.02 208.616C1210.04 211.802 1209.04 212.531 1206.05 212.437C1199.22 212.222 1192.38 212.155 1185.56 212.455C1181.87 212.618 1181.2 211.21 1181.22 207.876C1181.36 187.554 1181.31 167.23 1181.27 146.906C1181.27 142.75 1181.19 138.606 1180.17 134.507C1177.61 124.164 1171.56 117.354 1160.84 115.475C1149.03 113.407 1139.01 116.401 1132.05 126.758C1127.41 133.656 1126.25 141.551 1126.22 149.641C1126.16 168.798 1126.03 187.958 1126.33 207.111C1126.4 211.711 1124.98 212.71 1120.74 212.465C1114.43 212.102 1108.08 212.246 1101.75 212.427C1098.9 212.509 1097.66 212.008 1097.67 208.69C1097.79 170.71 1097.77 132.728 1097.7 94.7485C1097.7 92.2165 1098.29 91.2485 1101 91.3135C1108.33 91.4905 1115.66 91.4925 1122.99 91.3135C1125.76 91.2465 1126.36 92.3405 1126.24 94.8095C1126.08 98.3925 1126.2 101.99 1126.2 105.766Z" fill="white"/>
<path fill-rule="evenodd" clip-rule="evenodd" d="M1337.98 133.465C1337.48 144.341 1339.18 157.735 1337.19 170.96C1333 198.819 1315.69 214.074 1287.46 215.29C1279.24 215.644 1271.15 214.716 1263.33 212.116C1244.56 205.876 1231.89 189.599 1231.14 168.299C1230.28 143.671 1230.79 118.995 1230.66 94.3406C1230.65 92.3616 1231.01 91.2946 1233.36 91.3296C1241.02 91.4446 1248.69 91.4976 1256.34 91.3186C1260.16 91.2286 1259.1 93.8236 1259.1 95.7216C1259.15 115.713 1259.08 135.705 1259.18 155.697C1259.2 159.843 1259.4 164.063 1260.19 168.119C1262.88 181.962 1272.15 189.205 1285.97 188.646C1298.44 188.143 1307.19 179.503 1308.83 165.855C1309.27 162.228 1309.35 158.542 1309.36 154.882C1309.41 135.057 1309.43 115.232 1309.34 95.4066C1309.32 92.6126 1309.69 91.1646 1313.06 91.2886C1320.21 91.5526 1327.39 91.5156 1334.55 91.2996C1337.56 91.2086 1338.06 92.3946 1338.03 95.0476C1337.91 107.044 1337.98 119.039 1337.98 133.465Z" fill="white"/>
<path fill-rule="evenodd" clip-rule="evenodd" d="M481.69 163.724C481.69 178.543 481.608 193.365 481.754 208.183C481.786 211.353 481.049 212.579 477.635 212.446C470.818 212.18 463.974 212.146 457.16 212.456C453.468 212.624 452.858 211.243 452.873 207.921C452.995 178.781 452.844 149.64 453.053 120.501C453.084 116.244 451.918 115.033 447.824 115.436C444.031 115.808 440.167 115.388 436.345 115.559C433.741 115.675 432.43 115.169 432.553 112.11C432.786 106.291 432.753 100.452 432.563 94.6311C432.474 91.9121 433.466 91.2071 436.011 91.3221C439.999 91.5041 444.036 91.0391 447.989 91.4581C452.394 91.9261 453.177 90.1521 453.04 86.1701C452.736 77.3561 453.061 68.5211 452.883 59.6991C452.82 56.6321 453.384 55.2861 456.884 55.4281C464.032 55.7191 471.203 55.6171 478.36 55.4621C481.001 55.4051 481.781 56.2751 481.744 58.8791C481.609 68.2021 481.899 77.5351 481.593 86.8501C481.465 90.7441 482.755 91.5451 486.376 91.4761C491.457 91.3781 498.447 89.1561 501.127 92.3891C503.692 95.4851 501.937 102.211 501.97 107.343C502.023 115.515 501.984 115.515 493.575 115.515C481.692 115.515 481.692 115.515 481.692 127.258C481.69 139.413 481.69 151.568 481.69 163.724Z" fill="white"/>
<path fill-rule="evenodd" clip-rule="evenodd" d="M546.077 151.954C546.077 170.436 545.986 188.92 546.153 207.4C546.186 211.084 545.567 212.724 541.36 212.474C534.723 212.079 528.044 212.269 521.386 212.418C518.738 212.478 517.554 211.941 517.561 208.916C517.654 170.786 517.638 132.656 517.583 94.5259C517.58 92.2449 518.106 91.2719 520.612 91.3199C528.102 91.4629 535.602 91.5328 543.088 91.3008C546.718 91.1898 546.072 93.4269 546.073 95.5069C546.079 114.324 546.077 133.139 546.077 151.954Z" fill="white"/>
<path fill-rule="evenodd" clip-rule="evenodd" d="M549.284 56.2333C549.183 66.1993 541.437 73.6712 531.345 73.5362C521.822 73.4092 513.99 65.4353 514.045 55.9233C514.103 46.1183 522.071 38.2672 531.879 38.3522C541.802 38.4372 549.385 46.2283 549.284 56.2333Z" fill="white"/>
</g>
<defs>
<clipPath id="clip0_69_167">
<rect width="1619.97" height="272.57" fill="white"/>
</clipPath>
</defs>
</svg>
