<svg width="312" height="64" viewBox="0 0 312 64" fill="none" xmlns="http://www.w3.org/2000/svg">
<path fill-rule="evenodd" clip-rule="evenodd" d="M55 0H7.4C3.3 0 0 3.29999 0 7.39999V54.9C0 56.9 0.800001 58.8 2.2 60.2C3.6 61.6 5.5 62.4 7.5 62.4H55C57 62.4 58.9 61.6 60.3 60.2C61.7 58.8 62.5 56.9 62.5 54.9V7.39999C62.4 3.29999 59 0 55 0ZM26.9 44.9C26.9 45.6 26.6 46.2 26.2 46.7C25.7 47.2 25.1 47.4 24.4 47.4H14C12.6 47.4 11.5 46.3 11.5 44.9V14C11.5 12.6 12.6 11.5 14 11.5H24.4C25.8 11.5 26.9 12.6 26.9 14V44.9ZM50.9 30.7C50.9 31.4 50.6 32 50.2 32.5C49.7 33 49.1 33.2 48.4 33.2H38C36.6 33.2 35.5 32.1 35.5 30.7V14C35.5 12.6 36.6 11.5 38 11.5H48.4C49.8 11.5 50.9 12.6 50.9 14V30.7Z" fill="url(#paint0_linear_69_158)"/>
<path d="M129.3 4.60156V16.7016H115V62.5016H101.2V16.6016H86.9004V4.60156H129.3Z" fill="white"/>
<path d="M146.8 62.4H134.1V17.4H146.8V26C149.2 19.9 153.1 16.3 160 16.8V30.1C151 29.4 146.8 31.6 146.8 38.8V62.4Z" fill="white"/>
<path d="M229.6 62.7C221.2 62.7 216 58.7 216 49.2V0H228.8V47.5C228.8 50.2 230.6 51.2 232.8 51.2C233.4 51.2 234.1 51.2 234.7 51.1V62.2C233.1 62.6 231.3 62.8 229.6 62.7Z" fill="white"/>
<path d="M256.401 62.7C248.001 62.7 242.801 58.7 242.801 49.2V0H255.601V47.5C255.601 50.2 257.401 51.2 259.701 51.2C260.301 51.2 261.001 51.2 261.601 51.1V62.2C259.801 62.6 258.101 62.8 256.401 62.7Z" fill="white"/>
<path d="M267.701 39.7984C267.701 25.8984 275.701 16.3984 289.501 16.3984C303.301 16.3984 311.101 25.8984 311.101 39.7984C311.101 53.6984 303.201 63.3984 289.501 63.3984C275.801 63.3984 267.701 53.6984 267.701 39.7984ZM280.201 39.7984C280.201 46.5984 283.001 51.8984 289.501 51.8984C296.001 51.8984 298.601 46.4984 298.601 39.7984C298.601 33.0984 295.801 27.7984 289.501 27.7984C283.201 27.7984 280.201 33.0984 280.201 39.7984Z" fill="white"/>
<path d="M177.201 43.9008C180.801 44.3008 184.401 44.5008 187.901 44.5008C197.701 44.5008 205.901 41.9008 205.901 32.4008C205.901 23.2008 197.401 16.3008 187.201 16.3008C173.501 16.3008 164.701 26.2008 164.701 40.1008C164.701 54.5008 172.301 63.1008 189.401 63.1008C194.501 63.1008 199.501 62.2008 204.301 60.4008V49.6008C199.901 51.0008 194.901 52.4008 189.901 52.4008C183.101 52.6008 178.401 50.4008 177.201 43.9008ZM187.001 26.2008C190.601 26.2008 193.501 28.6008 193.501 32.0008C193.501 36.3008 188.901 37.7008 183.701 37.7008C181.501 37.7008 179.201 37.5008 177.001 37.2008C177.201 35.1008 177.801 33.1008 178.801 31.2008C180.501 28.2008 183.601 26.3008 187.001 26.2008Z" fill="white"/>
<defs>
<linearGradient id="paint0_linear_69_158" x1="31.153" y1="62.3678" x2="31.153" y2="-0.0122364" gradientUnits="userSpaceOnUse">
<stop stop-color="#0052CC"/>
<stop offset="1" stop-color="#2684FF"/>
</linearGradient>
</defs>
</svg>
