<svg xmlns="http://www.w3.org/2000/svg" viewBox="0 0 100 100" width="100" height="100">
  <rect width="100" height="100" fill="#ff6b35" rx="8"/>
  <path d="M15 25h70v50H15z" fill="white" rx="4"/>
  <rect x="20" y="30" width="60" height="6" fill="#ff6b35"/>
  <rect x="25" y="40" width="15" height="3" fill="#e0e0e0"/>
  <rect x="45" y="40" width="15" height="3" fill="#e0e0e0"/>
  <rect x="65" y="40" width="10" height="3" fill="#e0e0e0"/>
  <rect x="25" y="46" width="20" height="3" fill="#e0e0e0"/>
  <rect x="50" y="46" width="25" height="3" fill="#e0e0e0"/>
  <rect x="25" y="52" width="12" height="3" fill="#e0e0e0"/>
  <rect x="42" y="52" width="18" height="3" fill="#e0e0e0"/>
  <rect x="65" y="52" width="10" height="3" fill="#e0e0e0"/>
  <rect x="25" y="58" width="25" height="3" fill="#e0e0e0"/>
  <rect x="55" y="58" width="20" height="3" fill="#e0e0e0"/>
  <rect x="25" y="64" width="18" height="3" fill="#e0e0e0"/>
  <rect x="48" y="64" width="15" height="3" fill="#e0e0e0"/>
  <rect x="68" y="64" width="7" height="3" fill="#e0e0e0"/>
  <circle cx="90" cy="20" r="8" fill="white"/>
  <path d="M86 16h8v8h-8z" fill="#ff6b35"/>
  <text x="50" y="85" text-anchor="middle" fill="white" font-family="Arial, sans-serif" font-size="8" font-weight="bold">Web Scraping</text>
</svg>