<svg width="1080" height="181" viewBox="0 0 1080 181" fill="none" xmlns="http://www.w3.org/2000/svg">
<g clip-path="url(#clip0_69_15)">
<path fill-rule="evenodd" clip-rule="evenodd" d="M288.606 0.683594L196.515 180.711H110.016L148.556 106.1H146.827C115.032 147.374 67.5931 174.545 0 180.711V107.133C0 107.133 43.2409 104.579 68.661 77.8526H0V0.685016H77.1676V64.1542L78.8996 64.1471L110.433 0.685016H168.793V63.7518L170.525 63.749L203.241 0.683594H288.606Z" fill="#146EF5"/>
<path d="M790.779 160.841H815.631V18.1875H790.779V160.841Z" fill="white"/>
<path fill-rule="evenodd" clip-rule="evenodd" d="M653.772 159.383C659.174 161.629 664.666 162.751 670.25 162.751C679.475 162.751 687.728 160.506 695.011 156.015C702.294 151.524 707.938 145.333 711.944 137.444C715.95 129.493 717.952 120.481 717.952 110.406C717.952 100.331 715.889 91.3183 711.762 83.3678C707.635 75.4174 701.9 69.2573 694.556 64.8876C687.213 60.4572 678.868 58.2723 669.521 58.333C663.574 58.333 657.869 59.4861 652.407 61.7924C646.944 64.0986 642.393 67.3759 638.751 71.6242C638.47 71.9477 638.197 72.2744 637.932 72.6043V18.2773H612.988V160.84H637.75L637.7 147.522C638.341 148.307 639.025 149.074 639.753 149.824C643.698 153.891 648.371 157.077 653.772 159.383ZM679.262 136.351C675.196 138.839 670.553 140.084 665.334 140.084C660.175 140.084 655.441 138.809 651.132 136.26C646.823 133.65 643.394 130.1 640.845 125.609C638.357 121.118 637.113 116.02 637.113 110.315C637.052 104.61 638.266 99.5115 640.754 95.0204C643.303 90.4686 646.732 86.9486 651.041 84.4603C655.35 81.9113 660.114 80.6671 665.334 80.7278C670.553 80.6671 675.196 81.8809 679.262 84.3692C683.389 86.7968 686.545 90.2865 688.73 94.8383C690.975 99.3294 692.098 104.489 692.098 110.315C692.098 116.141 690.975 121.3 688.73 125.791C686.545 130.282 683.389 133.802 679.262 136.351Z" fill="white"/>
<path d="M324.611 26.8359H353.014L378.422 119.626L405.451 26.8359H429.12L458.434 117.764L482.831 26.8359H508.867L470.45 160.841H445.961L416.154 72.0114L388.791 160.841H364.029L324.611 26.8359Z" fill="white"/>
<path fill-rule="evenodd" clip-rule="evenodd" d="M550.81 163.208C540.917 163.268 531.997 161.083 524.046 156.653C516.157 152.162 509.935 145.941 505.383 137.991C500.892 130.04 498.646 120.967 498.646 110.771C498.646 100.879 500.953 91.927 505.565 83.9158C510.177 75.9047 516.429 69.6536 524.318 65.1625C532.208 60.6714 541.008 58.4258 550.719 58.4258C561.643 58.4258 571.202 60.8535 579.395 65.7087C587.649 70.5639 593.809 77.4523 597.875 86.3738C602.002 95.2346 603.489 105.4 602.336 116.87H524.357C524.575 121.44 525.715 125.598 527.778 129.342C530.084 133.469 533.301 136.686 537.427 138.992C541.554 141.298 546.167 142.451 551.265 142.451C555.149 142.391 558.76 141.723 562.098 140.449C565.436 139.114 568.258 137.323 570.565 135.078C572.931 132.832 574.601 130.283 575.572 127.431H601.608C600.03 134.41 596.874 140.631 592.14 146.093C587.406 151.494 581.458 155.712 574.297 158.747C567.135 161.781 559.306 163.268 550.81 163.208ZM527.869 91.8359C526.414 94.3722 525.407 97.1033 524.846 100.029H576.536C576.161 96.3327 575.02 92.9644 573.113 89.9242C570.929 86.3435 567.955 83.582 564.192 81.64C560.429 79.6372 556.181 78.6358 551.447 78.6358C546.41 78.6358 541.829 79.7889 537.702 82.0951C533.575 84.4014 530.296 87.6483 527.869 91.8359Z" fill="white"/>
<path d="M736.25 60.5194C736.25 52.3868 738.103 45.1647 741.805 38.8529C745.507 32.4804 750.695 27.5341 757.371 24.0141C764.107 20.4333 771.967 18.5823 780.949 18.4609V40.5825C776.761 40.6432 773.181 41.5233 770.207 43.2226C767.294 44.8612 765.048 47.2585 763.47 50.4144C762.017 53.3198 761.233 56.6881 761.118 60.5194H780.404V81.5486H761.104V160.841H736.25V81.5486H720.229V60.5194H736.25Z" fill="white"/>
<path fill-rule="evenodd" clip-rule="evenodd" d="M878.812 163.024C868.677 163.024 859.604 160.808 851.592 156.378C843.642 151.887 837.391 145.696 832.839 137.807C828.348 129.856 826.102 120.844 826.102 110.769C826.102 100.634 828.348 91.5904 832.839 83.6399C837.391 75.6288 843.642 69.408 851.592 64.9776C859.604 60.5472 868.677 58.332 878.812 58.332C889.008 58.332 898.112 60.5472 906.123 64.9776C914.195 69.408 920.476 75.5984 924.967 83.5489C929.458 91.4993 931.734 100.573 931.795 110.769C931.734 120.844 929.458 129.856 924.967 137.807C920.537 145.696 914.286 151.887 906.214 156.378C898.142 160.808 889.008 163.024 878.812 163.024ZM878.812 140.174C884.153 140.174 888.887 138.96 893.014 136.532C897.141 134.044 900.327 130.584 902.572 126.154C904.818 121.663 905.941 116.535 905.941 110.769C905.941 104.943 904.818 99.7836 902.572 95.2925C900.327 90.8014 897.141 87.3421 893.014 84.9144C888.887 82.4261 884.153 81.182 878.812 81.182C873.532 81.182 868.829 82.4261 864.702 84.9144C860.635 87.3421 857.479 90.8014 855.234 95.2925C852.988 99.7836 851.896 104.943 851.957 110.769C851.957 116.535 853.079 121.663 855.325 126.154C857.631 130.584 860.787 134.044 864.793 136.532C868.859 138.96 873.532 140.174 878.812 140.174Z" fill="white"/>
<path d="M958.649 60.5195H930.975L960.925 160.841H985.141L1004.84 96.7657L1026.11 160.841H1049.96L1080 60.5195H1054.97L1037.93 122.963L1019.1 60.5195H994.882L976.141 124.339L958.649 60.5195Z" fill="white"/>
</g>
<defs>
<clipPath id="clip0_69_15">
<rect width="1080" height="181" fill="white"/>
</clipPath>
</defs>
</svg>
