<svg width="2500" height="740" viewBox="0 0 2500 740" fill="none" xmlns="http://www.w3.org/2000/svg">
<g clip-path="url(#clip0_69_106)">
<path d="M2447.65 441.858C2446.23 448.984 2443.74 455.04 2440.35 460.382C2436.97 465.719 2432.51 470.001 2426.83 473.379C2421.3 476.59 2414.36 478.364 2406.16 478.364C2398.15 478.364 2391.2 476.766 2385.69 473.379C2380.18 470.156 2375.49 465.709 2371.98 460.382C2368.59 455.045 2366.09 448.984 2364.5 441.858C2362.93 434.784 2362.15 427.558 2362.18 420.312C2362.18 412.834 2362.9 405.351 2364.32 398.416C2365.74 391.289 2368.24 385.057 2371.62 379.715C2375 374.187 2379.46 369.92 2385.15 366.362C2390.68 362.974 2397.62 361.195 2405.81 361.195C2413.82 361.195 2420.59 362.974 2426.11 366.362C2431.64 369.783 2436.33 374.407 2439.82 379.891C2443.38 385.409 2445.88 391.817 2447.48 398.767C2449.07 405.889 2449.79 413.01 2449.79 420.312C2449.79 427.615 2449.07 434.736 2447.65 441.858ZM2495.02 384.344C2491.64 372.413 2486.66 362.085 2479.89 353.003C2472.94 344.103 2464.39 336.796 2454.06 331.458C2443.73 326.116 2431.27 323.267 2416.85 323.267C2405.45 323.267 2395.12 325.583 2385.69 330.036C2376.24 334.489 2368.41 341.786 2362.35 351.581H2361.64V328.252H2313.92V575.239H2364.13V488.511H2364.84C2370.76 497.224 2378.87 504.227 2388.35 508.815C2397.97 513.443 2408.3 515.76 2419.69 515.76C2433.05 515.76 2444.8 513.092 2454.95 507.925C2464.75 502.907 2473.32 495.793 2480.06 487.089C2486.83 478.364 2491.81 468.388 2495.02 456.995C2498.41 445.597 2500.01 433.852 2500.01 421.559C2500.01 408.562 2498.41 396.099 2495.02 384.163V384.344ZM2247.32 441.858C2245.9 448.984 2243.41 455.04 2240.02 460.382C2236.63 465.724 2232.19 470.001 2226.49 473.379C2220.97 476.59 2214.02 478.364 2205.84 478.364C2197.82 478.364 2191.06 476.766 2185.35 473.379C2179.85 470.153 2175.15 465.707 2171.64 460.382C2168.26 455.045 2165.77 448.984 2164.17 441.858C2162.59 434.785 2161.82 427.558 2161.85 420.312C2161.85 412.834 2162.56 405.351 2163.98 398.416C2165.41 391.289 2167.9 385.057 2171.28 379.715C2174.67 374.187 2179.12 369.92 2184.82 366.362C2190.34 362.974 2197.28 361.195 2205.47 361.195C2213.49 361.195 2220.25 362.974 2225.78 366.362C2231.31 369.782 2235.99 374.407 2239.48 379.891C2243.05 385.409 2245.54 391.817 2247.15 398.767C2248.75 405.889 2249.45 413.01 2249.45 420.312C2249.45 427.615 2248.75 434.736 2247.32 441.858ZM2279.55 353.003C2272.78 344.103 2264.06 336.796 2253.73 331.458C2243.4 326.116 2230.94 323.267 2216.51 323.267C2205.11 323.267 2194.79 325.583 2185.35 330.036C2175.91 334.489 2168.08 341.786 2162.02 351.581H2161.3V328.252H2113.58V575.239H2163.8V488.511H2164.51C2170.43 497.224 2178.54 504.227 2188.02 508.815C2197.63 513.443 2207.96 515.76 2219.36 515.76C2232.89 515.76 2244.46 513.092 2254.63 507.925C2264.42 502.904 2272.99 495.79 2279.72 487.089C2286.5 478.364 2291.48 468.388 2294.87 456.995C2298.16 445.469 2299.83 433.544 2299.86 421.559C2299.86 408.562 2298.25 396.099 2294.87 384.163C2291.48 372.237 2286.5 361.904 2279.55 352.828V353.003ZM1949.04 413.548L1981.98 320.769H1982.7L2014.57 413.548H1949.04ZM1954.38 258.445L1858.76 511.126H1914.67L1934.44 454.859H2029L2048.05 511.126H2105.74L2011.19 258.445H1954.21H1954.38ZM1854.66 430.997C1851.27 425.298 1847 420.312 1841.48 416.397C1836.14 412.482 1829.91 409.447 1822.96 406.959C1815.92 404.647 1808.79 402.629 1801.59 400.908C1794.47 399.3 1787.52 397.697 1780.75 396.275C1773.98 394.852 1767.75 393.244 1762.59 391.465C1757.25 389.686 1752.98 387.374 1749.77 384.52C1746.38 381.67 1744.79 378.112 1744.79 373.483C1744.79 369.744 1745.67 366.714 1747.63 364.397C1749.59 362.085 1751.91 360.482 1754.58 359.235C1757.25 357.989 1760.27 357.275 1763.66 356.924C1766.74 356.583 1769.83 356.405 1772.92 356.391C1781.82 356.391 1789.66 358.17 1796.25 361.552C1802.84 364.934 1806.58 371.523 1807.11 381.137H1854.84C1853.94 369.739 1850.92 360.482 1846.11 352.998C1841.3 345.515 1835.25 339.645 1827.95 335.192C1820.65 330.74 1812.28 327.538 1803.02 325.578C1793.76 323.618 1784.14 322.729 1774.17 322.729C1764.2 322.729 1754.59 323.623 1745.15 325.397C1735.71 327.176 1727.17 330.207 1719.69 334.66C1712.03 339.113 1705.97 344.993 1701.52 352.466C1696.89 359.944 1694.58 369.744 1694.58 381.489C1694.58 389.505 1696.18 396.27 1699.56 401.788C1702.77 407.316 1707.22 411.94 1712.56 415.679C1718.08 419.242 1724.14 422.272 1731.09 424.584C1738.03 426.896 1745.15 428.861 1752.45 430.459C1770.44 434.198 1784.33 437.937 1794.48 441.677C1804.45 445.416 1809.44 451.115 1809.44 458.593C1809.44 463.046 1808.37 466.785 1806.23 469.81C1804.14 472.767 1801.4 475.204 1798.22 476.932C1795.01 478.711 1791.45 479.962 1787.53 480.847C1783.85 481.684 1780.09 482.102 1776.32 482.093C1771.33 482.093 1766.52 481.565 1762.07 480.314C1757.44 479.068 1753.34 477.279 1749.79 474.791C1746.22 472.298 1743.37 469.092 1741.06 465.177C1738.74 461.262 1737.67 456.628 1737.67 451.286H1689.95C1690.48 463.568 1693.16 473.72 1698.32 481.912C1703.31 490.109 1709.9 496.517 1717.73 501.502C1725.57 506.488 1734.65 510.046 1744.8 512.182C1754.95 514.323 1765.27 515.393 1775.96 515.393C1786.29 515.393 1796.61 514.323 1806.59 512.358C1816.56 510.403 1825.47 506.84 1833.3 501.854C1841.14 496.869 1847.37 490.28 1852.18 482.264C1856.98 474.077 1859.48 464.106 1859.48 451.994C1859.48 443.451 1857.88 436.329 1854.49 430.625L1854.66 430.997ZM1646.84 273.407H1596.63V328.252H1566.17V361.904H1596.63V469.82C1596.63 479.083 1598.23 486.385 1601.26 492.079C1604.29 497.783 1608.56 502.05 1613.9 505.262C1619.24 508.287 1625.3 510.423 1632.25 511.493C1639.56 512.581 1646.94 513.115 1654.33 513.092C1659.31 513.092 1664.3 512.916 1669.64 512.74C1674.36 512.58 1679.06 512.103 1683.71 511.312V472.313C1681.25 472.868 1678.75 473.224 1676.23 473.379C1673.51 473.592 1670.78 473.711 1668.04 473.735C1659.49 473.735 1653.97 472.313 1651.13 469.459C1648.28 466.614 1646.85 460.91 1646.85 452.547V361.904H1683.71V328.252H1646.85V273.407H1646.84ZM1502.78 440.435C1502.78 443.28 1502.43 447.024 1501.89 451.834C1501.29 456.753 1499.65 461.488 1497.08 465.724C1494.41 470.358 1490.49 474.273 1484.97 477.66C1479.64 481.038 1471.8 482.646 1462.01 482.646C1458.09 482.646 1454.16 482.284 1450.25 481.575C1446.51 480.857 1443.13 479.61 1440.28 477.836C1437.43 476.052 1435.29 473.74 1433.51 470.534C1431.91 467.509 1431.02 463.769 1431.02 459.136C1431.02 454.326 1431.91 450.587 1433.51 447.386C1435.11 444.35 1437.42 441.858 1440.1 439.727C1442.77 437.767 1445.98 436.168 1449.72 434.922C1453.46 433.676 1457.02 432.781 1460.93 432.068C1464.96 431.376 1468.99 430.783 1473.04 430.288C1477.14 429.756 1480.88 429.218 1484.62 428.509C1488.36 427.801 1491.74 426.906 1494.95 425.841C1498.15 424.775 1500.82 423.348 1502.96 421.388V440.089L1502.78 440.435ZM1553 470.529V375.257C1553 364.221 1550.5 355.315 1545.52 348.551C1540.54 341.781 1534.12 336.62 1526.46 332.881C1518.63 329.142 1510.08 326.649 1500.64 325.227C1491.38 323.96 1482.04 323.305 1472.69 323.267C1462.53 323.267 1452.39 324.337 1442.41 326.297C1432.45 328.257 1423.36 331.634 1415.35 336.449C1407.46 341.144 1400.71 347.531 1395.58 355.149C1390.42 362.985 1387.39 372.775 1386.68 384.53H1436.9C1437.79 374.564 1441.17 367.618 1446.86 363.341C1452.57 359.064 1460.22 356.934 1470.2 356.934C1474.65 356.934 1478.92 357.285 1482.84 357.823C1486.49 358.303 1490 359.515 1493.17 361.386C1496.2 363.165 1498.51 365.658 1500.3 368.865C1502.07 372.071 1502.96 376.338 1502.96 381.861C1503.14 387.022 1501.72 390.947 1498.33 393.792C1494.95 396.461 1490.5 398.602 1484.8 400.024C1479.11 401.446 1472.69 402.517 1465.39 403.23C1458.09 403.944 1450.61 404.833 1443.13 406.08C1435.66 407.326 1428.17 408.924 1420.69 410.884C1413.22 412.844 1406.62 415.87 1400.92 419.971C1395.05 424.062 1390.42 429.404 1386.68 435.993C1382.94 442.762 1381.16 451.311 1381.16 461.639C1381.16 471.077 1382.76 479.269 1385.97 486.033C1388.97 492.628 1393.49 498.425 1399.14 502.955C1405.02 507.527 1411.74 510.914 1418.91 512.926C1426.39 515.062 1434.58 516.127 1443.3 516.127C1454.7 516.127 1465.74 514.529 1476.6 511.142C1487.35 507.863 1497.09 501.923 1504.92 493.873C1505.1 496.899 1505.63 499.919 1506.17 502.955C1506.7 505.799 1507.59 508.83 1508.48 511.679H1559.41C1557.1 507.94 1555.32 502.236 1554.43 494.758C1553.48 486.899 1553.01 478.992 1553 471.077V470.529H1553ZM1346.08 344.098C1341.09 337.69 1334.32 332.524 1325.78 328.961C1317.23 325.222 1306.19 323.437 1292.65 323.437C1283.22 323.437 1273.6 325.93 1263.63 330.74C1253.66 335.549 1245.64 343.384 1239.24 353.888H1238.17V258.621H1187.95V511.307H1238.17V415.327C1238.17 396.626 1241.2 383.273 1247.43 375.081C1253.48 366.889 1263.46 362.974 1277.17 362.974C1289.1 362.974 1297.65 366.714 1302.27 374.187C1306.91 381.665 1309.4 392.887 1309.4 408.02V511.307H1359.62V398.767C1359.62 387.369 1358.55 377.046 1356.59 367.784C1354.63 358.522 1351.06 350.511 1346.08 344.098ZM1080.57 432.781H1079.85L1036.76 258.626H984.761L940.953 430.645H940.239L900.169 258.626H844.615L911.567 511.312H967.84L1009.86 339.288H1010.58L1053.32 511.312H1108.52L1138.79 399.124L1176.54 258.626H1122.05L1080.57 432.781Z" fill="white"/>
<path d="M373.61 663.384C312.171 663.384 254.833 644.865 206.933 613.348L90.4681 650.559L128.221 538.019C91.8954 488.154 70.5312 426.72 70.5312 360.476C70.5312 193.443 206.401 57.5735 373.434 57.5735C540.468 57.5735 676.337 193.443 676.337 360.476C676.337 527.505 540.468 663.379 373.434 663.379H373.61V663.384ZM373.61 0.230469C174.693 0.230469 13.3641 161.575 13.3641 360.481C13.3641 428.504 32.2406 492.255 65.003 546.567L0.00585938 739.78L199.455 675.853C252.765 705.331 312.693 720.772 373.61 720.727C572.521 720.727 733.856 559.393 733.856 360.481C733.851 161.575 572.521 0.230469 373.61 0.230469Z" fill="#FEFEFE"/>
<path d="M373.61 57.5742C206.576 57.5742 70.707 193.444 70.707 360.477C70.707 426.721 92.0762 488.155 128.402 538.019L90.6489 650.559L207.109 613.349C255.009 645.046 312.171 663.385 373.786 663.385C540.819 663.385 676.689 527.511 676.689 360.482C676.689 193.449 540.819 57.5792 373.786 57.5792H373.61V57.5742Z" fill="url(#paint0_linear_69_106)"/>
<path d="M289.022 211.434C283.147 197.367 278.694 196.835 269.793 196.473C266.414 196.255 263.028 196.138 259.642 196.121C248.062 196.121 235.956 199.503 228.653 206.982C219.753 216.063 197.67 237.251 197.67 280.703C197.67 324.155 229.367 366.18 233.639 372.06C238.091 377.93 295.434 468.392 384.469 505.261C454.095 534.108 474.756 531.435 490.602 528.052C513.75 523.067 542.778 505.964 550.081 485.314C557.383 464.653 557.383 447.023 555.242 443.284C553.106 439.545 547.226 437.414 538.326 432.956C529.425 428.504 486.149 407.134 477.957 404.285C469.941 401.259 462.287 402.33 456.236 410.878C447.687 422.809 439.32 434.921 432.55 442.219C427.208 447.918 418.478 448.631 411.181 445.601C401.386 441.51 373.966 431.886 340.128 401.792C313.949 378.468 296.143 349.445 290.982 340.72C285.815 331.82 290.449 326.648 294.54 321.844C298.993 316.32 303.265 312.405 307.717 307.239C312.17 302.078 314.663 299.404 317.512 293.348C320.543 287.473 318.402 281.417 316.266 276.964C314.13 272.511 296.324 229.059 289.022 211.434Z" fill="#FEFEFE"/>
</g>
<defs>
<linearGradient id="paint0_linear_69_106" x1="-2206.15" y1="-957.272" x2="-2206.15" y2="-935.046" gradientUnits="userSpaceOnUse">
<stop stop-color="#6EBF61"/>
<stop offset="0.231" stop-color="#50A557"/>
<stop offset="0.522" stop-color="#2A904F"/>
<stop offset="0.812" stop-color="#50A557"/>
<stop offset="1" stop-color="#6EBF63"/>
</linearGradient>
<clipPath id="clip0_69_106">
<rect width="2500" height="740" fill="white"/>
</clipPath>
</defs>
</svg>
