<svg width="651" height="177" viewBox="0 0 651 177" fill="none" xmlns="http://www.w3.org/2000/svg">
<path d="M153.569 120.78L153.479 120.49L211.269 67.5798V42.0898H118.549V67.5798H173.929L174.019 67.8199L116.789 120.77V146.26H212.199V120.77H153.569V120.78Z" fill="white"/>
<path d="M269.119 39.6602C258.429 39.6602 249.709 41.2702 242.969 44.5002C236.689 47.3102 231.409 51.9401 227.799 57.8001C224.349 63.6901 222.179 70.2502 221.429 77.0302L249.559 80.9802C250.579 74.9902 252.609 70.7402 255.669 68.2302C259.139 65.6102 263.419 64.2901 267.759 64.4901C273.469 64.4901 277.609 66.0202 280.179 69.0702C282.729 72.1202 284.029 76.3502 284.029 81.9202V84.7002H256.979C243.209 84.7002 233.319 87.7501 227.299 93.8601C221.289 99.9701 218.279 108.03 218.289 118.04C218.289 128.3 221.289 135.93 227.299 140.94C233.299 145.95 240.859 148.43 249.949 148.4C261.239 148.4 269.919 144.52 275.989 136.75C279.579 131.98 282.139 126.52 283.519 120.71H284.539L288.419 146.2H313.909V81.6402C313.909 68.3002 310.399 57.9602 303.359 50.6402C296.349 43.3202 284.929 39.6602 269.119 39.6602ZM278.039 119.23C273.989 122.6 268.699 124.28 262.099 124.28C256.669 124.28 252.889 123.33 250.769 121.43C249.739 120.53 248.919 119.41 248.369 118.16C247.819 116.91 247.549 115.55 247.579 114.18C247.519 112.89 247.719 111.6 248.179 110.39C248.629 109.18 249.329 108.08 250.219 107.14C251.189 106.23 252.329 105.53 253.569 105.08C254.819 104.63 256.139 104.43 257.469 104.5H284.079V106.26C284.129 108.74 283.619 111.2 282.569 113.45C281.519 115.7 279.969 117.68 278.039 119.23Z" fill="white"/>
<path d="M468.069 42.0781H437.949V146.278H468.069V42.0781Z" fill="white"/>
<path d="M645.899 42.0781C637.389 42.0781 630.689 45.0781 625.779 51.0881C622.259 55.3981 619.579 61.7781 617.749 70.2181H616.859L612.919 42.0881H587.199V146.268H617.319V92.8381C617.319 86.0981 618.899 80.9381 622.049 77.3481C625.199 73.7581 631.029 71.9581 639.509 71.9581H650.939V42.0881H645.899V42.0781Z" fill="white"/>
<path d="M557.31 45.4905C550.28 41.3105 541.41 39.2205 530.71 39.2305C513.86 39.2305 500.67 44.0305 491.14 53.6305C481.61 63.2305 476.85 76.4605 476.85 93.3205C476.61 103.511 478.83 113.621 483.34 122.771C487.46 130.92 493.88 137.691 501.81 142.231C509.79 146.841 519.28 149.151 530.28 149.161C539.79 149.161 547.74 147.691 554.12 144.761C560.12 142.131 565.34 138.001 569.29 132.781C573.05 127.651 575.84 121.881 577.53 115.741L551.58 108.471C550.49 112.461 548.38 116.101 545.47 119.031C542.54 121.961 537.63 123.431 530.74 123.431C522.55 123.431 516.44 121.081 512.42 116.391C509.5 113.001 507.67 108.161 506.86 101.891H577.92C578.21 98.9605 578.36 96.5005 578.36 94.5205V88.0305C578.53 79.3105 576.73 70.6705 573.09 62.7505C569.71 55.5405 564.2 49.5205 557.31 45.4905ZM529.84 64.0705C542.05 64.0705 548.98 70.0805 550.61 82.1005H507.41C508.1 78.0905 509.76 74.3105 512.25 71.0905C516.21 66.4005 522.07 64.0605 529.84 64.0705Z" fill="white"/>
<path d="M453.34 0.0885727C451.07 0.00857275 448.82 0.388583 446.7 1.20858C444.58 2.02858 442.65 3.24858 441.02 4.82858C439.41 6.41858 438.15 8.32857 437.32 10.4286C436.49 12.5286 436.1 14.7786 436.18 17.0386C436.1 19.3086 436.49 21.5786 437.32 23.6986C438.15 25.8186 439.41 27.7386 441.02 29.3486C442.63 30.9586 444.55 32.2186 446.67 33.0486C448.79 33.8786 451.05 34.2686 453.33 34.1886C455.59 34.2786 457.84 33.8886 459.95 33.0586C462.05 32.2286 463.96 30.9686 465.55 29.3486C467.13 27.7186 468.35 25.7886 469.17 23.6786C469.98 21.5686 470.35 19.3086 470.27 17.0486C470.37 14.7986 470.01 12.5486 469.19 10.4486C468.38 8.34857 467.14 6.43858 465.54 4.84858C463.95 3.25858 462.04 2.00857 459.94 1.19857C457.84 0.388573 455.6 0.0185715 453.35 0.118572L453.34 0.0885727Z" fill="white"/>
<path d="M391.119 39.2305C380.859 39.2305 372.619 42.4505 366.389 48.8905C361.779 53.6605 358.389 60.7905 356.239 70.2605H355.279L351.339 42.1305H325.619V176.22H355.739V120.99H356.839C357.759 124.67 359.049 128.25 360.689 131.68C363.239 137.26 367.419 141.93 372.679 145.08C378.129 148.05 384.269 149.53 390.479 149.37C403.089 149.37 412.689 144.46 419.279 134.64C425.869 124.82 429.169 111.12 429.169 93.5305C429.169 76.5405 425.979 63.2505 419.599 53.6405C413.209 44.0305 403.719 39.2305 391.119 39.2305ZM394.179 114.73C390.669 119.82 385.169 122.36 377.689 122.36C374.609 122.5 371.529 121.91 368.729 120.63C365.919 119.35 363.459 117.41 361.549 114.99C357.649 110.1 355.709 103.39 355.719 94.8905V92.9105C355.719 84.2705 357.659 77.6605 361.549 73.0705C365.439 68.4805 370.819 66.2105 377.699 66.2605C385.309 66.2605 390.839 68.6805 394.289 73.5105C397.739 78.3405 399.459 85.0905 399.459 93.7405C399.479 102.69 397.729 109.69 394.209 114.74H394.179V114.73Z" fill="white"/>
<path d="M105.149 120.781H0.949219V146.301H105.149V120.781Z" fill="#E9521D"/>
</svg>
